<svg width="32" height="32" viewBox="0 0 32 32" fill="none" xmlns="http://www.w3.org/2000/svg">
<g clip-path="url(#clip0_482_38167)">
<path fill-rule="evenodd" clip-rule="evenodd" d="M28 4H3.99996C3.46953 4 2.96082 4.21071 2.58575 4.58579C2.21068 4.96086 1.99996 5.46957 1.99996 6V24C1.99996 24.5304 2.21068 25.0391 2.58575 25.4142C2.96082 25.7893 3.46953 26 3.99996 26H22.6875L26.7025 29.5138C26.7073 29.519 26.7127 29.5236 26.7187 29.5275C27.0765 29.8315 27.5305 29.9989 28 30C28.2915 29.9995 28.5794 29.9356 28.8437 29.8125C29.1905 29.6538 29.4841 29.3984 29.6893 29.0768C29.8944 28.7553 30.0023 28.3814 30 28V6C30 5.46957 29.7892 4.96086 29.4142 4.58579C29.0391 4.21071 28.5304 4 28 4ZM11 15C11 16.1046 10.1046 17 9 17C7.89543 17 7 16.1046 7 15C7 13.8954 7.89543 13 9 13C10.1046 13 11 13.8954 11 15ZM16 17C17.1046 17 18 16.1046 18 15C18 13.8954 17.1046 13 16 13C14.8954 13 14 13.8954 14 15C14 16.1046 14.8954 17 16 17ZM23 17C24.1046 17 25 16.1046 25 15C25 13.8954 24.1046 13 23 13C21.8954 13 21 13.8954 21 15C21 16.1046 21.8954 17 23 17Z" fill="white" fill-opacity="0.75"/>
</g>
<defs>
<clipPath id="clip0_482_38167">
<rect width="32" height="32" fill="white"/>
</clipPath>
</defs>
</svg>
