<svg width="32" height="32" viewBox="0 0 32 32" fill="none" xmlns="http://www.w3.org/2000/svg">
<path d="M15.5 7C14.9067 7 14.3266 6.82405 13.8333 6.49441C13.3399 6.16476 12.9554 5.69623 12.7284 5.14805C12.5013 4.59987 12.4419 3.99667 12.5576 3.41473C12.6734 2.83279 12.9591 2.29824 13.3787 1.87868C13.7982 1.45912 14.3328 1.1734 14.9147 1.05765C15.4967 0.94189 16.0999 1.0013 16.6481 1.22836C17.1962 1.45543 17.6648 1.83994 17.9944 2.33329C18.3241 2.82664 18.5 3.40666 18.5 4C18.5 4.79565 18.1839 5.55871 17.6213 6.12132C17.0587 6.68393 16.2957 7 15.5 7Z" fill="white" fill-opacity="0.75"/>
<path opacity="0.75" d="M9 11C7.89543 11 7 11.8954 7 13V13C7 14.1046 7.89543 15 9 15H14V25H9C7.89543 25 7 25.8954 7 27V27C7 28.1046 7.89543 29 9 29H23C24.1046 29 25 28.1046 25 27V27C25 25.8954 24.1046 25 23 25H18V14.2C18 13.0799 18 12.5198 17.782 12.092C17.5903 11.7157 17.2843 11.4097 16.908 11.218C16.4802 11 15.9201 11 14.8 11H9Z" fill="white"/>
</svg>
