<svg width="32" height="32" viewBox="0 0 32 32" fill="none" xmlns="http://www.w3.org/2000/svg">
<path d="M15.5 8C14.7089 8 13.9355 7.7654 13.2777 7.32588C12.6199 6.88635 12.1072 6.26164 11.8045 5.53073C11.5017 4.79983 11.4225 3.99556 11.5769 3.21964C11.7312 2.44372 12.1122 1.73098 12.6716 1.17157C13.231 0.612165 13.9437 0.231201 14.7196 0.0768607C15.4956 -0.0774802 16.2998 0.00173312 17.0307 0.304484C17.7616 0.607234 18.3864 1.11992 18.8259 1.77772C19.2654 2.43552 19.5 3.20888 19.5 4C19.5 5.06087 19.0786 6.07828 18.3284 6.82843C17.5783 7.57857 16.5609 8 15.5 8Z" fill="white"/>
<path d="M10 11C9.06812 11 8.60218 11 8.23463 11.1522C7.74458 11.3552 7.35523 11.7446 7.15224 12.2346C7 12.6022 7 13.0681 7 14V14C7 14.9319 7 15.3978 7.15224 15.7654C7.35523 16.2554 7.74458 16.6448 8.23463 16.8478C8.60218 17 9.06812 17 10 17H13V23H10C9.06812 23 8.60218 23 8.23463 23.1522C7.74458 23.3552 7.35523 23.7446 7.15224 24.2346C7 24.6022 7 25.0681 7 26V26C7 26.9319 7 27.3978 7.15224 27.7654C7.35523 28.2554 7.74458 28.6448 8.23463 28.8478C8.60218 29 9.06812 29 10 29H22C22.9319 29 23.3978 29 23.7654 28.8478C24.2554 28.6448 24.6448 28.2554 24.8478 27.7654C25 27.3978 25 26.9319 25 26V26C25 25.0681 25 24.6022 24.8478 24.2346C24.6448 23.7446 24.2554 23.3552 23.7654 23.1522C23.3978 23 22.9319 23 22 23H19V14.2C19 13.0799 19 12.5198 18.782 12.092C18.5903 11.7157 18.2843 11.4097 17.908 11.218C17.4802 11 16.9201 11 15.8 11H10Z" fill="white"/>
</svg>
