<svg width="32" height="32" viewBox="0 0 32 32" fill="none" xmlns="http://www.w3.org/2000/svg">
<path fill-rule="evenodd" clip-rule="evenodd" d="M25 4C23.8954 4 23 4.89543 23 6V13.6536L8.05375 4.30612C7.75275 4.11717 7.40672 4.01211 7.05147 4.00181C6.69623 3.99152 6.34469 4.07637 6.03326 4.24758C5.72182 4.41878 5.46181 4.67012 5.28014 4.97557C5.09848 5.28102 5.00176 5.62948 5 5.98487V26.0149C5.00176 26.3703 5.09848 26.7187 5.28014 27.0242C5.46181 27.3296 5.72182 27.581 6.03326 27.7522C6.34469 27.9234 6.69623 28.0082 7.05147 27.9979C7.40672 27.9876 7.75275 27.8826 8.05375 27.6936L23 18.3461V26C23 27.1046 23.8954 28 25 28C26.1046 28 27 27.1046 27 26V6C27 4.89543 26.1046 4 25 4Z" fill="white"/>
</svg>
