<svg width="24" height="24" viewBox="0 0 24 24" fill="none" xmlns="http://www.w3.org/2000/svg">
<path d="M2 10.5999C2 10.0399 2 9.75985 2.10899 9.54594C2.20487 9.35777 2.35785 9.20479 2.54601 9.10892C2.75992 8.99993 3.03995 8.99993 3.6 8.99993H5.33726C5.58185 8.99993 5.70414 8.99993 5.81923 8.9723C5.92127 8.9478 6.01881 8.9074 6.10828 8.85257C6.2092 8.79073 6.29568 8.70425 6.46863 8.5313L9.63432 5.36561C10.0627 4.93724 10.2769 4.72305 10.4608 4.70858C10.6203 4.69602 10.7763 4.76061 10.8802 4.88231C11 5.02257 11 5.32548 11 5.9313V18.0686C11 18.6744 11 18.9773 10.8802 19.1175C10.7763 19.2392 10.6203 19.3038 10.4608 19.2913C10.2769 19.2768 10.0627 19.0626 9.63431 18.6342L6.46863 15.4686C6.29568 15.2956 6.2092 15.2091 6.10828 15.1473C6.01881 15.0925 5.92127 15.0521 5.81923 15.0276C5.70414 14.9999 5.58185 14.9999 5.33726 14.9999H3.6C3.03995 14.9999 2.75992 14.9999 2.54601 14.8909C2.35785 14.7951 2.20487 14.6421 2.10899 14.4539C2 14.24 2 13.96 2 13.3999V10.5999Z" fill="white" stroke="white" stroke-width="2" stroke-linecap="round" stroke-linejoin="round"/>
<path d="M19.7477 5C21.165 6.97024 21.9998 9.38763 21.9998 12C21.9998 14.6124 21.165 17.0298 19.7477 19M15.7451 8C16.536 9.13383 16.9998 10.5128 16.9998 12C16.9998 13.4872 16.536 14.8662 15.7451 16" stroke="white" stroke-width="2" stroke-linecap="round" stroke-linejoin="round"/>
</svg>
