<svg width="32" height="32" viewBox="0 0 32 32" fill="none" xmlns="http://www.w3.org/2000/svg">
<path d="M0.108034 13.6472C0.272222 14.1236 0.722452 14.5215 1.62291 15.3174L10.3348 23.0169C11.823 24.3321 12.5671 24.9897 13.1955 24.9998C13.7418 25.0085 14.2616 24.7503 14.605 24.2997C15 23.7812 15 22.754 15 20.6995V19H19.2659C23.6231 19 24.9884 24.8875 21.0758 26.8052C20.9215 26.8808 20.7603 26.9416 20.599 27.0025C20.4311 27.0658 20.2632 27.1291 20.1031 27.2091C19.3146 27.6035 18.8553 28.4901 19.039 29.3955C19.2586 30.478 20.3142 31.1775 21.3968 30.9579C26.8755 29.8463 31 24.8082 31 19C31 12.3726 25.6274 7 19 7H15V5.30047C15 3.24602 15 2.21877 14.605 1.70034C14.2616 1.24966 13.7418 0.991478 13.1955 1.00021C12.5671 1.01026 11.823 1.66788 10.3348 2.98312L1.62291 10.6826C0.722451 11.4785 0.272222 11.8764 0.108034 12.3528C-0.0360114 12.7707 -0.0360114 13.2293 0.108034 13.6472Z" fill="white"/>
</svg>
