<svg width="32" height="32" viewBox="0 0 32 32" fill="none" xmlns="http://www.w3.org/2000/svg">
<path d="M0.108034 12.5933C0.272222 13.03 0.722452 13.3947 1.62291 14.1242L10.3348 21.1821C11.823 22.3878 12.5671 22.9906 13.1955 22.9998C13.7418 23.0078 14.2616 22.7711 14.605 22.358C15 21.8828 15 20.9412 15 19.0579V15H20C22.7614 15 25 17.2386 25 20C25 22.7614 22.7614 25 20 25C18.3431 25 17 26.3431 17 28C17 29.6569 18.3431 31 20 31C26.0751 31 31 26.0751 31 20C31 13.9249 26.0751 9 20 9H15V4.9421C15 3.05885 15 2.11721 14.605 1.64198C14.2616 1.22885 13.7418 0.992188 13.1955 1.0002C12.5671 1.00941 11.823 1.61223 10.3348 2.81786L1.62291 9.87576C0.722451 10.6053 0.272222 10.97 0.108034 11.4067C-0.0360114 11.7898 -0.0360114 12.2102 0.108034 12.5933Z" fill="white"/>
</svg>
