<svg width="438" height="78" viewBox="0 0 438 78" fill="none" xmlns="http://www.w3.org/2000/svg">
<path d="M130.302 57.1998C130.302 65.3998 128.402 71.5998 121.002 77.3998L112.902 70.5998C117.102 66.5998 118.502 63.5998 118.602 58.6998H112.102V40.2998H130.302V57.1998Z" fill="#eee"/>
<path d="M130.301 9.7998H112.301V28.0998H130.301V9.7998Z" fill="#eee"/>
<path d="M0 58.7002V0.700195H43.6V14.5002H17.5V24.7002H41.6V38.5002H17.5V58.7002H0Z" fill="#eee"/>
<path d="M84.2984 58.7002V36.0002H67.2984V58.7002H49.3984V0.700195H67.2984V21.1002H84.1984V0.700195H102.198V58.7002H84.2984Z" fill="#eee"/>
<path d="M140.5 58.7002V0.700195H165.3C176.7 0.700195 181.6 1.9002 185.1 4.2002C190.2 7.6002 192.7 13.1002 192.7 20.3002C192.7 27.0002 190.1 32.8002 185.4 36.2002C181.4 39.1002 176.1 40.5002 167.1 40.5002H158.3V58.7002H140.5ZM165.1 27.0002C168.6 27.0002 171.1 26.5002 172.5 25.4002C173.8 24.3002 174.3 22.7002 174.3 20.8002C174.3 19.0002 173.8 17.4002 172.5 16.2002C171.2 15.0002 169.1 14.6002 165.4 14.6002H158.3V27.0002H165.1Z" fill="#eee"/>
<path d="M223.798 2.8002V6.6002H227.598V8.6002H223.798V14.3002H221.098V0.700195H228.098V2.8002H223.798Z" fill="#eee"/>
<path d="M235.599 14.3L235.399 13.3C234.499 14 233.599 14.6 232.299 14.6C230.299 14.6 229.199 13.6 229.199 11.7C229.199 9.6 230.899 8.2 234.399 8.2H234.999V7.4C234.999 6.4 234.399 5.9 233.099 5.9C232.099 5.9 230.899 6.2 229.999 6.5L229.699 4.9C230.899 4.4 232.199 4 233.799 4C236.399 4 237.599 5.2 237.599 7.1V14.3H235.599ZM234.999 9.7H234.199C232.199 9.7 231.699 10.3 231.699 11.3C231.699 12.1 232.199 12.6 233.099 12.6C233.699 12.6 234.399 12.3 234.999 11.7V9.7Z" fill="#eee"/>
<path d="M243.898 14.5C241.198 14.5 239.898 12.8 239.898 9.4C239.898 6.2 241.498 4 244.098 4C245.398 4 246.398 4.5 247.098 5.3L246.198 6.6C245.698 6.2 245.198 5.9 244.498 5.9C243.298 5.9 242.598 7 242.598 9.1C242.598 11.6 243.298 12.5 244.398 12.5C245.198 12.5 245.898 12.2 246.498 11.7L247.298 13C246.598 13.8 245.498 14.5 243.898 14.5Z" fill="#eee"/>
<path d="M257.498 14.3H254.898C254.898 12.2 254.998 10.1 254.998 9C254.998 6.6 254.498 6 253.598 6C253.098 6 252.398 6.3 251.698 6.8V14.2H249.098V0H251.698V5.1C252.398 4.5 253.398 4 254.498 4C256.498 4 257.598 5.3 257.598 8.6C257.598 9.8 257.498 12.1 257.498 14.3Z" fill="#eee"/>
<path d="M268.798 14.3H266.198C266.198 12.2 266.298 10.1 266.298 9C266.298 6.6 265.798 6 264.898 6C264.398 6 263.698 6.3 262.998 6.8V14.2H260.398V0H262.998V5.1C263.698 4.5 264.698 4 265.798 4C267.798 4 268.898 5.3 268.898 8.6C268.898 9.8 268.798 12.1 268.798 14.3Z" fill="#eee"/>
<path d="M275.598 14.5004C272.698 14.5004 271.098 13.0004 271.098 9.40039C271.098 5.70039 272.998 3.90039 275.998 3.90039C278.898 3.90039 280.498 5.40039 280.498 9.00039C280.498 12.8004 278.598 14.5004 275.598 14.5004ZM275.798 5.90039C274.598 5.90039 273.798 6.70039 273.798 9.00039C273.798 11.8004 274.498 12.6004 275.798 12.6004C276.998 12.6004 277.798 11.8004 277.798 9.50039C277.898 6.60039 277.098 5.90039 275.798 5.90039Z" fill="#eee"/>
<path d="M286.398 14.5C283.698 14.5 282.398 12.8 282.398 9.4C282.398 6.2 283.998 4 286.598 4C287.898 4 288.898 4.5 289.598 5.3L288.698 6.6C288.198 6.2 287.698 5.9 286.998 5.9C285.798 5.9 285.098 7 285.098 9.1C285.098 11.6 285.798 12.5 286.898 12.5C287.698 12.5 288.398 12.2 288.998 11.7L289.798 13C288.998 13.8 287.898 14.5 286.398 14.5Z" fill="#eee"/>
<path d="M299.9 14.3H297.3C297.3 12.2 297.4 10.1 297.4 9C297.4 6.6 296.9 6 296 6C295.5 6 294.8 6.3 294.1 6.8V14.2H291.5V0H294.1V5.1C294.8 4.5 295.8 4 296.9 4C298.9 4 300 5.3 300 8.6C300 9.8 299.9 12.1 299.9 14.3Z" fill="#eee"/>
<path d="M305.198 14.5004C304.098 14.5004 302.998 14.2004 302.098 13.7004L302.298 12.3004C303.498 12.6004 304.098 12.6004 304.798 12.6004C306.098 12.6004 306.598 12.1004 306.598 11.5004C306.598 10.8004 306.298 10.5004 304.798 10.0004C302.898 9.30039 302.098 8.50039 302.098 7.00039C302.098 5.20039 303.598 3.90039 305.798 3.90039C306.698 3.90039 307.598 4.10039 308.598 4.60039L308.298 6.00039C307.498 5.80039 306.898 5.70039 306.298 5.70039C305.298 5.70039 304.798 6.20039 304.798 6.70039C304.798 7.30039 305.098 7.60039 306.598 8.10039C308.598 8.80039 309.298 9.70039 309.298 11.2004C309.298 13.1004 307.798 14.5004 305.198 14.5004Z" fill="#eee"/>
<path d="M315 14.5C312.3 14.5 311 12.8 311 9.4C311 6.2 312.6 4 315.2 4C316.5 4 317.5 4.5 318.2 5.3L317.3 6.6C316.8 6.2 316.3 5.9 315.6 5.9C314.4 5.9 313.7 7 313.7 9.1C313.7 11.6 314.4 12.5 315.5 12.5C316.3 12.5 317 12.2 317.6 11.7L318.4 13C317.6 13.8 316.5 14.5 315 14.5Z" fill="#eee"/>
<path d="M328.498 14.3H325.898C325.898 12.2 325.998 10.1 325.998 9C325.998 6.6 325.498 6 324.598 6C324.098 6 323.398 6.3 322.698 6.8V14.2H320.098V0H322.698V5.1C323.398 4.5 324.398 4 325.498 4C327.498 4 328.598 5.3 328.598 8.6C328.598 9.8 328.498 12.1 328.498 14.3Z" fill="#eee"/>
<path d="M337.698 14.3002L337.498 13.2002C336.598 14.0002 335.598 14.5002 334.498 14.5002C332.398 14.5002 331.398 13.2002 331.398 9.9002C331.398 8.6002 331.498 6.4002 331.498 4.2002H334.098C334.098 6.2002 333.998 8.3002 333.998 9.5002C333.998 11.9002 334.498 12.4002 335.398 12.4002C335.998 12.4002 336.598 12.1002 337.298 11.6002V4.2002H339.898V14.3002H337.698Z" fill="#eee"/>
<path d="M344.699 14.5C343.399 14.5 342.699 14.1 342.699 12.5V0H345.299V11.4C345.299 12.5 345.399 12.7 345.999 12.7C346.199 12.7 346.399 12.7 346.499 12.7L346.599 14.2C346.099 14.4 345.499 14.5 344.699 14.5Z" fill="#eee"/>
<path d="M350.498 9.8V9.9C350.498 11.8 351.298 12.5 352.798 12.5C353.698 12.5 354.898 12.3 356.098 11.9L356.498 13.4C355.298 14 353.798 14.5 352.298 14.5C349.698 14.5 347.898 13.2 347.898 9.5C347.898 5.9 349.698 4 352.498 4C355.098 4 356.798 5.5 356.498 9.8H350.498ZM353.898 8.1C353.898 6.5 353.398 5.7 352.298 5.7C351.198 5.7 350.598 6.7 350.498 8.1H353.898Z" fill="#eee"/>
<path d="M367.601 9.7002H367.001V14.3002H364.301V0.700195C365.601 0.700195 366.901 0.700195 368.301 0.700195C372.001 0.700195 373.301 2.4002 373.301 5.0002C373.301 7.7002 371.801 9.7002 367.601 9.7002ZM367.801 2.6002H367.001V7.7002H367.801C369.601 7.7002 370.401 6.8002 370.401 5.2002C370.401 3.5002 369.701 2.6002 367.801 2.6002Z" fill="#eee"/>
<path d="M379.098 14.5004C376.198 14.5004 374.598 13.0004 374.598 9.40039C374.598 5.70039 376.498 3.90039 379.498 3.90039C382.398 3.90039 383.998 5.40039 383.998 9.00039C383.998 12.8004 382.098 14.5004 379.098 14.5004ZM379.298 5.90039C378.098 5.90039 377.298 6.70039 377.298 9.00039C377.298 11.8004 377.998 12.6004 379.298 12.6004C380.498 12.6004 381.298 11.8004 381.298 9.50039C381.298 6.60039 380.598 5.90039 379.298 5.90039Z" fill="#eee"/>
<path d="M388.998 14.4998C387.098 14.4998 386.398 13.7998 386.398 11.8998V5.9998H385.098V4.1998H386.498C386.698 3.2998 386.898 2.3998 387.098 1.2998H388.998V4.1998H391.198V5.9998H388.998V11.1998C388.998 12.1998 389.198 12.5998 389.898 12.5998C390.198 12.5998 390.598 12.5998 391.298 12.3998L391.498 13.8998C390.598 14.2998 389.798 14.4998 388.998 14.4998Z" fill="#eee"/>
<path d="M395.901 14.5004C394.801 14.5004 393.701 14.2004 392.801 13.7004L393.001 12.3004C394.201 12.6004 394.801 12.6004 395.501 12.6004C396.801 12.6004 397.301 12.1004 397.301 11.5004C397.301 10.8004 397.001 10.5004 395.501 10.0004C393.601 9.30039 392.801 8.50039 392.801 7.00039C392.801 5.20039 394.301 3.90039 396.501 3.90039C397.401 3.90039 398.301 4.10039 399.301 4.60039L399.101 6.00039C398.301 5.80039 397.701 5.70039 397.101 5.70039C396.101 5.70039 395.601 6.20039 395.601 6.70039C395.601 7.30039 395.901 7.60039 397.401 8.10039C399.401 8.80039 400.101 9.70039 400.101 11.2004C400.101 13.1004 398.501 14.5004 395.901 14.5004Z" fill="#eee"/>
<path d="M408.301 14.3L408.101 13.3C407.301 14 406.301 14.6 405.301 14.6C402.901 14.6 401.801 12.4 401.801 9.7C401.801 5.6 404.001 4 406.801 4C407.201 4 407.701 4 407.901 4.1V0H410.501V14.3H408.301ZM407.801 6C407.401 5.9 407.001 5.8 406.601 5.8C405.301 5.8 404.401 6.9 404.401 9.3C404.401 11.4 405.001 12.5 406.101 12.5C406.601 12.5 407.201 12.2 407.901 11.7V6H407.801Z" fill="#eee"/>
<path d="M419.099 14.3L418.899 13.3C417.999 14 417.099 14.6 415.799 14.6C413.799 14.6 412.699 13.6 412.699 11.7C412.699 9.6 414.399 8.2 417.899 8.2H418.499V7.4C418.499 6.4 417.899 5.9 416.599 5.9C415.599 5.9 414.399 6.2 413.499 6.5L413.199 4.9C414.399 4.4 415.699 4 417.299 4C419.899 4 421.099 5.2 421.099 7.1V14.3H419.099ZM418.499 9.7H417.699C415.699 9.7 415.199 10.3 415.199 11.3C415.199 12.1 415.699 12.6 416.599 12.6C417.199 12.6 417.899 12.3 418.499 11.7V9.7V9.7Z" fill="#eee"/>
<path d="M437.9 14.3H435.3C435.3 12.3 435.4 10.2 435.4 9C435.4 6.6 435 6 434.1 6C433.6 6 432.8 6.4 432.2 6.9C432.3 7.2 432.3 7.7 432.3 8.4V14.2H429.7V9C429.7 6.6 429.3 6 428.4 6C427.9 6 427.2 6.3 426.6 6.8V14.2H424V4.2H426.1L426.3 5.3C427.1 4.6 428.1 4 429.3 4C430.5 4 431.4 4.6 431.8 5.5C432.8 4.6 433.8 4 435 4C437 4 438 5.3 438 8.6C438 9.8 437.9 12.1 437.9 14.3Z" fill="#eee"/>
<path d="M225.9 36.6998C222.7 36.6998 221 35.2998 221 31.8998V22.8998H223.7V31.5998C223.7 33.8998 224.4 34.6998 226.1 34.6998C227.6 34.6998 228.5 33.9998 228.5 31.6998V22.7998H231.2V31.4998C231.2 35.2998 229 36.6998 225.9 36.6998Z" fill="#eee"/>
<path d="M242.701 36.5002H240.101C240.101 34.5002 240.201 32.4002 240.201 31.2002C240.201 28.8002 239.701 28.3002 238.801 28.3002C238.301 28.3002 237.601 28.6002 236.901 29.1002V36.5002H234.301V26.4002H236.401L236.601 27.5002C237.501 26.7002 238.501 26.2002 239.701 26.2002C241.701 26.2002 242.801 27.5002 242.801 30.8002C242.801 32.0002 242.701 34.3002 242.701 36.5002Z" fill="#eee"/>
<path d="M246.998 25.0998C245.798 25.0998 245.398 24.7998 245.398 23.6998C245.398 22.6998 245.698 22.2998 246.998 22.2998C248.298 22.2998 248.498 22.5998 248.498 23.6998C248.498 24.6998 248.198 25.0998 246.998 25.0998ZM245.598 36.4998V26.3998H248.198V36.4998H245.598Z" fill="#eee"/>
<path d="M256.398 36.5004H252.998L250.098 26.4004H252.898L254.498 32.1004L254.898 34.1004C255.698 31.4004 256.298 28.9004 256.598 26.4004H259.298C258.798 29.9004 257.798 33.3004 256.398 36.5004Z" fill="#eee"/>
<path d="M263.198 31.8996V31.9996C263.198 33.8996 263.998 34.5996 265.498 34.5996C266.398 34.5996 267.598 34.3996 268.798 33.9996L269.198 35.4996C267.998 36.0996 266.498 36.5996 264.998 36.5996C262.398 36.5996 260.598 35.2996 260.598 31.5996C260.598 27.9996 262.398 26.0996 265.198 26.0996C267.798 26.0996 269.498 27.5996 269.198 31.8996H263.198V31.8996ZM266.698 30.2996C266.698 28.6996 266.198 27.8996 265.098 27.8996C263.998 27.8996 263.398 28.8996 263.298 30.2996H266.698Z" fill="#eee"/>
<path d="M277.199 28.7002C276.799 28.6002 276.499 28.6002 276.299 28.6002C275.699 28.6002 275.299 29.0002 274.299 30.1002V36.5002H271.699V26.4002H273.799L273.999 28.0002C274.999 26.6002 275.699 26.2002 276.399 26.2002C276.699 26.2002 276.999 26.3002 277.399 26.4002L277.199 28.7002Z" fill="#eee"/>
<path d="M281.698 36.6996C280.598 36.6996 279.498 36.3996 278.598 35.8996L278.798 34.4996C279.898 34.7996 280.598 34.7996 281.298 34.7996C282.598 34.7996 283.098 34.2996 283.098 33.6996C283.098 32.9996 282.798 32.6996 281.298 32.1996C279.398 31.4996 278.598 30.6996 278.598 29.1996C278.598 27.3996 280.098 26.0996 282.298 26.0996C283.198 26.0996 284.098 26.2996 285.098 26.7996L284.798 28.0996C283.998 27.8996 283.398 27.7996 282.798 27.7996C281.798 27.7996 281.298 28.2996 281.298 28.7996C281.298 29.3996 281.598 29.6996 283.098 30.1996C285.098 30.8996 285.798 31.7996 285.798 33.2996C285.798 35.2996 284.298 36.6996 281.698 36.6996Z" fill="#eee"/>
<path d="M289.299 25.0998C288.099 25.0998 287.699 24.7998 287.699 23.6998C287.699 22.6998 287.999 22.2998 289.299 22.2998C290.599 22.2998 290.799 22.5998 290.799 23.6998C290.799 24.6998 290.499 25.0998 289.299 25.0998ZM287.899 36.4998V26.3998H290.499V36.4998H287.899Z" fill="#eee"/>
<path d="M296.201 36.6996C294.301 36.6996 293.601 35.9996 293.601 34.0996V28.2996H292.301V26.4996H293.701C293.901 25.5996 294.101 24.6996 294.301 23.5996H296.201V26.4996H298.401V28.2996H296.201V33.4996C296.201 34.4996 296.401 34.8996 297.101 34.8996C297.401 34.8996 297.801 34.8996 298.501 34.6996L298.701 36.1996C297.801 36.4996 297.001 36.6996 296.201 36.6996Z" fill="#eee"/>
<path d="M301.098 40.0998C300.698 40.0998 300.098 39.9998 299.598 39.6998V38.1998C299.898 38.1998 300.398 38.2998 300.598 38.2998C301.198 38.2998 301.698 38.1998 302.098 37.8998C302.498 37.4998 302.698 37.1998 302.698 36.6998C302.698 36.2998 302.598 35.6998 302.198 34.6998L299.698 26.4998H302.498L303.998 31.9998C304.298 32.9998 304.498 33.8998 304.398 34.4998C305.198 32.0998 305.898 28.9998 306.098 26.2998H308.798C307.198 36.8998 303.898 40.0998 301.098 40.0998Z" fill="#eee"/>
<path d="M319 36.6996C316.1 36.6996 314.5 35.1996 314.5 31.5996C314.5 27.8996 316.4 26.0996 319.4 26.0996C322.3 26.0996 323.9 27.5996 323.9 31.1996C323.9 34.9996 322 36.6996 319 36.6996ZM319.2 28.0996C318 28.0996 317.2 28.8996 317.2 31.1996C317.2 33.9996 317.9 34.7996 319.2 34.7996C320.4 34.7996 321.2 33.9996 321.2 31.6996C321.2 28.7996 320.5 28.0996 319.2 28.0996Z" fill="#eee"/>
<path d="M331.298 24.0996C330.898 23.8996 330.498 23.8996 330.098 23.8996C329.298 23.8996 328.998 24.2996 328.998 25.1996V26.4996H330.798V28.2996H328.998V36.5996H326.398V28.2996H325.098V26.4996H326.398V25.2996C326.398 23.2996 327.198 22.0996 329.198 22.0996C330.198 22.0996 330.998 22.3996 331.598 22.6996L331.298 24.0996Z" fill="#eee"/>
<path d="M227.999 58.6996C227.799 57.8996 227.599 56.7996 227.399 55.9996H222.899C222.699 56.7996 222.499 57.7996 222.299 58.6996H219.699C220.699 54.1996 221.999 49.4996 223.499 45.0996H227.099C228.699 49.7996 229.899 54.0996 230.899 58.6996H227.999ZM225.099 47.4996C224.499 49.3996 223.899 51.8996 223.299 53.9996H226.899C226.399 51.8996 225.799 49.5996 225.099 47.4996Z" fill="#eee"/>
<path d="M236.399 58.8998C236.099 58.8998 235.699 58.8998 235.299 58.7998V62.0998H232.699V48.5998H234.799L234.999 49.5998C235.799 48.8998 236.799 48.2998 237.799 48.2998C240.199 48.2998 241.399 50.4998 241.399 53.1998C241.499 57.1998 239.299 58.8998 236.399 58.8998ZM237.199 50.2998C236.699 50.2998 236.099 50.5998 235.399 51.0998V56.6998C235.699 56.7998 236.199 56.8998 236.599 56.8998C237.899 56.8998 238.799 55.7998 238.799 53.3998C238.799 51.4998 238.199 50.2998 237.199 50.2998Z" fill="#eee"/>
<path d="M247.501 58.8998C247.201 58.8998 246.801 58.8998 246.401 58.7998V62.0998H243.801V48.5998H245.901L246.101 49.5998C246.901 48.8998 247.901 48.2998 248.901 48.2998C251.301 48.2998 252.501 50.4998 252.501 53.1998C252.501 57.1998 250.401 58.8998 247.501 58.8998ZM248.201 50.2998C247.701 50.2998 247.101 50.5998 246.401 51.0998V56.6998C246.701 56.7998 247.201 56.8998 247.601 56.8998C248.901 56.8998 249.801 55.7998 249.801 53.3998C249.901 51.4998 249.301 50.2998 248.201 50.2998Z" fill="#eee"/>
<path d="M256.898 58.8004C255.598 58.8004 254.898 58.4004 254.898 56.8004V44.4004H257.498V55.8004C257.498 56.9004 257.598 57.1004 258.198 57.1004C258.398 57.1004 258.598 57.1004 258.698 57.1004L258.798 58.6004C258.298 58.7004 257.698 58.8004 256.898 58.8004Z" fill="#eee"/>
<path d="M262.1 47.3C260.9 47.3 260.5 47 260.5 45.9C260.5 44.9 260.8 44.5 262.1 44.5C263.4 44.5 263.6 44.8 263.6 45.9C263.6 46.9 263.3 47.3 262.1 47.3ZM260.8 58.7V48.6H263.4V58.7H260.8Z" fill="#eee"/>
<path d="M268.401 54.0998V54.1998C268.401 56.0998 269.201 56.7998 270.701 56.7998C271.601 56.7998 272.801 56.5998 274.001 56.1998L274.401 57.6998C273.201 58.2998 271.701 58.7998 270.201 58.7998C267.601 58.7998 265.801 57.4998 265.801 53.7998C265.801 50.1998 267.601 48.2998 270.401 48.2998C273.001 48.2998 274.701 49.7998 274.401 54.0998H268.401ZM271.801 52.4998C271.801 50.8998 271.301 50.0998 270.201 50.0998C269.101 50.0998 268.501 51.0998 268.401 52.4998H271.801Z" fill="#eee"/>
<path d="M282.898 58.7L282.698 57.7C281.898 58.4 280.898 59 279.898 59C277.498 59 276.398 56.8 276.398 54.1C276.398 50 278.598 48.4 281.398 48.4C281.798 48.4 282.298 48.4 282.498 48.5V44.5H285.098V58.8H282.898V58.7ZM282.398 50.4C281.998 50.3 281.598 50.2 281.198 50.2C279.898 50.2 278.998 51.3 278.998 53.7C278.998 55.8 279.598 56.9 280.698 56.9C281.198 56.9 281.798 56.6 282.498 56.1V50.4H282.398Z" fill="#eee"/>
<path d="M296.6 58.9004C295 58.9004 293.7 58.4004 292.5 57.6004L293.1 56.2004C294.2 56.6004 295.3 56.9004 296 56.9004C297.4 56.9004 298.3 56.3004 298.3 55.1004C298.3 52.4004 292.6 53.0004 292.6 48.7004C292.6 46.4004 294.4 44.9004 297 44.9004C298.3 44.9004 299.5 45.2004 300.6 46.0004L300 47.4004C299.1 47.1004 298.2 46.9004 297.5 46.9004C296.1 46.9004 295.5 47.5004 295.5 48.5004C295.5 51.2004 301.3 50.7004 301.3 54.9004C301.3 57.1004 299.6 58.9004 296.6 58.9004Z" fill="#eee"/>
<path d="M307 58.9004C304.3 58.9004 303 57.2004 303 53.8004C303 50.6004 304.6 48.4004 307.2 48.4004C308.5 48.4004 309.5 48.9004 310.2 49.7004L309.3 51.0004C308.8 50.6004 308.3 50.3004 307.6 50.3004C306.4 50.3004 305.7 51.4004 305.7 53.5004C305.7 56.0004 306.4 56.9004 307.5 56.9004C308.3 56.9004 309 56.6004 309.6 56.1004L310.4 57.4004C309.7 58.2004 308.6 58.9004 307 58.9004Z" fill="#eee"/>
<path d="M313.698 47.3C312.498 47.3 312.098 47 312.098 45.9C312.098 44.9 312.398 44.5 313.698 44.5C314.998 44.5 315.198 44.8 315.198 45.9C315.298 46.9 314.998 47.3 313.698 47.3ZM312.398 58.7V48.6H314.998V58.7H312.398Z" fill="#eee"/>
<path d="M319.998 54.0998V54.1998C319.998 56.0998 320.798 56.7998 322.298 56.7998C323.198 56.7998 324.398 56.5998 325.598 56.1998L325.998 57.6998C324.798 58.2998 323.298 58.7998 321.798 58.7998C319.198 58.7998 317.398 57.4998 317.398 53.7998C317.398 50.1998 319.198 48.2998 321.998 48.2998C324.598 48.2998 326.298 49.7998 325.998 54.0998H319.998ZM323.498 52.4998C323.498 50.8998 322.998 50.0998 321.898 50.0998C320.798 50.0998 320.198 51.0998 320.098 52.4998H323.498Z" fill="#eee"/>
<path d="M336.9 58.7004H334.3C334.3 56.7004 334.4 54.6004 334.4 53.4004C334.4 51.0004 333.9 50.5004 333 50.5004C332.5 50.5004 331.8 50.8004 331.1 51.3004V58.7004H328.5V48.6004H330.6L330.8 49.7004C331.7 48.9004 332.7 48.4004 333.9 48.4004C335.9 48.4004 337 49.7004 337 53.0004C337 54.2004 336.9 56.5004 336.9 58.7004Z" fill="#eee"/>
<path d="M343.301 58.9004C340.601 58.9004 339.301 57.2004 339.301 53.8004C339.301 50.6004 340.901 48.4004 343.501 48.4004C344.801 48.4004 345.801 48.9004 346.501 49.7004L345.601 51.0004C345.101 50.6004 344.601 50.3004 343.901 50.3004C342.701 50.3004 342.001 51.4004 342.001 53.5004C342.001 56.0004 342.701 56.9004 343.801 56.9004C344.601 56.9004 345.301 56.6004 345.901 56.1004L346.701 57.4004C345.901 58.2004 344.801 58.9004 343.301 58.9004Z" fill="#eee"/>
<path d="M350.401 54.0998V54.1998C350.401 56.0998 351.201 56.7998 352.701 56.7998C353.601 56.7998 354.801 56.5998 356.001 56.1998L356.401 57.6998C355.201 58.2998 353.701 58.7998 352.201 58.7998C349.601 58.7998 347.801 57.4998 347.801 53.7998C347.801 50.1998 349.601 48.2998 352.401 48.2998C355.001 48.2998 356.701 49.7998 356.401 54.0998H350.401ZM353.901 52.4998C353.901 50.8998 353.401 50.0998 352.301 50.0998C351.201 50.0998 350.601 51.0998 350.501 52.4998H353.901Z" fill="#eee"/>
<path d="M361.299 58.8998C360.199 58.8998 359.099 58.5998 358.199 58.0998L358.399 56.6998C359.499 56.9998 360.199 56.9998 360.899 56.9998C362.199 56.9998 362.699 56.4998 362.699 55.8998C362.699 55.1998 362.399 54.8998 360.899 54.3998C358.999 53.6998 358.199 52.8998 358.199 51.3998C358.199 49.5998 359.699 48.2998 361.899 48.2998C362.799 48.2998 363.699 48.4998 364.699 48.9998L364.399 50.2998C363.599 50.0998 362.999 49.9998 362.399 49.9998C361.399 49.9998 360.899 50.4998 360.899 50.9998C360.899 51.5998 361.199 51.8998 362.699 52.3998C364.699 53.0998 365.399 53.9998 365.399 55.4998C365.399 57.4998 363.899 58.8998 361.299 58.8998Z" fill="#eee"/>
</svg>
