<svg width="7254" height="1920" viewBox="0 0 7254 1920" fill="none" xmlns="http://www.w3.org/2000/svg">
<g id="XCSP flowchart v. 83 3">
<g id="e_from-060_to-044">
<path id="Union" fill-rule="evenodd" clip-rule="evenodd" d="M1793.39 359.133L1798.4 359.05L1792.08 340.65L1786.38 359.25L1791.39 359.167L1792.09 402.17H1794.09L1793.39 359.133Z" fill="black"/>
</g>
<g id="n060_label">
<text id="Being, itself" fill="black" xml:space="preserve" style="white-space: pre" font-family="Liberation Sans" font-size="18" letter-spacing="0em"><tspan x="1746.25" y="416.443">Being, itself</tspan></text>
</g>
<g id="e_from-059_to-060">
<path id="Vector" d="M1794.76 442.88L1794.26 471.4H1792.26L1792.76 442.87L1792.44 423.77H1794.44L1794.76 442.88Z" fill="black"/>
</g>
<g id="n059_label">
<text id="&#226;&#128;&#156;reality&#226;&#128;&#157;" fill="black" xml:space="preserve" style="white-space: pre" font-family="Liberation Sans" font-size="18" letter-spacing="0em"><tspan x="1762.3" y="486.443">&#x201c;reality&#x201d;</tspan></text>
</g>
<g id="e_from-058_to-059">
<path id="Vector_2" d="M1791.41 507.85L1789.43 521.55L1787.18 533.52L1785.78 539.59H1783.71L1785.21 533.11L1787.45 521.21L1789.42 507.61L1790.92 493.01H1792.92L1791.41 507.85Z" fill="black"/>
</g>
<g id="n058_label">
<text id="imagination" fill="black" xml:space="preserve" style="white-space: pre" font-family="Liberation Sans" font-size="18" letter-spacing="0em"><tspan x="1736.25" y="554.443">imagination</tspan></text>
</g>
<g id="e_from-057_to-058">
<path id="Vector_3" d="M1779.19 562.72L1776.17 570.9L1772.99 578.52L1769.64 585.67L1766.14 592.41L1762.47 598.81L1758.62 604.91L1756.79 607.56H1754.36L1756.96 603.81L1760.76 597.78L1764.39 591.46L1767.85 584.79L1771.15 577.72L1774.3 570.19L1777.3 562.09L1777.6 561.22H1779.7L1779.19 562.72Z" fill="black"/>
</g>
<g id="n057_label">
<text id="character" fill="black" xml:space="preserve" style="white-space: pre" font-family="Liberation Sans" font-size="18" letter-spacing="0em"><tspan x="1709.29" y="622.443">character</tspan></text>
</g>
<g id="e_from-056_to-057">
<path id="Vector_4" d="M1736.26 632.07L1731.02 637.01L1725.46 641.85L1719.53 646.55L1713.2 651.18L1711.6 652.24H1708L1712.06 649.54L1718.32 644.97L1724.18 640.31L1729.68 635.54L1734.86 630.64L1736.31 629.16H1739.11L1736.26 632.07Z" fill="black"/>
</g>
<g id="n056_label">
<text id="stories" fill="black" xml:space="preserve" style="white-space: pre" font-family="Liberation Sans" font-size="18" letter-spacing="0em"><tspan x="1665.3" y="667.443">stories</tspan></text>
</g>
<g id="e_from-055_to-056">
<path id="Vector_5" d="M1662.92 677.12L1651.52 681.12L1645.4 682.97V680.87L1650.9 679.21L1662.22 675.25L1665.75 673.85H1671.15L1662.92 677.12Z" fill="black"/>
</g>
<g id="n055_label">
<text id="industrial civilization" fill="black" xml:space="preserve" style="white-space: pre" font-family="Liberation Sans" font-size="18" letter-spacing="0em"><tspan x="1569.27" y="689.443">industrial&#10;</tspan><tspan x="1564.27" y="707.443">civilization</tspan></text>
</g>
<g id="e_from-054_to-055">
<path id="Vector_6" d="M1546 694.82L1555.8 695.07L1563.65 694.95V696.95L1555.8 697.07L1545.9 696.82L1537.38 696.22V694.22L1546 694.82Z" fill="black"/>
</g>
<g id="n054_label">
<text id="masculinity" fill="black" xml:space="preserve" style="white-space: pre" font-family="Liberation Sans" font-size="18" letter-spacing="0em"><tspan x="1448.28" y="690.443">masculinity</tspan></text>
</g>
<g id="e_from-053_to-054">
<path id="Vector_7" d="M1454.54 666.57L1459.8 669.95L1465.3 673.15L1469.7 675.5H1465.44L1464.34 674.9L1458.76 671.66L1453.42 668.23L1450.89 666.45H1454.36L1454.54 666.57Z" fill="black"/>
</g>
<g id="n053_label">
<text id="democracy" fill="black" xml:space="preserve" style="white-space: pre" font-family="Liberation Sans" font-size="18" letter-spacing="0em"><tspan x="1394.29" y="659.443">democracy</tspan></text>
</g>
<g id="e_from-052_to-053">
<path id="Vector_8" d="M1412.76 623.47L1416.12 628.59L1419.66 633.51L1423.36 638.25L1427.26 642.8L1429.16 644.85H1426.43L1425.77 644.15L1421.83 639.52L1418.06 634.72L1414.46 629.72L1411.06 624.54L1409.36 621.77H1411.71L1412.76 623.47Z" fill="black"/>
</g>
<g id="n052_label">
<text id="capitalism" fill="black" xml:space="preserve" style="white-space: pre" font-family="Liberation Sans" font-size="18" letter-spacing="0em"><tspan x="1364.28" y="615.443">capitalism</tspan></text>
</g>
<g id="e_from-051_to-052">
<path id="Vector_9" d="M1391.13 585.49L1397.11 597.04L1398.91 600.16H1396.61L1395.36 598L1389.33 586.38L1387.61 582.68H1389.81L1391.13 585.49Z" fill="black"/>
</g>
<g id="n051_label">
<text id="race" fill="black" xml:space="preserve" style="white-space: pre" font-family="Liberation Sans" font-size="18" letter-spacing="0em"><tspan x="1366.31" y="575.443">race</tspan></text>
</g>
<g id="e_from-050_to-051">
<path id="Vector_10" d="M1374.71 541.75L1376.83 549.45L1379.43 557.52L1380.73 561.07H1378.59L1377.52 558.17L1374.92 550.01L1372.78 542.24L1371.13 535.14H1373.18L1374.71 541.75Z" fill="black"/>
</g>
<g id="n050_label">
<text id="forced migration" fill="black" xml:space="preserve" style="white-space: pre" font-family="Liberation Sans" font-size="18" letter-spacing="0em"><tspan x="1305.25" y="528.443">forced migration</tspan></text>
</g>
<g id="e_from-049_to-050">
<path id="Vector_11" d="M1369.71 494.43L1369.55 500.76L1369.65 507.19L1370.03 513.54H1368.03L1367.66 507.27L1367.56 500.77L1367.72 494.34L1367.86 492.2H1369.86L1369.71 494.43Z" fill="black"/>
</g>
<g id="n049_label">
<text id="biodiversity" fill="black" xml:space="preserve" style="white-space: pre" font-family="Liberation Sans" font-size="18" letter-spacing="0em"><tspan x="1325.27" y="485.443">biodiversity</tspan></text>
</g>
<g id="e_from-048_to-049">
<path id="Vector_12" d="M1380.82 444.06L1378.37 450.54L1376.27 456.92L1374.47 463.22L1372.97 469.47L1372.77 470.57H1370.73L1371.03 469.04L1372.53 462.7L1374.36 456.32L1376.49 449.86L1378.96 443.3L1379.36 442.36H1381.53L1380.82 444.06Z" fill="black"/>
</g>
<g id="n048_label">
<text id="health" fill="black" xml:space="preserve" style="white-space: pre" font-family="Liberation Sans" font-size="18" letter-spacing="0em"><tspan x="1361.28" y="435.443">health</tspan></text>
</g>
<g id="e_from-047_to-048">
<path id="Vector_13" d="M1404.82 401.54L1399.42 409.22L1394.68 416.62L1392.25 420.78H1389.93L1392.97 415.58L1397.75 408.11L1403.19 400.35L1403.99 399.29H1406.52L1404.82 401.54Z" fill="black"/>
</g>
<g id="n047_label">
<text id="water" fill="black" xml:space="preserve" style="white-space: pre" font-family="Liberation Sans" font-size="18" letter-spacing="0em"><tspan x="1391.3" y="392.443">water</tspan></text>
</g>
<g id="e_from-046_to-047">
<path id="Vector_14" d="M1435.29 366.89L1426.04 376.25L1424.74 377.68H1422.04L1424.59 374.88L1433.89 365.48L1436.15 363.38H1439.08L1435.29 366.89Z" fill="black"/>
</g>
<g id="n046_label">
<text id="food" fill="black" xml:space="preserve" style="white-space: pre" font-family="Liberation Sans" font-size="18" letter-spacing="0em"><tspan x="1432.29" y="356.443">food</tspan></text>
</g>
<g id="e_from-042_to-046">
<path id="Union_2" fill-rule="evenodd" clip-rule="evenodd" d="M1509.69 309.78L1510.86 309L1509.18 307.65L1508.62 308.031L1508.62 308.03L1489 320.91L1471.78 333.31L1461 341.77H1464.22L1472.97 334.9L1490.12 322.57L1509.65 309.717L1509.69 309.78Z" fill="black"/>
</g>
<g id="e_from-045_to-052">
<path id="Union_3" fill-rule="evenodd" clip-rule="evenodd" d="M1220.9 549.451L1220.9 549.45L1219.95 549.08L1219.21 550.94L1220.16 551.31L1220.16 551.308L1342.32 599.18L1343.05 597.32L1220.9 549.451ZM1340.5 603.85L1359.9 605L1344.88 592.65L1340.5 603.85Z" fill="black"/>
</g>
<g id="e_from-045_to-051">
<path id="Union_4" fill-rule="evenodd" clip-rule="evenodd" d="M1222.34 548.604L1222.34 548.6L1221.32 548.44L1221.02 550.42L1222.04 550.58L1222.04 550.577L1341.47 569.149L1340.7 574.1L1359.9 571L1342.55 562.22L1341.78 567.17L1222.34 548.604Z" fill="black"/>
</g>
<g id="e_from-045_to-050">
<path id="Union_5" fill-rule="evenodd" clip-rule="evenodd" d="M1281.08 538.6L1298 529L1278.68 526.82L1279.9 532.824L1279.66 531.74L1267.5 534.41L1248.64 539.39L1231.62 544.66L1216.1 550.19L1201.82 555.97L1188.58 561.97L1176.2 568.21L1164.55 574.74L1153.5 581.54L1142.95 588.64L1132.82 596.12L1123 604L1113.43 612.42L1104.06 621.36L1094.78 630.98L1085.53 641.41L1076.2 652.84L1066.7 665.56L1056.88 679.93L1046.51 696.55L1037.54 712.37H1039.84L1048.24 697.57L1058.54 681.02L1068.34 666.72L1077.79 654.07L1087.07 642.7L1096.27 632.33L1105.47 622.77L1114.79 613.89L1124.29 605.57L1134.03 597.73L1144.09 590.3L1154.59 583.22L1165.55 576.46L1177.15 569.99L1189.45 563.77L1202.6 557.81L1216.8 552.07L1232.24 546.57L1249.19 541.32L1267.97 536.37L1280.08 533.704L1281.08 538.6Z" fill="black"/>
</g>
<g id="n045_label">
<text id="it&#226;&#128;&#153;s complicated&#226;&#128;&#166;" fill="black" xml:space="preserve" style="white-space: pre" font-family="Liberation Sans" font-size="18" letter-spacing="0em"><tspan x="1023.48" y="727.443">it&#x2019;s&#10;</tspan><tspan x="977.269" y="745.443">complicated&#x2026;</tspan></text>
</g>
<g id="e_from-034_to-045">
<path id="Vector_15" d="M1008.17 777.2L978.39 850.45L976.52 849.7L1006.32 776.42L1017.92 751.22H1020.12L1008.17 777.2Z" fill="black"/>
</g>
<g id="n044_thought">
<path id="Vector_16" d="M1719.9 304C1706.65 304 1695.9 293.25 1695.9 280C1695.9 269.4 1702.4 260.45 1712.5 257.18C1711.9 226 1751.9 220 1767.9 232C1775.9 214 1815.9 220 1815.9 238C1839.9 232 1863.9 256 1847.9 286C1863.9 310 1847.9 340 1815.9 328C1807.9 343.6 1775.9 343.6 1767.9 328C1751.9 340 1719.9 334 1719.9 304Z" fill="white" stroke="black" stroke-width="2"/>
<text id="Our ecological crisis is a crisis of everything else." fill="black" xml:space="preserve" style="white-space: pre" font-family="Liberation Sans" font-size="18" letter-spacing="0em"><tspan x="1718.75" y="264.444">Our ecological&#10;</tspan><tspan x="1706.27" y="282.444">crisis is a crisis of&#10;</tspan><tspan x="1713.24" y="300.444">everything else.</tspan></text>
</g>
<g id="e_from-042_to-044">
<path id="Union_6" fill-rule="evenodd" clip-rule="evenodd" d="M1677.47 283.98L1691.74 279.35L1677.47 274.71V283.98ZM1638.5 280.35H1636.27L1637.49 279.35L1636.26 278.35H1638.5H1638.51H1676.47V280.35H1638.52H1638.5Z" fill="black"/>
</g>
<g id="e_from-043_to-042">
<path id="Union_7" fill-rule="evenodd" clip-rule="evenodd" d="M1639.2 220.53L1636.7 225.7L1633.1 231.6L1627.94 238.5L1622.96 244L1622.33 243.423L1626.36 247.68L1608.79 256.03L1618.09 238.95L1621.54 242.588L1626.38 237.25L1631.44 230.49L1634.94 224.73L1637.37 219.73L1637.89 218.36H1640.02L1639.2 220.53Z" fill="black"/>
</g>
<g id="n043_label">
<text id="I try not to think about it" fill="black" xml:space="preserve" style="white-space: pre" font-family="Liberation Sans" font-size="18" letter-spacing="0em"><tspan x="1601.27" y="194.444">I try not to&#10;</tspan><tspan x="1590.24" y="212.444">think about it</tspan></text>
</g>
<g id="e_from-042_to-043">
<path id="Union_8" fill-rule="evenodd" clip-rule="evenodd" d="M1599.38 164L1604.76 164.72L1610.11 165.95L1615.21 167.65L1619.95 169.73L1624.21 172.1L1627.95 174.68L1631.17 177.38L1633.25 179.48H1630.45L1629.81 178.85L1626.73 176.27L1623.15 173.8L1619.05 171.52L1614.5 169.52L1609.55 167.88L1604.39 166.68L1599.19 166.01L1594.14 165.83L1589.39 166.1L1585.02 166.76L1581.06 167.76L1577.49 169.03L1574.31 170.51L1571.46 172.19L1568.92 174.02L1566.64 176.02L1564.59 178.2L1562.76 180.54L1561.13 183.1L1559.7 185.9L1558.47 189.03L1557.47 192.53L1556.7 196.51L1556.27 201.11V206.49L1556.8 211.913L1556.83 211.91L1557.03 214L1555.91 213.1L1554.97 213.87L1554.8 212.11L1554.82 212.108L1554.29 206.59V200.99L1554.73 196.23L1555.53 192.07L1556.59 188.39L1557.89 185.09L1559.42 182.12L1561.16 179.39L1563.1 176.89L1565.28 174.59L1567.7 172.47L1570.4 170.52L1573.4 168.76L1576.76 167.19L1580.5 165.86L1584.65 164.82L1589.21 164.12L1594.14 163.84L1599.38 164Z" fill="black"/>
</g>
<g id="n042_question">
<path id="Vector_17" d="M1555.9 214.35L1635.9 279.35L1555.9 344.35L1475.9 279.35L1555.9 214.35Z" fill="#CCCCCC" stroke="black" stroke-width="2"/>
<text id="What are we in a crisis of?" fill="black" xml:space="preserve" style="white-space: pre" font-family="Liberation Sans" font-size="18" letter-spacing="0em"><tspan x="1505.26" y="275.444">What are we&#10;</tspan><tspan x="1503.26" y="293.444">in a crisis of?</tspan></text>
</g>
<g id="e_from-041_to-042">
<path id="Union_9" fill-rule="evenodd" clip-rule="evenodd" d="M1458.12 287.354L1459.85 292.05L1475.11 280L1455.69 280.77L1457.42 285.472L1399.83 306.75V308.89L1458.12 287.354Z" fill="black"/>
</g>
<g id="n041_label">
<text id="that depends&#226;&#128;&#166;" fill="black" xml:space="preserve" style="white-space: pre" font-family="Liberation Sans" font-size="18" letter-spacing="0em"><tspan x="1347.8" y="319.444">that&#10;</tspan><tspan x="1319.27" y="337.444">depends&#x2026;</tspan></text>
</g>
<g id="e_from-021_to-041">
<path id="Union_10" fill-rule="evenodd" clip-rule="evenodd" d="M1259.99 360.584L1310.83 341.8V339.65L1259.3 358.681L1259.3 358.68L1257.66 359.28L1258.63 360L1256.06 362.05L1260 360.6L1259.99 360.584Z" fill="black"/>
</g>
<g id="e_from-040_to-021">
<path id="Union_11" fill-rule="evenodd" clip-rule="evenodd" d="M1258.6 302.4L1255.84 307.8L1251.8 314.1L1245.88 321.6L1242.41 325.18L1241.87 324.655L1245.84 328.85L1228.27 337.2L1237.57 320.12L1241.02 323.76L1244.38 320.27L1250.18 312.93L1254.12 306.8L1256.8 301.57L1257.27 300.39H1259.42L1258.6 302.4Z" fill="black"/>
</g>
<g id="n040_label">
<text id="I try not to think about it_2" fill="black" xml:space="preserve" style="white-space: pre" font-family="Liberation Sans" font-size="18" letter-spacing="0em"><tspan x="1221.27" y="276.444">I try not to&#10;</tspan><tspan x="1210.24" y="294.444">think about it</tspan></text>
</g>
<g id="e_from-021_to-040">
<path id="Union_12" fill-rule="evenodd" clip-rule="evenodd" d="M1224.97 248.56L1230.33 249.59L1235.43 251.09L1240.13 252.99L1244.33 255.19L1248.03 257.57L1251.17 260.11L1252.59 261.51H1249.69L1246.83 259.21L1243.33 256.91L1239.29 254.81L1234.77 252.97L1229.85 251.52L1224.68 250.52L1219.44 250.05L1214.36 250.08L1209.56 250.58L1205.13 251.48L1201.13 252.7L1197.53 254.2L1194.3 255.93L1191.43 257.86L1188.87 259.96L1186.57 262.26L1184.53 264.74L1182.73 267.44L1181.13 270.4L1179.78 273.67L1178.68 277.32L1177.83 281.47L1177.35 286.27L1177.33 291.87L1177.88 297.604L1177.92 297.6L1178.1 299.6L1177 298.78L1176.04 299.5L1175.88 297.83L1175.88 297.83L1175.33 291.96L1175.35 286.14L1175.85 281.17L1176.73 276.83L1177.9 272.98L1179.34 269.54L1181.02 266.41L1182.92 263.54L1185.09 260.91L1187.53 258.48L1190.23 256.25L1193.28 254.22L1196.66 252.39L1200.44 250.83L1204.64 249.53L1209.24 248.6L1214.24 248.1L1219.54 248.06L1224.97 248.56Z" fill="black"/>
</g>
<g id="e_from-039_to-021">
<path id="Union_13" fill-rule="evenodd" clip-rule="evenodd" d="M1126.46 406.314L1129.85 410L1139.4 393.05L1121.7 401.15L1125.63 405.421L1125.07 404.87L1118.33 411.61L1108.08 422.76L1103.38 428.36H1105.98L1109.6 424.08L1119.77 413L1126.46 406.314Z" fill="black"/>
</g>
<g id="n039_label">
<text id="so&#226;&#128;&#166;" fill="black" xml:space="preserve" style="white-space: pre" font-family="Liberation Sans" font-size="18" letter-spacing="0em"><tspan x="1077.32" y="442.443">so&#x2026;</tspan></text>
</g>
<g id="e_from-038_to-039">
<path id="Vector_18" d="M1085 454.6L1070.4 475.17L1054.4 499.87L1037.34 528.75L1034.26 534.51H1032L1035.6 527.78L1052.7 498.83L1068.76 474.06L1083.4 453.43L1086.07 449.97H1088.6L1085 454.6Z" fill="black"/>
</g>
<g id="n038_label">
<text id="same storm; different boats" fill="black" xml:space="preserve" style="white-space: pre" font-family="Liberation Sans" font-size="18" letter-spacing="0em"><tspan x="973.292" y="549.443">same storm;&#10;</tspan><tspan x="965.9" y="567.443">different boats</tspan></text>
</g>
<g id="e_from-037_to-038">
<path id="Vector_19" d="M1003.2 595.88L988.03 630.94L975.13 664.56L964.73 695.38L956.78 722.74L950.93 746.52L947.53 763.38H945.49L948.97 746.08L954.84 722.22L962.82 694.78L973.22 663.88L986.17 630.18L1001.37 595.04L1011.84 573.39H1014.06L1003.2 595.88Z" fill="black"/>
</g>
<g id="n037_label">
<text id="sorta&#226;&#128;&#166;" fill="black" xml:space="preserve" style="white-space: pre" font-family="Liberation Sans" font-size="18" letter-spacing="0em"><tspan x="916.306" y="778.443">sorta&#x2026;</tspan></text>
</g>
<g id="e_from-034_to-037">
<path id="Union_14" fill-rule="evenodd" clip-rule="evenodd" d="M942.3 799.35L941.35 812.15L941.032 822.169L941.06 822.17L941 823.97L940 823.23L938.95 824.01L939.01 822.11L939.032 822.11L939.35 812.06L940.3 799.16L941.95 784.98H943.97L942.3 799.35Z" fill="black"/>
</g>
<g id="e_from-036_to-034">
<path id="Union_15" fill-rule="evenodd" clip-rule="evenodd" d="M840.79 892.85L858.33 884.45L839.19 880.93L839.939 886.513L839.76 885.92L837.9 886.48L835.7 887.25L833.6 888.1L831.54 889L829.54 890L827.61 891.06L825.71 892.2L823.85 893.44L822.02 894.77L820.22 896.19L818.44 897.72L816.68 899.38L814.92 901.16L813.18 903.08L811.45 905.18L809.71 907.48L807.97 909.98L806.24 912.71L804.5 915.73L802.75 919.09L801 922.83L799.23 927.03L797.46 931.8L795.71 937.23L795.66 937.43H797.76L799.36 932.45L801.1 927.77L802.84 923.64L804.57 919.98L806.27 916.7L807.97 913.75L809.65 911.09L811.35 908.67L813.02 906.45L814.68 904.42L816.38 902.55L818.08 900.83L819.78 899.23L821.48 897.75L823.21 896.37L824.96 895.1L826.76 893.9L828.6 892.8L830.47 891.77L832.39 890.82L834.37 889.92L836.41 889.12L838.54 888.38L840.126 887.904L840.79 892.85Z" fill="black"/>
</g>
<g id="n036_label">
<text id="nothin&#226;&#128;&#153; about us, without us!" fill="black" xml:space="preserve" style="white-space: pre" font-family="Liberation Sans" font-size="18" letter-spacing="0em"><tspan x="763.775" y="952.443">nothin&#x2019;&#10;</tspan><tspan x="753.264" y="970.443">about us,&#10;</tspan><tspan x="747.261" y="988.443">without us!</tspan></text>
</g>
<g id="e_from-026_to-036">
<path id="Union_16" fill-rule="evenodd" clip-rule="evenodd" d="M785.801 1035.37L785.77 1035.37L785.75 1036.47H787.8L787.82 1035.4L787.801 1035.4L788.37 1002.9L788.94 993.59H786.94L786.37 1002.83L785.801 1035.37Z" fill="black"/>
</g>
<g id="e_from-035_to-026">
<path id="Union_17" fill-rule="evenodd" clip-rule="evenodd" d="M941 1070.33H905.84V1075.35L887.34 1069.33L905.84 1063.33V1068.33H939V1016.13H941V1070.33Z" fill="black"/>
</g>
<g id="n035_label">
<text id="NOT!" fill="black" xml:space="preserve" style="white-space: pre" font-family="Liberation Sans" font-size="18" letter-spacing="0em"><tspan x="919.312" y="1009.44">NOT!</tspan></text>
</g>
<g id="e_from-034_to-035">
<path id="Union_18" fill-rule="evenodd" clip-rule="evenodd" d="M941 946.75H941.02L941.04 944.89L940.02 945.65L939 944.89V944.95V946.7V946.72V946.75V994.53H941V946.75Z" fill="black"/>
</g>
<g id="n034_question">
<path id="Vector_20" d="M940 824.45L1020 884.45L940 944.45L860 884.45L940 824.45Z" fill="#CCCCCC" stroke="black" stroke-width="2"/>
<text id="So&#226;&#128;&#166; we&#226;&#128;&#153;re all in this together?" fill="black" xml:space="preserve" style="white-space: pre" font-family="Liberation Sans" font-size="18" letter-spacing="0em"><tspan x="919.814" y="861.443">So&#x2026;&#10;</tspan><tspan x="897.262" y="879.443">we&#x2019;re all in&#10;</tspan><tspan x="885.238" y="897.443">this together?</tspan></text>
</g>
<g id="e_from-032_to-034">
<path id="Union_19" fill-rule="evenodd" clip-rule="evenodd" d="M991.865 929.768L997.08 926.7L982.51 913.8L986.71 932.8L991.037 930.254L992.49 933.13L995.22 939.17L997.87 945.74L1000.41 952.92L1002.85 960.8L1005.15 969.5L1007.25 979.15L1009.15 989.91L1010.75 1001.97L1011.98 1015.57L1012.73 1030.99L1012.83 1048.59L1012.1 1068.76L1010.3 1091.98L1007.1 1118.72L1002.1 1149.36L994.97 1183.99L985.52 1221.81L974.16 1260.37L962.33 1295.17L952.525 1320.51L952.52 1320.51L952.2 1321.31L953.97 1322.44L954.43 1321.24L954.399 1321.23L964.22 1295.85L976.06 1260.99L987.46 1222.34L996.93 1184.42L1004.08 1149.72L1009.08 1118.99L1012.3 1092.19L1014.12 1068.89L1014.82 1048.64L1014.72 1030.94L1013.97 1015.44L1012.74 1001.76L1011.12 989.6L1009.22 978.76L1007.1 969.03L1004.78 960.25L1002.31 952.29L999.73 945.03L997.05 938.38L994.27 932.26L992.79 929.3L991.865 929.768Z" fill="black"/>
</g>
<g id="e_from-033_to-032">
<path id="Union_20" fill-rule="evenodd" clip-rule="evenodd" d="M802.26 1299.5L801.46 1300.9L800.72 1302.3L800.1 1303.72L799.55 1305.12L799.09 1306.52L798.69 1307.96L798.37 1309.41L798.12 1310.89L797.95 1312.41L797.85 1313.97V1315.57L797.9 1317.27L798.08 1319.02L798.34 1320.88L798.74 1322.83L799.26 1324.93L799.94 1327.15L800.82 1329.55L801.92 1332.17L803.32 1335.02L805.06 1338.17L807.24 1341.67L809.98 1345.63L813.45 1350.13L817.88 1355.28L823.61 1361.28L825.855 1363.4L829.2 1359.65L839 1376.44L821.2 1368.61L824.552 1364.86L824.52 1364.89L822.22 1362.69L816.42 1356.62L811.92 1351.38L808.39 1346.81L805.59 1342.77L803.35 1339.17L801.55 1335.92L800.13 1332.98L798.99 1330.28L798.09 1327.78L797.36 1325.45L796.81 1323.27L796.41 1321.21L796.11 1319.25L795.95 1317.39L795.88 1315.61V1313.91L796 1312.23L796.18 1310.63L796.44 1309.03L796.79 1307.49L797.21 1305.96L797.71 1304.46L798.29 1302.96L798.96 1301.46L799.73 1299.96L800.4 1298.78H802.76L802.26 1299.5Z" fill="black"/>
</g>
<g id="n033_label">
<text id="while trying not to virtue signal too hard about it" fill="black" xml:space="preserve" style="white-space: pre" font-family="Liberation Sans" font-size="18" letter-spacing="0em"><tspan x="799.236" y="1256.44">while trying not&#10;</tspan><tspan x="801.24" y="1274.44">to virtue signal&#10;</tspan><tspan x="794.209" y="1292.44">too hard about it</tspan></text>
</g>
<g id="e_from-032_to-033">
<path id="Union_21" fill-rule="evenodd" clip-rule="evenodd" d="M924.64 1274.78L927.69 1276.04L930.26 1277.27L932.46 1278.47L934.36 1279.61L935.96 1280.73L937.36 1281.79L938.59 1282.82L939.66 1283.82L940.59 1284.8L941.41 1285.74L942.13 1286.66L942.76 1287.56L943.32 1288.46L943.82 1289.32L944.22 1290.19L944.62 1291.06L944.92 1291.92L945.2 1292.79L945.43 1293.66L945.61 1294.54L945.76 1295.44L945.86 1296.34L945.89 1297.29V1298.25L945.83 1299.25L945.73 1300.27L945.53 1301.35L945.3 1302.48L944.97 1303.68L944.57 1304.93L944.05 1306.29L943.41 1307.74L942.61 1309.32L941.64 1311.04L940.42 1312.94L938.92 1315.04L937.68 1316.59L937.664 1316.58L937.5 1316.79L934.97 1316.67L936.11 1315.24L936.164 1315.28L937.32 1313.82L938.78 1311.82L939.94 1310L940.87 1308.38L941.62 1306.9L942.22 1305.54L942.7 1304.28L943.08 1303.12L943.38 1302.02L943.58 1301L943.75 1300.03L943.85 1299.09L943.9 1298.19V1297.34L943.86 1296.52L943.78 1295.72L943.66 1294.92L943.5 1294.12L943.3 1293.36L943.06 1292.59L942.78 1291.82L942.45 1291.05L942.07 1290.28L941.63 1289.5L941.13 1288.7L940.56 1287.88L939.9 1287.04L939.15 1286.16L938.29 1285.26L937.29 1284.36L936.16 1283.38L934.84 1282.38L933.31 1281.33L931.51 1280.23L929.41 1279.09L926.91 1277.89L924.01 1276.69V1274.57L924.64 1274.78Z" fill="black"/>
</g>
<g id="n032_thought">
<path id="Vector_21" d="M864 1400.44C850.75 1400.44 840 1389.7 840 1376.44C840 1365.84 846.5 1356.9 856.58 1353.62C856 1322.45 896 1316.45 912 1328.45C920 1310.45 960 1316.45 960 1334.45C984 1328.45 1008 1352.45 992 1382.45C1008 1406.45 992 1436.45 960 1424.45C952 1440.05 920 1440.05 912 1424.45C896 1436.45 864 1430.45 864 1400.45V1400.44Z" fill="white" stroke="black" stroke-width="2"/>
<text id="Leverage your privilege." fill="black" xml:space="preserve" style="white-space: pre" font-family="Liberation Sans" font-size="18" letter-spacing="0em"><tspan x="882.771" y="1370.44">Leverage&#10;</tspan><tspan x="864.253" y="1388.44">your privilege.</tspan></text>
</g>
<g id="e_from-031_to-032">
<path id="Union_22" fill-rule="evenodd" clip-rule="evenodd" d="M907.088 1445.68L912.65 1447.72L913.39 1428.28L901.37 1443.58L906.058 1445.3L905.33 1447.07L902.23 1453.89L899.03 1460.19L895.73 1466.04L892.36 1471.48L888.9 1476.56L885.4 1481.31L881.8 1485.75L878.12 1489.95L874.38 1493.85L870.54 1497.55L869.26 1498.67H872.26L875.79 1495.27L879.61 1491.29L883.34 1487.04L886.99 1482.54L890.56 1477.71L894.06 1472.56L897.46 1467.04L900.79 1461.12L904.03 1454.74L907.19 1447.86L907.94 1446.02L907.088 1445.68Z" fill="black"/>
</g>
<g id="n031_label">
<text id="what can I do?" fill="black" xml:space="preserve" style="white-space: pre" font-family="Liberation Sans" font-size="18" letter-spacing="0em"><tspan x="798.23" y="1513.44">what can I do?</tspan></text>
</g>
<g id="e_from-030_to-031">
<path id="Vector_22" d="M836.7 1521.9L831.65 1523.96L826.42 1525.86L821 1527.56L815.36 1529.06L809.49 1530.39L803.36 1531.49L796.98 1532.36L790.31 1532.99L783.36 1533.36L776.09 1533.44L768.51 1533.21L760.58 1532.63L752.31 1531.68L743.71 1530.31L736.01 1528.77V1526.72L744.06 1528.32L752.58 1529.68L760.76 1530.63L768.6 1531.2L776.1 1531.43L783.3 1531.35L790.17 1530.99L796.73 1530.37L803.03 1529.5L809.06 1528.42L814.84 1527.12L820.39 1525.62L825.74 1523.96L830.89 1522.1L835.39 1520.26H840.24L836.7 1521.9Z" fill="black"/>
</g>
<g id="n030_label">
<text id="shit!" fill="black" xml:space="preserve" style="white-space: pre" font-family="Liberation Sans" font-size="18" letter-spacing="0em"><tspan x="703.304" y="1527.44">shit!</tspan></text>
</g>
<g id="e_from-028_to-030">
<path id="Vector_23" d="M648.57 1488.54L657.91 1494.6L667.55 1500.3L677.38 1505.54L687.28 1510.34L697.2 1514.61L703.1 1516.88V1519.02L696.43 1516.48L686.45 1512.18L676.45 1507.35L666.55 1502.05L656.85 1496.32L647.45 1490.22L639.75 1484.76H643.21L648.57 1488.54Z" fill="black"/>
</g>
<g id="e_from-029_to-028">
<path id="Union_23" fill-rule="evenodd" clip-rule="evenodd" d="M671.2 1367.63L675.93 1368.05L680.58 1368.69L685.01 1369.53L689.14 1370.53L692.84 1371.61L696.1 1372.75L697.1 1373.15H690.98L688.61 1372.45L684.61 1371.48L680.26 1370.65L675.72 1370.02L671.1 1369.62L666.5 1369.42L662.05 1369.47L657.79 1369.71L653.77 1370.15L650.02 1370.75L646.52 1371.49L643.29 1372.34L640.29 1373.29L637.54 1374.32L634.98 1375.42L632.61 1376.58L630.41 1377.81L628.36 1379.07L626.46 1380.37L624.69 1381.73L623.03 1383.13L621.48 1384.59L620.02 1386.09L618.67 1387.66L617.39 1389.26L616.19 1390.96L615.06 1392.7L614.01 1394.54L613.01 1396.47L612.11 1398.51L611.26 1400.66L610.5 1402.93L609.8 1405.37L609.22 1407.99L608.72 1410.79L608.34 1413.84L608.09 1417.14L607.99 1420.79L608.09 1424.79L608.334 1428.17L613.27 1427.32L610.54 1446.34H610.39L601.42 1429.37L607.493 1428.32L606.34 1428.4L606.09 1424.88L605.99 1420.78L606.09 1417.04L606.34 1413.64L606.74 1410.49L607.24 1407.59L607.86 1404.87L608.56 1402.35L609.36 1399.98L610.24 1397.75L611.19 1395.62L612.22 1393.62L613.32 1391.68L614.5 1389.84L615.77 1388.08L617.11 1386.38L618.55 1384.75L620.08 1383.18L621.7 1381.66L623.42 1380.19L625.27 1378.79L627.27 1377.41L629.37 1376.09L631.67 1374.83L634.12 1373.63L636.77 1372.49L639.63 1371.42L642.71 1370.44L646.05 1369.57L649.65 1368.81L653.49 1368.19L657.61 1367.74L661.97 1367.48L666.53 1367.42L671.2 1367.63Z" fill="black"/>
</g>
<g id="n029_label">
<text id="it&#226;&#128;&#153;s complicated&#226;&#128;&#166;_2" fill="black" xml:space="preserve" style="white-space: pre" font-family="Liberation Sans" font-size="18" letter-spacing="0em"><tspan x="704.481" y="1387.44">it&#x2019;s&#10;</tspan><tspan x="658.269" y="1405.44">complicated&#x2026;</tspan></text>
</g>
<g id="e_from-028_to-029">
<path id="Vector_24" d="M719.1 1414.4L718.84 1418.33L718.36 1422.13L717.68 1425.78L716.81 1429.25L715.77 1432.55L714.57 1435.65L713.23 1438.58L711.75 1441.36L710.15 1443.96L708.4 1446.46L706.52 1448.79L704.52 1450.99L702.37 1453.09L700.07 1455.09L697.61 1456.99L694.97 1458.77L692.1 1460.45L689 1462.02L685.6 1463.49L681.9 1464.83L677.84 1466.03L673.32 1467.07L671.67 1467.37L671.32 1465.4L672.92 1465.12L677.32 1464.12L681.29 1462.94L684.86 1461.64L688.13 1460.22L691.13 1458.7L693.88 1457.08L696.42 1455.38L698.79 1453.55L700.99 1451.65L703.06 1449.62L704.98 1447.5L706.78 1445.25L708.44 1442.87L709.98 1440.37L711.4 1437.7L712.7 1434.87L713.85 1431.87L714.85 1428.7L715.7 1425.35L716.37 1421.83L716.82 1418.13L717.06 1414.33V1412.03H719.06L719.1 1414.4Z" fill="black"/>
</g>
<g id="n028_label">
<text id="&#226;&#128;&#166;or possibly a bit racist?" fill="black" xml:space="preserve" style="white-space: pre" font-family="Liberation Sans" font-size="18" letter-spacing="0em"><tspan x="565.278" y="1460.44">&#x2026;or possibly&#10;</tspan><tspan x="571.264" y="1478.44">a bit racist?</tspan></text>
</g>
<g id="e_from-027_to-028">
<path id="Union_24" fill-rule="evenodd" clip-rule="evenodd" d="M561.02 1357.38L560 1357.42L558.96 1357.37L559.06 1358.57L559.094 1358.57L559.37 1362.27L559.93 1367.13L560.71 1372.1L561.74 1377.17L563.02 1382.37L564.58 1387.7L566.43 1393.2L568.6 1398.83L571.1 1404.61L573.98 1410.57L577.28 1416.67L581 1422.97L585.2 1429.42L589.9 1436.02L595.13 1442.74L598.18 1446.34H600.8L596.7 1441.5L591.5 1434.83L586.85 1428.31L582.71 1421.91L579.01 1415.71L575.76 1409.67L572.91 1403.77L570.44 1398.07L568.29 1392.51L566.49 1387.11L564.96 1381.86L563.68 1376.74L562.68 1371.74L561.9 1366.86L561.34 1362.08L561.093 1358.42L561.1 1358.42L561.02 1357.38Z" fill="black"/>
</g>
<g id="n027_statement">
<path id="Vector_25" d="M620 1296.44C620 1329.58 593.14 1356.44 560 1356.44C526.86 1356.44 500 1329.58 500 1296.44C500 1263.31 526.86 1236.44 560 1236.44C593.14 1236.44 620 1263.31 620 1296.44Z" fill="white" stroke="black" stroke-width="2"/>
<text id="You may be in emotional denial&#226;&#128;&#166;" fill="black" xml:space="preserve" style="white-space: pre" font-family="Liberation Sans" font-size="18" letter-spacing="0em"><tspan x="512.595" y="1285.44">You may be&#10;</tspan><tspan x="511.25" y="1303.44">in emotional&#10;</tspan><tspan x="526.78" y="1321.44">denial&#x2026;</tspan></text>
</g>
<g id="e_from-024_to-027">
<path id="Union_25" fill-rule="evenodd" clip-rule="evenodd" d="M519.1 1023.74L514.48 1051.1L511.75 1072.7L510.21 1091.16L509.55 1107.59V1122.63L510.15 1136.67L511.28 1150L512.91 1162.8L515.01 1175.2L517.61 1187.35L520.71 1199.35L524.33 1211.3L528.51 1223.28L528.599 1223.47L533.22 1221.59L534.64 1241L522.09 1226.13L526.922 1224.16L526.74 1224.23L526.64 1223.98L522.42 1211.92L518.79 1199.89L515.69 1187.79L513.06 1175.57L510.94 1163.07L509.3 1150.21L508.17 1136.81L507.57 1122.67V1107.54L508.24 1091.02L509.78 1072.49L512.52 1050.79L517.17 1023.33L519.72 1012.46H521.77L519.1 1023.74Z" fill="black"/>
</g>
<g id="n026_definition">
<path id="Vector_26" d="M640 1036H936V1201H640V1036Z" fill="white"/>
<path id="Vector_27" d="M669.4 1036.44H640V1200.71H669.4" stroke="black" stroke-width="2"/>
<g id="Frontline&#194;&#160;communities experience &#226;&#128;&#156;first and worst&#226;&#128;&#157; the consequences of climate change. We&#226;&#128;&#153;re disproportionately low-income, of color, Indigenous, from the Global South, or labor in toxic conditions.">
<text fill="black" xml:space="preserve" style="white-space: pre" font-family="Liberation Sans" font-size="18" letter-spacing="0em"><tspan x="734.062" y="1069.24">&#xa0;communities&#10;</tspan><tspan x="657" y="1087.24">experience &#x201c;first and worst&#x201d;&#10;</tspan><tspan x="657" y="1105.24">the consequences of climate&#10;</tspan><tspan x="657" y="1123.24">change. We&#x2019;re disproportionately&#10;</tspan><tspan x="657" y="1141.24">low-income, of color, Indigenous,&#10;</tspan><tspan x="657" y="1159.24">from the Global South, or labor&#10;</tspan><tspan x="657" y="1177.24">in toxic conditions.</tspan></text>
<text fill="black" xml:space="preserve" style="white-space: pre" font-family="Liberation Sans" font-size="18" font-weight="bold" letter-spacing="0em"><tspan x="657" y="1069.24">Frontline</tspan></text>
</g>
</g>
<g id="e_from-017_to-026">
<path id="Union_26" fill-rule="evenodd" clip-rule="evenodd" d="M758.397 726.6L758.4 726.6L758.48 725.22L756.4 725.7L756.36 726.5L756.387 726.501L756.19 730.02L755.49 737.52L753.49 751.9L745.17 797L719.16 932.13L714.86 963.27L713.06 982.39L712.38 995.37L712.28 1004.73L712.5 1011.73L712.9 1017.17L713.1 1018.67L713.277 1018.65L708.22 1019.86L718.4 1036.44L719.92 1017.06L715.055 1018.22L714.91 1016.97L714.51 1011.62L714.28 1004.69L714.38 995.42L715.05 982.52L716.85 963.48L721.12 932.44L747.15 797.38L755.48 752.21L757.48 737.75L758.2 730.17L758.397 726.6Z" fill="black"/>
</g>
<g id="e_from-025_to-026">
<path id="Union_27" fill-rule="evenodd" clip-rule="evenodd" d="M601 1117.58H620.5V1112.58L639 1118.58L620.5 1124.58V1119.58H599V1069.58H601V1117.58Z" fill="black"/>
</g>
<g id="n025_label">
<text id="who?!" fill="black" xml:space="preserve" style="white-space: pre" font-family="Liberation Sans" font-size="18" letter-spacing="0em"><tspan x="575.289" y="1063.44">who?!</tspan></text>
</g>
<g id="e_from-024_to-025">
<path id="Vector_28" d="M601 1047.98H599V981H581V979H601V1047.98Z" fill="black" stroke="black" stroke-width="0.05"/>
</g>
<g id="n024_label">
<text id="the apocalypse is going to happen to someone else" fill="black" xml:space="preserve" style="white-space: pre" font-family="Liberation Sans" font-size="18" letter-spacing="0em"><tspan x="520.303" y="917.443">the&#10;</tspan><tspan x="487.265" y="935.443">apocalypse&#10;</tspan><tspan x="491.756" y="953.443">is going to&#10;</tspan><tspan x="492.749" y="971.443">happen to&#10;</tspan><tspan x="495.781" y="989.443">someone&#10;</tspan><tspan x="516.304" y="1007.44">else</tspan></text>
</g>
<g id="e_from-023_to-024">
<path id="Vector_29" d="M568.1 800.34L562.18 835.34L551.25 886.44L547.03 904.47H544.98L549.3 886L560.2 834.97L566.1 800.04L566.98 793.21H568.98L568.1 800.34Z" fill="black"/>
</g>
<g id="n023_label">
<text id="because&#226;&#128;&#166;" fill="black" xml:space="preserve" style="white-space: pre" font-family="Liberation Sans" font-size="18" letter-spacing="0em"><tspan x="526.278" y="786.443">because&#x2026;</tspan></text>
</g>
<g id="e_from-016_to-023">
<path id="Union_28" fill-rule="evenodd" clip-rule="evenodd" d="M574.99 720.94L575.04 719.84L572.98 719.8L572.93 720.86L572.967 720.861L572 744.39L569.8 770.73L569.7 771.6H571.7L571.8 770.93L574 744.49L574.968 720.939L574.99 720.94Z" fill="black"/>
</g>
<g id="e_from-022_to-017">
<path id="Union_29" fill-rule="evenodd" clip-rule="evenodd" d="M888.6 622.5L888.5 624.73L888.2 626.99L887.7 629.29L887 631.66L886.07 634.13L884.87 636.7L883.31 639.43L881.36 642.33L878.86 645.46L875.71 648.86L871.71 652.54L871.148 651.924L874.5 656.72L855.88 662.38L867.61 646.86L870.48 650.968L874.3 647.45L877.34 644.15L879.74 641.15L881.61 638.38L883.09 635.78L884.24 633.35L885.12 631.05L885.78 628.81L886.24 626.67L886.52 624.57L886.62 622.47V622.37H888.62L888.6 622.5Z" fill="black"/>
</g>
<g id="n022_label">
<text id="I can&#226;&#128;&#153;t help but think about it" fill="black" xml:space="preserve" style="white-space: pre" font-family="Liberation Sans" font-size="18" letter-spacing="0em"><tspan x="822.222" y="598.444">I can&#x2019;t help but&#10;</tspan><tspan x="829.736" y="616.444">think about it</tspan></text>
</g>
<g id="e_from-017_to-022">
<path id="Union_30" fill-rule="evenodd" clip-rule="evenodd" d="M834.3 579.3L839.2 579.7L844.32 580.53L849.54 581.8L854.72 583.5H848.02L843.92 582.5L838.96 581.7L834.22 581.3L829.77 581.26L825.64 581.54L821.84 582.11L818.34 582.91L815.14 583.91L812.2 585.08L809.5 586.41L806.98 587.88L804.66 589.5L802.5 591.27L800.48 593.2L798.6 595.3L796.84 597.6L795.19 600.15L793.65 602.95L792.25 606.09L790.99 609.59L789.89 613.61L789.01 618.21L788.41 623.61L788.18 629.96L788.48 637.61L789.61 646.99L791.752 657.768L791.79 657.76L792.05 659.02H789.95L789.791 658.166L789.79 658.16L787.63 647.31L786.49 637.77L786.17 629.97L786.4 623.45L787.04 617.92L787.94 613.16L789.09 609L790.39 605.34L791.86 602.07L793.46 599.12L795.19 596.46L797.05 594.03L799.05 591.81L801.15 589.78L803.45 587.91L805.89 586.21L808.53 584.64L811.38 583.24L814.46 582.02L817.81 580.99L821.45 580.16L825.41 579.56L829.69 579.28L834.3 579.3Z" fill="black"/>
</g>
<g id="n021_question">
<path id="Vector_30" d="M1177 300L1257 360L1177 420L1097 360L1177 300Z" fill="#CCCCCC" stroke="black" stroke-width="2"/>
<text id="Can we fix it?" fill="black" xml:space="preserve" style="white-space: pre" font-family="Liberation Sans" font-size="18" letter-spacing="0em"><tspan x="1123.25" y="364.444">Can we fix it?</tspan></text>
</g>
<g id="e_from-020_to-021">
<path id="Union_31" fill-rule="evenodd" clip-rule="evenodd" d="M1078.41 369.6L1095.33 360L1076.01 357.82L1078.41 369.6ZM1077.4 364.7L1021 376.24V374.2L1077 362.73L1077.4 364.7Z" fill="black"/>
</g>
<g id="n020_label">
<text id="we&#226;&#128;&#153;re in an emergency and we need to start acting like it!" fill="black" xml:space="preserve" style="white-space: pre" font-family="Liberation Sans" font-size="18" letter-spacing="0em"><tspan x="914.26" y="366.444">we&#x2019;re in an&#10;</tspan><tspan x="913.284" y="384.444">emergency&#10;</tspan><tspan x="896.216" y="402.444">and we need to&#10;</tspan><tspan x="888.227" y="420.444">start acting like it!</tspan></text>
</g>
<g id="e_from-018_to-020">
<path id="Vector_31" d="M882.25 409.95L797.25 433.97H789.9L882.25 407.87V409.95Z" fill="black"/>
</g>
<g id="e_from-019_to-017">
<path id="Union_32" fill-rule="evenodd" clip-rule="evenodd" d="M724.36 601.02L721.59 611.88L719.57 621.4L718.09 630.22L717.04 638.67L716.884 640.562L721.9 640.8L715 659L709.9 640.23L715.394 640.491L714.88 640.45L715.04 638.48L716.1 629.94L717.6 621.04L719.62 611.44L722.42 600.47L731.5 573.07H733.6L724.36 601.02Z" fill="black"/>
</g>
<g id="n019_label">
<text id="what do you mean &#226;&#128;&#156;yet&#226;&#128;&#157;?" fill="black" xml:space="preserve" style="white-space: pre" font-family="Liberation Sans" font-size="18" letter-spacing="0em"><tspan x="690.25" y="549.444">what do you&#10;</tspan><tspan x="690.777" y="567.444">mean &#x201c;yet&#x201d;?</tspan></text>
</g>
<g id="e_from-018_to-019">
<path id="Vector_32" d="M750.96 459.95L752.02 466.1L752.78 472.08L753.28 477.96L753.55 483.79V489.64L753.32 495.58L752.82 501.71L752.02 508.14L750.85 515.07L749.22 522.79L746.87 531.96L746.21 534.16H744.13L744.96 531.41L747.28 522.31L748.9 514.68L750.03 507.83L750.83 501.48L751.33 495.43L751.56 489.57V483.81L751.29 478.06L750.79 472.26L750.03 466.36L748.99 460.29L747.97 455.53H750.01L750.96 459.95Z" fill="black"/>
</g>
<g id="n018_label">
<text id="not yet, but&#226;&#128;&#166;" fill="black" xml:space="preserve" style="white-space: pre" font-family="Liberation Sans" font-size="18" letter-spacing="0em"><tspan x="702.249" y="448.444">not yet, but&#x2026;</tspan></text>
</g>
<g id="e_from-013_to-018">
<path id="Union_33" fill-rule="evenodd" clip-rule="evenodd" d="M662.95 471.936L662.96 471.97L659.32 472.99L661.62 471.25L660.62 470.49L662.4 469.99L662.408 470.016L713.5 455.57H720.85L662.95 471.936Z" fill="black"/>
</g>
<g id="n017_thought">
<path id="Vector_33" d="M660 660H854.88V730.57C822.34 718.77 802.08 718.77 789.78 718.77C770.3 718.77 744.38 730.57 724.9 730.57C712.8 730.57 692.35 730.57 660 718.77V660Z" fill="white" stroke="black" stroke-width="2"/>
<g id="The apocalypse is already happening (to me)!">
<text fill="black" xml:space="preserve" style="white-space: pre" font-family="Liberation Sans" font-size="18" letter-spacing="0em"><tspan x="684.729" y="678.444">The apocalypse is&#10;</tspan><tspan x="683.2" y="696.444">already happening&#10;</tspan><tspan x="725.792" y="714.444">(to </tspan><tspan x="777.858" y="714.444">)!</tspan></text>
<text fill="black" xml:space="preserve" style="white-space: pre" font-family="Liberation Sans" font-size="18" font-weight="bold" letter-spacing="0em"><tspan x="751.825" y="714.444">me</tspan></text>
</g>
</g>
<g id="e_from-015_to-017">
<path id="Union_34" fill-rule="evenodd" clip-rule="evenodd" d="M648.725 643.574L614.13 597.26H611.63L647.122 644.77L643.1 647.77L659 659L652.75 640.57L648.725 643.574Z" fill="black"/>
</g>
<g id="n016_thought">
<path id="Vector_34" d="M440 660H634.88V730.57C602.34 718.77 582.08 718.77 569.78 718.77C550.3 718.77 524.38 730.57 504.9 730.57C492.8 730.57 472.35 730.57 440 718.77V660Z" fill="white" stroke="black" stroke-width="2"/>
<g id="I&#226;&#128;&#153;m&#194;&#160;going to escape to a nice farm in Vermont with my friends&#226;&#128;&#166;">
<text fill="black" xml:space="preserve" style="white-space: pre" font-family="Liberation Sans" font-size="18" letter-spacing="0em"><tspan x="475.213" y="678.444">&#xa0;going to escape to&#10;</tspan><tspan x="448.222" y="696.444">a nice farm in Vermont&#10;</tspan><tspan x="469.263" y="714.444">with my friends&#x2026;</tspan></text>
<text fill="black" xml:space="preserve" style="white-space: pre" font-family="Liberation Sans" font-size="18" font-weight="bold" letter-spacing="0em"><tspan x="449.18" y="678.444">I&#x2019;m</tspan></text>
</g>
</g>
<g id="e_from-015_to-016">
<path id="Union_35" fill-rule="evenodd" clip-rule="evenodd" d="M566.681 640.791L572.44 597.26H570.42L564.7 640.529L559.73 639.87L563.25 659L571.65 641.45L566.681 640.791Z" fill="black"/>
</g>
<g id="n015_label">
<text id="what do you mean &#226;&#128;&#156;we&#226;&#128;&#157;?" fill="black" xml:space="preserve" style="white-space: pre" font-family="Liberation Sans" font-size="18" letter-spacing="0em"><tspan x="525.25" y="573.444">what do you&#10;</tspan><tspan x="526.278" y="591.444">mean &#x201c;we&#x201d;?</tspan></text>
</g>
<g id="e_from-013_to-015">
<path id="Union_36" fill-rule="evenodd" clip-rule="evenodd" d="M580.853 533.696L580.88 533.7L581.15 531.62L580 532.48L579.05 531.78L578.85 533.42L578.855 533.421L575.56 558.38H577.59L580.853 533.696Z" fill="black"/>
</g>
<g id="e_from-014_to-013">
<path id="Union_37" fill-rule="evenodd" clip-rule="evenodd" d="M661.02 411.8L658.35 417.2L654.41 423.52L648.59 431.07L644.29 435.6L643.72 435.054L647.7 439.27L630.14 447.62L639.44 430.52L642.892 434.176L647.07 429.77L652.77 422.37L656.61 416.24L659.11 411.16H661.26L661.02 411.8Z" fill="black"/>
</g>
<g id="n014_label">
<text id="I try not to think about it_3" fill="black" xml:space="preserve" style="white-space: pre" font-family="Liberation Sans" font-size="18" letter-spacing="0em"><tspan x="623.267" y="387.444">I try not to&#10;</tspan><tspan x="612.236" y="405.444">think about it</tspan></text>
</g>
<g id="e_from-013_to-014">
<path id="Union_38" fill-rule="evenodd" clip-rule="evenodd" d="M624.65 359.18L630.09 359.9L635.35 361.15L640.28 362.85L644.73 364.89L648.65 367.19L652.05 369.65L654.92 372.23L654.96 372.27H651.96L650.78 371.21L647.55 368.85L643.8 366.65L639.53 364.69L634.79 363.06L629.72 361.86L624.48 361.16L619.28 360.99L614.3 361.32L609.67 362.1L605.44 363.26L601.64 364.72L598.24 366.42L595.19 368.35L592.49 370.48L590.09 372.78L587.94 375.3L586.04 378.05L584.37 381.05L582.94 384.38L581.76 388.11L580.86 392.36L580.34 397.24L580.3 402.99L580.855 408.876L580.92 408.87L581.1 410.88L580 410.05L579.04 410.77L578.885 409.127L578.86 409.13L578.3 403.07L578.34 397.13L578.88 392.05L579.81 387.61L581.05 383.69L582.55 380.19L584.31 376.99L586.33 374.09L588.6 371.43L591.16 368.97L594.03 366.73L597.23 364.7L600.81 362.9L604.81 361.36L609.21 360.16L614.05 359.34L619.21 359L624.65 359.18Z" fill="black"/>
</g>
<g id="n013_question">
<path id="Vector_35" d="M580 411.26L660 471.26L580 531.26L500 471.26L580 411.26Z" fill="#CCCCCC" stroke="black" stroke-width="2"/>
<text id="Are we fucked?" fill="black" xml:space="preserve" style="white-space: pre" font-family="Liberation Sans" font-size="18" letter-spacing="0em"><tspan x="518.25" y="475.444">Are we fucked?</tspan></text>
</g>
<g id="e_from-012_to-013">
<path id="Union_39" fill-rule="evenodd" clip-rule="evenodd" d="M480.8 478L499.3 472L480.8 466V478ZM480.8 473H453.1V471H480.8V473Z" fill="black"/>
</g>
<g id="n012_label">
<text id="yes" fill="black" xml:space="preserve" style="white-space: pre" font-family="Liberation Sans" font-size="18" letter-spacing="0em"><tspan x="425.317" y="475.444">yes</tspan></text>
</g>
<g id="e_from-001_to-012">
<path id="Union_40" fill-rule="evenodd" clip-rule="evenodd" d="M392.26 473.02H394.72V473H425.1L425.11 471H394.72V470.98H392.26L393.62 472L392.26 473.02Z" fill="black"/>
</g>
<g id="e_from-011_to-005">
<path id="Union_41" fill-rule="evenodd" clip-rule="evenodd" d="M375.754 757.537L380.7 753.7L364.63 742.77L371.2 761.07L375.157 758L378.67 762.71L386.89 774.76L394.59 787.11L401.77 799.79L408.44 812.81L414.61 826.23L415.01 827.18H417.17L416.45 825.43L410.23 811.93L403.53 798.83L396.31 786.08L388.57 773.66L380.29 761.53L376.75 756.79L375.754 757.537Z" fill="black"/>
</g>
<g id="n011_label">
<text id="if it gets too bad, God will intervene" fill="black" xml:space="preserve" style="white-space: pre" font-family="Liberation Sans" font-size="18" letter-spacing="0em"><tspan x="357.707" y="841.444">if it gets too bad,&#10;</tspan><tspan x="352.223" y="859.444">God will intervene</tspan></text>
</g>
<g id="e_from-010_to-011">
<path id="Vector_36" d="M432.09 868.63L436.25 884.06L439.87 900.09L442.9 916.73L445.32 934.06L447.06 952.1L448.08 970.9L448.33 990.45L447.73 1010.79L446.23 1031.89L443.73 1053.72L440.23 1076.22L435.63 1099.26L429.93 1122.66L423.13 1146.21L419.2 1157.99H417.1L421.23 1145.61L428 1122.15L433.67 1098.82L438.25 1075.87L441.75 1053.45L444.23 1031.7L445.73 1010.7L446.33 990.44L446.09 970.96L445.06 952.26L443.32 934.31L440.92 917.07L437.92 900.5L434.32 884.54L430.16 869.19L429.18 866.05H431.26L432.09 868.63Z" fill="black"/>
</g>
<g id="n010_label">
<text id="isn&#226;&#128;&#153;t the climate always changing?" fill="black" xml:space="preserve" style="white-space: pre" font-family="Liberation Sans" font-size="18" letter-spacing="0em"><tspan x="348.741" y="1172.44">isn&#x2019;t the climate&#10;</tspan><tspan x="339.223" y="1190.44">always changing?</tspan></text>
</g>
<g id="e_from-009_to-010">
<path id="Vector_37" d="M397.13 1214.5L387.13 1235.3L376.87 1254.55L366.57 1272.05L356.47 1287.68L346.77 1301.42L345.21 1303.45H342.69L345.17 1300.23L354.83 1286.57L364.88 1271.01L375.14 1253.58L385.37 1234.38L395.33 1213.68L402.53 1196.88H404.73L397.13 1214.5Z" fill="black"/>
</g>
<g id="n009_label">
<text id="I don&#226;&#128;&#153;t like your solutions, so it can&#226;&#128;&#153;t be true" fill="black" xml:space="preserve" style="white-space: pre" font-family="Liberation Sans" font-size="18" letter-spacing="0em"><tspan x="227.174" y="1318.44">I don&#x2019;t like your solutions,&#10;</tspan><tspan x="259.72" y="1336.44">so it can&#x2019;t be true</tspan></text>
</g>
<g id="e_from-008_to-009">
<path id="Vector_38" d="M187.23 1163.6L184.6 1200L183.75 1228.26L184.02 1250.59L184.98 1268.51L186.38 1283.09L188.05 1295.11L189.87 1305.13L191.77 1313.56L193.7 1320.73L195.64 1326.88L197.56 1332.18L199.46 1336.81L201.31 1340.85L203.15 1344.41L204.93 1347.57L206.68 1350.37L208.38 1352.87L210.08 1355.14L211.72 1357.16L213.35 1359L214.95 1360.65L216.53 1362.15L218.1 1363.53L219.65 1364.78L221.19 1365.91L222.72 1366.96L224.25 1367.91L225.79 1368.77L227.33 1369.57L228.9 1370.27L230.47 1370.9L232.07 1371.46L233.67 1371.96L235.32 1372.4L236.99 1372.77L238.71 1373.07L240.47 1373.32L242.3 1373.48L244.17 1373.58H246.13L248.17 1373.53L250.3 1373.36L252.52 1373.1L254.87 1372.72L257.34 1372.22L259.94 1371.57L262.74 1370.77L265.69 1369.75L268.85 1368.53L272.25 1367.03L275.93 1365.26L279.89 1363.12L284.19 1360.56L288.87 1357.51L293.97 1353.87L299.55 1349.52L305.65 1344.36L307.81 1342.36H310.76L306.96 1345.86L300.81 1351.09L295.17 1355.49L290 1359.19L285.26 1362.29L280.89 1364.89L276.84 1367.06L273.09 1368.88L269.61 1370.4L266.37 1371.65L263.32 1372.68L260.47 1373.52L257.77 1374.19L255.22 1374.71L252.79 1375.09L250.49 1375.37L248.27 1375.53L246.15 1375.6L244.11 1375.58L242.13 1375.48L240.23 1375.3L238.37 1375.05L236.57 1374.73L234.8 1374.33L233.1 1373.88L231.4 1373.36L229.72 1372.76L228.07 1372.09L226.44 1371.34L224.82 1370.52L223.22 1369.62L221.62 1368.62L220 1367.54L218.4 1366.34L216.78 1365.04L215.16 1363.62L213.52 1362.05L211.86 1360.33L210.18 1358.43L208.48 1356.33L206.75 1354.03L204.99 1351.45L203.19 1348.57L201.37 1345.34L199.5 1341.7L197.62 1337.6L195.69 1332.9L193.73 1327.5L191.77 1321.28L189.81 1314.03L187.91 1305.53L186.06 1295.41L184.39 1283.31L182.99 1268.65L182.01 1250.65L181.74 1228.23L182.6 1199.89L185.24 1163.44L189.8 1123.67H191.8L187.23 1163.6Z" fill="black"/>
</g>
<g id="n008_label">
<text id="it&#226;&#128;&#153;s a Chinese hoax" fill="black" xml:space="preserve" style="white-space: pre" font-family="Liberation Sans" font-size="18" letter-spacing="0em"><tspan x="175.967" y="1082.44">it&#x2019;s a&#10;</tspan><tspan x="161.28" y="1100.44">Chinese&#10;</tspan><tspan x="174.798" y="1118.44">hoax</tspan></text>
</g>
<g id="e_from-007_to-008">
<path id="Union_42" fill-rule="evenodd" clip-rule="evenodd" d="M220.23 964.98L220.4 964.15L218.49 963.23L218.23 964.58L218.24 964.582L200.8 1051.53L198.3 1067.5H200.3L202.76 1051.88L220.182 964.97L220.23 964.98Z" fill="black"/>
</g>
<g id="n007_thought">
<path id="Vector_39" d="M204 936C190.75 936 180 925.25 180 912C180 901.4 186.5 892.45 196.58 889.17C196 858 236 852 252 864C260 846 300 852 300 870C324 864 348 888 332 918C348 942 332 972 300 960C292 975.6 260 975.6 252 960C236 972 204 966 204 936Z" fill="white" stroke="black" stroke-width="2"/>
<text id="I&#226;&#128;&#153;m not in denial!" fill="black" xml:space="preserve" style="white-space: pre" font-family="Liberation Sans" font-size="18" letter-spacing="0em"><tspan x="194.217" y="916.444">I&#x2019;m not in denial!</tspan></text>
</g>
<g id="e_from-005_to-007">
<path id="Union_43" fill-rule="evenodd" clip-rule="evenodd" d="M296.86 771.1L297.6 771.26L297.286 772.291L297.287 772.291L277.978 835.722L281.52 836.8L272.94 849.1L272.64 834.1L276.064 835.141L295.373 771.709L295.388 771.713L295.66 770.76L296.86 771.1Z" fill="black"/>
</g>
<g id="e_from-006_to-001">
<path id="Union_44" fill-rule="evenodd" clip-rule="evenodd" d="M364.621 515.843L368.13 510.94L349.59 505.06L361.13 520.72L364.033 516.664L365.82 518.08L370.15 521.82L373.97 525.42L377.37 528.89L380.37 532.23L383.05 535.47L385.42 538.61L385.75 539.09H388.19L387.05 537.43L384.63 534.23L381.9 530.93L378.84 527.51L375.4 523.98L371.5 520.32L367.12 516.52L365.24 515.07L364.621 515.843Z" fill="black"/>
</g>
<g id="n006_label">
<text id="hmmm&#226;&#128;&#166;" fill="black" xml:space="preserve" style="white-space: pre" font-family="Liberation Sans" font-size="18" letter-spacing="0em"><tspan x="357.326" y="553.444">hmmm&#x2026;</tspan></text>
</g>
<g id="e_from-005_to-006">
<path id="Union_45" fill-rule="evenodd" clip-rule="evenodd" d="M399.52 563.3L400.15 566L400.65 568.7L401.05 571.4L401.33 574.1L401.5 576.83L401.55 579.58L401.49 582.36L401.29 585.16L400.99 588.04L400.55 590.97L399.98 593.97L399.24 597.04L398.34 600.22L397.28 603.5L396.01 606.9L394.51 610.44L392.76 614.14L390.72 618.04L388.35 622.12L385.59 626.45L382.39 631.05L378.65 635.95L374.28 641.21L369.15 646.89L363.11 653.04L355.95 659.74L351.035 664.022L351.05 664.04L350.35 664.64L349.67 664.04L348.71 663.36L349.71 662.5L349.723 662.515L354.61 658.25L361.71 651.61L367.69 645.51L372.77 639.91L377.09 634.71L380.79 629.88L383.94 625.35L386.64 621.09L388.98 617.07L390.98 613.27L392.68 609.63L394.15 606.17L395.39 602.85L396.45 599.65L397.31 596.55L398.01 593.55L398.58 590.65L399 587.8L399.3 585L399.47 582.27L399.52 579.57L399.47 576.91L399.31 574.29L399.04 571.66L398.66 569.06L398.16 566.44L397.54 563.81L396.81 561.18L396.65 560.68H398.75L399.52 563.3Z" fill="black"/>
</g>
<g id="n005_statement">
<path id="Vector_40" d="M372 712C372 745.14 345.14 772 312 772C278.86 772 252 745.14 252 712C252 678.86 278.86 652 312 652C345.14 652 372 678.86 372 712Z" fill="white" stroke="black" stroke-width="2"/>
<text id="You may be in denial." fill="black" xml:space="preserve" style="white-space: pre" font-family="Liberation Sans" font-size="18" letter-spacing="0em"><tspan x="265.095" y="707.444">You may be&#10;</tspan><tspan x="276.257" y="725.444">in denial.</tspan></text>
</g>
<g id="e_from-004_to-005">
<path id="Union_46" fill-rule="evenodd" clip-rule="evenodd" d="M313 632.5V595.6H311V632.5H306L312 651L318 632.5H313Z" fill="black"/>
</g>
<g id="n004_label">
<text id="nope!" fill="black" xml:space="preserve" style="white-space: pre" font-family="Liberation Sans" font-size="18" letter-spacing="0em"><tspan x="289.283" y="588.444">nope!</tspan></text>
</g>
<g id="e_from-001_to-004">
<path id="Union_47" fill-rule="evenodd" clip-rule="evenodd" d="M313 534.3H313.02V532.45L312 533.22L310.97 532.45V534.3H311V574H313V534.3Z" fill="black"/>
</g>
<g id="e_from-003_to-001">
<path id="Union_48" fill-rule="evenodd" clip-rule="evenodd" d="M277.271 524.1L282.25 523.83L275.25 505.68L270.25 524.48L275.271 524.208L275.37 526.22L273.49 536.55L270.79 542.82L267.69 547L264.25 549.94L261.01 551.61V553.88L265.37 551.62L269.17 548.39L272.53 543.85L275.41 537.15L277.37 526.37L277.271 524.1Z" fill="black"/>
</g>
<g id="n003_label">
<text id="climate wha?" fill="black" xml:space="preserve" style="white-space: pre" font-family="Liberation Sans" font-size="18" letter-spacing="0em"><tspan x="204.298" y="543.444">climate&#10;</tspan><tspan x="211.294" y="561.444">wha?</tspan></text>
</g>
<g id="e_from-001_to-003">
<path id="Union_49" fill-rule="evenodd" clip-rule="evenodd" d="M252.59 490.45L254.05 489.75L252.19 488.37L251.69 488.6L251.709 488.64L233.79 497.21L224.79 504.44L220.01 510.52L217.45 515.99L216.33 521.23L216.43 526.53L216.95 528.61H219.01L218.44 526.27L218.34 521.43L219.36 516.63L221.71 511.58L226.21 505.85L234.86 498.91L252.58 490.43L252.59 490.45Z" fill="black"/>
</g>
<g id="e_from-002_to-001">
<path id="Union_50" fill-rule="evenodd" clip-rule="evenodd" d="M393.27 417.22L390.11 422.86L385.51 429.46L378.81 437.36L378.27 437.86L377.465 437.044L381.67 441.54L364.05 449.79L373.45 432.75L376.886 436.424L377.34 435.99L383.94 428.23L388.42 421.79L391.5 416.32L393.1 412.72H395.28L393.27 417.22Z" fill="black"/>
</g>
<g id="n002_label">
<text id="I try not to think about it_4" fill="black" xml:space="preserve" style="white-space: pre" font-family="Liberation Sans" font-size="18" letter-spacing="0em"><tspan x="357.267" y="388.444">I try not to&#10;</tspan><tspan x="346.236" y="406.444">think about it</tspan></text>
</g>
<g id="e_from-001_to-002">
<path id="Union_51" fill-rule="evenodd" clip-rule="evenodd" d="M358.47 360.57L363.87 361.44L369.07 362.8L373.93 364.6L378.33 366.7L382.19 369.04L385.53 371.54L388.09 373.84H385.11L384.26 373.08L381.06 370.7L377.36 368.46L373.14 366.43L368.47 364.71L363.44 363.41L358.24 362.57L353.06 362.23L348.06 362.39L343.4 362.99L339.13 363.96L335.27 365.24L331.8 366.77L328.7 368.51L325.94 370.43L323.47 372.53L321.27 374.8L319.3 377.24L317.55 379.92L316.02 382.85L314.7 386.08L313.63 389.7L312.83 393.8L312.36 398.5V404.02L312.894 409.603L312.92 409.6L313.1 411.62L312 410.78L311.04 411.5L310.88 409.8L310.894 409.799L310.36 404.11V398.41L310.84 393.51L311.68 389.23L312.81 385.43L314.21 382.01L315.83 378.91L317.68 376.08L319.78 373.48L322.11 371.06L324.71 368.84L327.65 366.81L330.91 364.97L334.56 363.37L338.61 362.03L343.07 361.03L347.93 360.39L353.11 360.23L358.47 360.57Z" fill="black"/>
</g>
<g id="n001_question">
<path id="Vector_41" d="M312 412L392 472L312 532L232 472L312 412Z" fill="#CCCCCC" stroke="black" stroke-width="2"/>
<text id="Is climate change for real?" fill="black" xml:space="preserve" style="white-space: pre" font-family="Liberation Sans" font-size="18" letter-spacing="0em"><tspan x="304.822" y="457.444">Is&#10;</tspan><tspan x="251.244" y="475.444">climate change&#10;</tspan><tspan x="278.78" y="493.444">for real?</tspan></text>
</g>
</g>
</svg>
