<svg width="7254" height="1920" viewBox="0 0 7254 1920" fill="none" xmlns="http://www.w3.org/2000/svg">
<g id="XCSP flowchart v. 83 3">
<g id="e_065_083">
<path id="Union" fill-rule="evenodd" clip-rule="evenodd" d="M1680.27 865.567L1680.58 866.08H1680.58L1680.64 866.179L1680.79 866.423L1714.12 921.643L1714.63 922.499L1712.92 923.533L1712.4 922.677L1679.09 867.476L1679.08 867.48L1678.24 866.08H1679.42L1680.27 865.567ZM1709.81 925.41L1721.15 935.23L1717.75 920.63L1709.81 925.41Z" fill="black"/>
</g>
<g id="n083_statement">
<path id="Vector" d="M1642.6 940H1802.6V1060H1642.6V940Z" fill="white" stroke="black" stroke-width="4"/>
<text id="PROBLEM" fill="black" xml:space="preserve" style="white-space: pre" font-family="Liberation Sans" font-size="18" font-weight="bold" letter-spacing="0em"><tspan x="1677.48" y="1005.24">PROBLEM</tspan></text>
</g>
<g id="e_082_083">
<text id="not a" fill="black" xml:space="preserve" style="white-space: pre" font-family="Liberation Sans" font-size="18" font-weight="bold" letter-spacing="0em"><tspan x="1591.48" y="1004.24">not a</tspan></text>
</g>
<g id="n082_statement">
<path id="Vector_2" d="M1423.6 940H1583.6V1060H1423.6V940Z" fill="white" stroke="black" stroke-width="4"/>
<text id="PREDICAMENT" fill="black" xml:space="preserve" style="white-space: pre" font-family="Liberation Sans" font-size="18" font-weight="bold" letter-spacing="0em"><tspan x="1437.47" y="1005.24">PREDICAMENT</tspan></text>
</g>
<g id="e_081_082">
<path id="Union_2" fill-rule="evenodd" clip-rule="evenodd" d="M1504.82 1080.5H1509.83L1503.83 1062L1497.81 1080.5H1502.82V1137.89H1504.82V1080.5Z" fill="black"/>
</g>
<g id="n081_label">
<text id="and means we&#226;&#128;&#153;re in a&#226;&#128;&#166;" fill="black" xml:space="preserve" style="white-space: pre" font-family="Liberation Sans" font-size="18" letter-spacing="0em"><tspan x="1459.27" y="1152.44">and means&#10;</tspan><tspan x="1456.27" y="1170.44">we&#x2019;re in a&#x2026;</tspan></text>
</g>
<g id="e_080_081">
<path id="Union_3" fill-rule="evenodd" clip-rule="evenodd" d="M1502.82 1294.72V1176.77H1504.82V1294.72H1504.85V1295.8H1502.8V1294.72H1502.82Z" fill="black"/>
</g>
<g id="n080_label">
<text id="which makes climate change a &#226;&#128;&#156;super wicked problem&#226;&#128;&#157;" fill="black" xml:space="preserve" style="white-space: pre" font-family="Liberation Sans" font-size="18" letter-spacing="0em"><tspan x="1398.19" y="1315.44">which makes climate change&#10;</tspan><tspan x="1412.22" y="1333.44">a &#x201c;super wicked problem&#x201d;</tspan></text>
</g>
<g id="e_079_080">
<path id="Union_4" fill-rule="evenodd" clip-rule="evenodd" d="M1507 1356.84H1512L1506 1338.34L1500 1356.84H1505V1424.09H1507V1356.84Z" fill="black"/>
</g>
<g id="n079_label">
<text id="and time is running out!" fill="black" xml:space="preserve" style="white-space: pre" font-family="Liberation Sans" font-size="18" letter-spacing="0em"><tspan x="1411.18" y="1439.44">and time is running out!</tspan></text>
</g>
<g id="e_078_079">
<path id="Vector_3" d="M1507 1461.12H1505V1445.69H1507V1461.12Z" fill="black"/>
</g>
<g id="n078_label">
<text id="those seeking to solve the problem are also causing it!" fill="black" xml:space="preserve" style="white-space: pre" font-family="Liberation Sans" font-size="18" letter-spacing="0em"><tspan x="1402.17" y="1475.44">those seeking to solve the&#10;</tspan><tspan x="1396.17" y="1493.44">problem are also causing it!</tspan></text>
</g>
<g id="e_077_078">
<path id="Vector_4" d="M1506.2 1550.86H1504.2V1500H1506.2V1550.86Z" fill="black"/>
</g>
<g id="n077_label">
<text id="because&#226;&#128;&#166;" fill="black" xml:space="preserve" style="white-space: pre" font-family="Liberation Sans" font-size="18" letter-spacing="0em"><tspan x="1462.28" y="1565.44">because&#x2026;</tspan></text>
</g>
<g id="e_076_077">
<path id="Vector_5" d="M1506.2 1588.6H1504.2V1572.46H1506.2V1588.6Z" fill="black"/>
</g>
<g id="n076_label">
<text id="oh, but climate change is even worse!" fill="black" xml:space="preserve" style="white-space: pre" font-family="Liberation Sans" font-size="18" letter-spacing="0em"><tspan x="1478.27" y="1602.44">oh, but&#10;</tspan><tspan x="1445.24" y="1620.44">climate change&#10;</tspan><tspan x="1448.26" y="1638.44">is even worse!</tspan></text>
</g>
<g id="e_075_076">
<path id="Union_5" fill-rule="evenodd" clip-rule="evenodd" d="M1409.03 1689.6H1506.2V1644.75H1504.2V1687.6H1409V1687.6H1408V1689.6H1409.03V1689.6Z" fill="black"/>
</g>
<g id="n075_definition">
<path id="Vector_6" d="M1080 1554H1422V1719H1080V1554Z" fill="white"/>
<path id="Vector_7" d="M1109.4 1554.44H1080V1718.71H1109.4" stroke="black" stroke-width="2"/>
<text id="A wicked problem is a problem that&#226;&#128;&#166; you can&#226;&#128;&#153;t define, never ends, has no right answer (i.e. no agreed-upon optimum solution), is unique (i.e. so damn special that no previous problem serves as a good guide), and is itself a symptom of other (wicked) problems!" fill="black" xml:space="preserve" style="white-space: pre" font-family="Liberation Sans" font-size="18" letter-spacing="0em"><tspan x="1097" y="1587.24">A wicked problem is a problem that&#x2026;&#10;</tspan><tspan x="1097" y="1605.24">you can&#x2019;t define, never ends, has no&#10;</tspan><tspan x="1097" y="1623.24">right answer (i.e. no agreed-upon&#10;</tspan><tspan x="1097" y="1641.24">optimum solution), is unique (i.e. so&#10;</tspan><tspan x="1097" y="1659.24">damn special that no previous problem&#10;</tspan><tspan x="1097" y="1677.24">serves as a good guide), and is itself a&#10;</tspan><tspan x="1097" y="1695.24">symptom of other (wicked) problems!</tspan></text>
</g>
<g id="e_074_075">
<path id="Union_6" fill-rule="evenodd" clip-rule="evenodd" d="M1094.85 1360.28L1090.76 1363.67L1085.96 1367.99L1081.42 1372.42L1077.15 1376.99L1073.08 1381.68L1069.25 1386.51L1065.64 1391.48L1062.22 1396.62L1059.03 1401.91L1056.02 1407.37L1053.2 1413.01L1050.59 1418.84L1048.21 1424.9L1046.04 1431.16L1044.08 1437.64L1042.37 1444.34L1040.88 1451.27L1039.69 1458.4L1038.76 1465.73L1038.13 1473.25L1037.8 1480.91V1488.67L1038.13 1496.46L1038.78 1504.19L1039.75 1511.8L1040.98 1519.18L1042.49 1526.24L1044.18 1532.87L1046.04 1539.01L1047.98 1544.6L1049.96 1549.6L1051.94 1554.06L1053.89 1557.96L1055.74 1561.34L1057.49 1564.26L1059.17 1566.78L1060.73 1568.92L1062.2 1570.78L1063.55 1572.35L1063.97 1572.8L1062.51 1574.16L1062.08 1573.7C1062.07 1573.69 1062.06 1573.68 1062.05 1573.67L1060.67 1572.07C1060.66 1572.06 1060.65 1572.05 1060.65 1572.04L1059.15 1570.14C1059.14 1570.13 1059.14 1570.13 1059.13 1570.12C1059.13 1570.12 1059.13 1570.11 1059.12 1570.11L1057.54 1567.94C1057.53 1567.93 1057.53 1567.92 1057.52 1567.9L1055.82 1565.35C1055.81 1565.34 1055.8 1565.33 1055.79 1565.32L1054.01 1562.36C1054.01 1562.34 1054 1562.33 1053.99 1562.32L1052.12 1558.9L1052.11 1558.88L1052.11 1558.87L1050.15 1554.94C1050.14 1554.92 1050.13 1554.91 1050.13 1554.9L1048.13 1550.4L1048.12 1550.37L1048.11 1550.36L1046.11 1545.32C1046.11 1545.31 1046.1 1545.29 1046.1 1545.28L1044.15 1539.65C1044.14 1539.63 1044.14 1539.62 1044.13 1539.61L1042.26 1533.43C1042.26 1533.42 1042.25 1533.4 1042.25 1533.39L1040.55 1526.72C1040.55 1526.7 1040.54 1526.69 1040.54 1526.68L1039.02 1519.58C1039.02 1519.56 1039.02 1519.55 1039.01 1519.53L1037.77 1512.11C1037.77 1512.1 1037.77 1512.09 1037.77 1512.08L1036.8 1504.43C1036.8 1504.41 1036.79 1504.4 1036.79 1504.38L1036.13 1496.6C1036.13 1496.59 1036.13 1496.58 1036.13 1496.56L1035.8 1488.73C1035.8 1488.72 1035.8 1488.7 1035.8 1488.69V1480.89C1035.8 1480.88 1035.8 1480.86 1035.8 1480.85L1036.13 1473.15C1036.13 1473.13 1036.13 1473.12 1036.13 1473.11L1036.77 1465.55C1036.77 1465.53 1036.78 1465.52 1036.78 1465.5L1037.71 1458.12C1037.71 1458.11 1037.71 1458.1 1037.71 1458.08L1038.91 1450.91C1038.92 1450.9 1038.92 1450.88 1038.92 1450.87L1040.42 1443.9L1040.43 1443.89C1040.43 1443.88 1040.43 1443.87 1040.43 1443.86L1042.15 1437.12C1042.15 1437.11 1042.16 1437.09 1042.16 1437.08L1044.13 1430.56C1044.14 1430.55 1044.14 1430.54 1044.14 1430.52L1046.33 1424.22C1046.33 1424.21 1046.33 1424.2 1046.34 1424.18L1048.74 1418.08C1048.75 1418.07 1048.75 1418.06 1048.76 1418.04L1051.39 1412.17L1051.4 1412.15L1051.41 1412.13L1054.24 1406.46L1054.24 1406.45L1054.25 1406.43L1057.28 1400.93C1057.29 1400.92 1057.3 1400.9 1057.3 1400.89L1060.52 1395.56C1060.53 1395.55 1060.54 1395.54 1060.55 1395.53L1063.99 1390.36C1063.99 1390.34 1064 1390.33 1064.01 1390.32L1067.64 1385.32C1067.65 1385.31 1067.66 1385.3 1067.67 1385.29L1071.53 1380.42C1071.53 1380.41 1071.54 1380.41 1071.54 1380.4C1071.55 1380.4 1071.55 1380.39 1071.56 1380.38L1075.66 1375.66L1075.67 1375.65L1075.68 1375.64L1079.98 1371.04C1079.99 1371.03 1080 1371.01 1080.01 1371L1084.58 1366.54C1084.59 1366.53 1084.6 1366.53 1084.61 1366.52L1089.44 1362.17C1089.45 1362.16 1089.46 1362.15 1089.47 1362.14L1093.57 1358.74L1094.85 1360.28ZM1061.43 1577.78L1076.16 1580.6L1065.9 1569.65L1061.43 1577.78Z" fill="black"/>
</g>
<g id="e_074_080">
<path id="Vector 3 (Stroke)" fill-rule="evenodd" clip-rule="evenodd" d="M1252.18 1133.1C1252.49 1132.8 1252.93 1132.5 1253.5 1132.5C1254.45 1132.5 1255.41 1132.68 1256.3 1133.32C1257.16 1133.95 1257.85 1134.94 1258.42 1136.32C1259.54 1139.07 1260.34 1143.74 1260.93 1151.55C1261.23 1155.44 1261.48 1160.13 1261.68 1165.79C1266.17 1159.69 1270.52 1154.53 1274.74 1150.72C1279.71 1146.23 1284.63 1143.5 1289.5 1143.5C1300.8 1143.5 1310.72 1148.26 1317.78 1157.06C1324.83 1165.84 1329 1178.58 1329 1194.5C1329 1197.03 1328.93 1199.66 1328.79 1202.38C1343.52 1204.41 1352.66 1207.91 1358.34 1212C1360.02 1213.22 1361.4 1214.48 1362.53 1215.78C1362.82 1215.4 1363.11 1215.02 1363.41 1214.64C1370.75 1205.18 1378.63 1195.95 1385.75 1189.08C1389.31 1185.64 1392.69 1182.77 1395.75 1180.75C1398.76 1178.76 1401.59 1177.5 1404 1177.5C1408.63 1177.5 1412.25 1180.07 1415.03 1184.01C1417.8 1187.93 1419.81 1193.3 1421.27 1199.2C1424.2 1211 1425 1225.22 1425 1235C1425 1243.35 1423.98 1255.42 1421.96 1266.03C1429.01 1267.06 1439.21 1269.58 1450.02 1273.37C1464.5 1278.45 1480.26 1285.87 1491.15 1295.24L1489.85 1296.76C1479.24 1287.63 1463.75 1280.3 1449.36 1275.26C1438.51 1271.45 1428.4 1268.98 1421.58 1267.99C1421.53 1268.23 1421.48 1268.47 1421.43 1268.71C1420.25 1274.3 1418.76 1279.39 1416.97 1283.11C1416.07 1284.96 1415.07 1286.53 1413.95 1287.65C1412.82 1288.77 1411.5 1289.5 1410 1289.5C1404.98 1289.5 1401.21 1286.63 1398.75 1283.28C1396.3 1279.96 1395 1276.01 1395 1273.5C1395 1271.66 1395.82 1270.2 1397.15 1269.1C1398.44 1268.03 1400.21 1267.3 1402.18 1266.78C1406.13 1265.75 1411.24 1265.5 1416 1265.5C1417.11 1265.5 1418.44 1265.59 1419.98 1265.77C1421.98 1255.27 1423 1243.26 1423 1235C1423 1225.28 1422.2 1211.25 1419.33 1199.68C1417.89 1193.89 1415.95 1188.79 1413.4 1185.16C1410.85 1181.55 1407.77 1179.5 1404 1179.5C1402.21 1179.5 1399.79 1180.48 1396.85 1182.42C1393.94 1184.35 1390.65 1187.12 1387.14 1190.52C1380.12 1197.3 1372.3 1206.44 1364.99 1215.86C1364.59 1216.38 1364.2 1216.89 1363.8 1217.4C1364.99 1219.09 1365.81 1220.8 1366.36 1222.49C1367.5 1226 1367.5 1229.35 1367.5 1231.96V1232C1367.5 1234.88 1366.25 1238.28 1364.37 1241.68C1362.47 1245.11 1359.88 1248.65 1357.06 1251.85C1354.24 1255.05 1351.18 1257.93 1348.32 1260.02C1346.89 1261.06 1345.49 1261.92 1344.19 1262.53C1342.9 1263.12 1341.64 1263.5 1340.5 1263.5C1337.72 1263.5 1336 1260.79 1336 1258C1336 1257.3 1336.26 1256.4 1336.63 1255.43C1337.02 1254.42 1337.59 1253.21 1338.3 1251.83C1339.73 1249.07 1341.77 1245.59 1344.26 1241.67C1348.76 1234.57 1354.76 1225.97 1361.28 1217.4C1360.21 1216.12 1358.86 1214.85 1357.16 1213.62C1351.85 1209.79 1343.1 1206.39 1328.68 1204.39C1327.58 1222.71 1323.64 1244.91 1318.08 1267.93C1328.26 1275.91 1337.27 1283.99 1344.7 1291.84C1351.8 1299.33 1357.48 1306.64 1361.4 1313.48C1365.31 1320.32 1367.5 1326.76 1367.5 1332.5C1367.5 1352.16 1352.2 1365.9 1327.14 1374.69C1313.57 1379.45 1297.03 1382.81 1278.25 1384.89C1277.26 1386.98 1276.28 1388.99 1275.31 1390.91C1271.48 1398.52 1267.85 1404.71 1264.58 1409.02C1262.95 1411.17 1261.38 1412.89 1259.91 1414.08C1258.45 1415.25 1256.96 1416 1255.5 1416C1252.75 1416 1250.51 1414.16 1248.72 1411.36C1246.91 1408.54 1245.4 1404.54 1244.13 1399.72C1243.16 1396.05 1242.31 1391.87 1241.57 1387.3C1236.48 1387.43 1231.29 1387.5 1226 1387.5C1193.41 1387.5 1170.43 1383.36 1153.5 1377.83C1136.56 1372.28 1125.72 1365.35 1117.45 1359.83L1118.55 1358.17C1126.78 1363.65 1137.44 1370.47 1154.12 1375.92C1170.82 1381.39 1193.59 1385.5 1226 1385.5C1231.18 1385.5 1236.27 1385.44 1241.26 1385.3C1240.21 1378.35 1239.39 1370.59 1238.75 1362.45C1237 1340.08 1236.61 1314.77 1236.52 1295.45C1211.6 1299 1187.94 1304.48 1165.61 1309.97C1161.66 1310.94 1157.74 1311.92 1153.86 1312.88C1120.96 1321.06 1091.03 1328.5 1064.5 1328.5C1055.56 1328.5 1044.62 1325.57 1035.88 1319.77C1027.13 1313.96 1020.5 1305.18 1020.5 1293.5C1020.5 1275.79 1027.07 1251.05 1044.75 1230.72C1062.45 1210.36 1091.24 1194.5 1135.5 1194.5C1159.34 1194.5 1185.46 1200.14 1211.3 1209.3C1219.12 1207.46 1227.51 1205.86 1236.5 1204.55C1236.82 1204.04 1237.13 1203.53 1237.45 1203.02C1238.87 1200.71 1240.29 1198.43 1241.68 1196.18C1241.81 1194.87 1241.94 1193.57 1242.07 1192.28C1243.66 1176.33 1245.46 1161.59 1247.27 1150.82C1248.18 1145.44 1249.09 1141.02 1249.99 1137.94C1250.43 1136.4 1250.89 1135.14 1251.37 1134.25C1251.6 1133.81 1251.87 1133.4 1252.18 1133.1ZM1241.26 1200.66C1240.58 1201.76 1239.89 1202.87 1239.2 1203.99C1239.16 1204.05 1239.12 1204.12 1239.08 1204.18C1239.7 1204.09 1240.33 1204.01 1240.96 1203.93C1241.06 1202.83 1241.16 1201.75 1241.26 1200.66ZM1242.99 1203.66C1243.2 1201.37 1243.41 1199.09 1243.63 1196.83C1249.29 1187.71 1254.69 1179.18 1259.86 1171.76C1260.09 1179.95 1260.24 1189.87 1260.35 1201.88C1254.33 1202.36 1248.55 1202.96 1242.99 1203.66ZM1240.77 1205.97C1239.75 1206.11 1238.73 1206.25 1237.71 1206.39C1235.55 1209.89 1233.35 1213.44 1231.11 1217.02C1233.93 1218.21 1236.74 1219.45 1239.54 1220.71C1239.92 1215.81 1240.34 1210.87 1240.77 1205.97ZM1241.47 1221.6C1241.89 1216.31 1242.33 1210.98 1242.81 1205.7C1248.43 1204.98 1254.27 1204.37 1260.36 1203.89C1260.42 1211.96 1260.46 1220.95 1260.48 1230.96C1254.26 1227.69 1247.91 1224.55 1241.47 1221.6ZM1239.37 1222.83C1236.28 1221.42 1233.16 1220.06 1230.04 1218.73C1228.51 1221.16 1226.97 1223.6 1225.4 1226.04C1212.43 1246.3 1198.17 1266.63 1182.41 1281.91C1166.64 1297.17 1149.25 1307.5 1130 1307.5C1121.71 1307.5 1116.74 1304.36 1113.9 1299.84C1111.12 1295.41 1110.5 1289.8 1110.5 1285C1110.5 1280.74 1112.66 1273.33 1118.19 1264.67C1123.73 1255.97 1132.7 1245.94 1146.43 1236.43C1160.99 1226.34 1180.88 1216.86 1207.71 1210.16C1183.02 1201.67 1158.19 1196.5 1135.5 1196.5C1091.76 1196.5 1063.55 1212.14 1046.25 1232.03C1028.93 1251.95 1022.5 1276.21 1022.5 1293.5C1022.5 1304.32 1028.62 1312.54 1036.99 1318.1C1045.38 1323.68 1055.94 1326.5 1064.5 1326.5C1090.77 1326.5 1120.44 1319.13 1153.4 1310.93C1157.27 1309.97 1161.18 1309 1165.14 1308.03C1187.55 1302.52 1211.38 1297 1236.52 1293.44C1236.5 1288.68 1236.5 1284.33 1236.5 1280.51V1280.5C1236.5 1267.04 1237.63 1245.41 1239.37 1222.83ZM1238.52 1293.16C1238.5 1288.51 1238.5 1284.24 1238.5 1280.5C1238.5 1267.25 1239.6 1246 1241.31 1223.72C1247.8 1226.72 1254.21 1229.9 1260.49 1233.22C1260.5 1238.08 1260.5 1243.17 1260.5 1248.5C1260.5 1264.5 1260.74 1278.47 1261.24 1290.66C1253.55 1291.29 1245.98 1292.13 1238.52 1293.16ZM1238.52 1295.17C1238.61 1314.51 1238.99 1339.89 1240.75 1362.3C1241.39 1370.51 1242.22 1378.31 1243.27 1385.25C1255.12 1384.89 1266.38 1384.16 1276.92 1383.02C1278.97 1378.65 1281.07 1373.91 1283.18 1368.87C1282.12 1368.35 1281.09 1367.73 1280.11 1367.01C1275.44 1363.61 1271.74 1357.98 1268.86 1349.19C1264.97 1337.28 1262.51 1319.35 1261.33 1292.66C1253.62 1293.29 1246.01 1294.14 1238.52 1295.17ZM1263.33 1292.51C1264.5 1319.14 1266.94 1336.88 1270.76 1348.56C1273.57 1357.14 1277.09 1362.33 1281.29 1365.4C1282.14 1366.02 1283.03 1366.56 1283.95 1367.02C1288.49 1356.09 1293.11 1343.82 1297.55 1330.86C1301.63 1318.97 1305.55 1306.51 1309.14 1293.95C1303.87 1292.41 1297.42 1291.5 1289.5 1291.5C1280.64 1291.5 1271.91 1291.86 1263.33 1292.51ZM1311.04 1294.56C1307.45 1307.14 1303.52 1319.62 1299.45 1331.51C1294.99 1344.52 1290.35 1356.83 1285.78 1367.83C1288.95 1369.04 1292.5 1369.5 1296.5 1369.5C1300.46 1369.5 1304.7 1367.72 1308.88 1364.78C1313.05 1361.86 1317.08 1357.85 1320.6 1353.55C1324.12 1349.26 1327.12 1344.71 1329.23 1340.71C1330.28 1338.72 1331.1 1336.87 1331.66 1335.28C1332.23 1333.68 1332.5 1332.4 1332.5 1331.5C1332.5 1331 1332.51 1330.43 1332.52 1329.8C1332.62 1324.89 1332.79 1316.19 1328.44 1308.3C1325.43 1302.84 1320.2 1297.68 1311.04 1294.56ZM1285.01 1369.68C1288.49 1371.02 1292.33 1371.5 1296.5 1371.5C1301.04 1371.5 1305.68 1369.47 1310.03 1366.42C1314.39 1363.36 1318.55 1359.21 1322.15 1354.82C1325.75 1350.43 1328.82 1345.76 1330.99 1341.65C1332.08 1339.59 1332.95 1337.65 1333.55 1335.95C1334.15 1334.26 1334.5 1332.73 1334.5 1331.5C1334.5 1331.04 1334.51 1330.49 1334.52 1329.87C1334.63 1325 1334.82 1315.73 1330.19 1307.33C1326.89 1301.35 1321.22 1295.89 1311.59 1292.63C1313.72 1285.1 1315.72 1277.55 1317.56 1270.06C1327.38 1277.81 1336.06 1285.63 1343.25 1293.22C1350.27 1300.63 1355.85 1307.81 1359.66 1314.48C1363.49 1321.15 1365.5 1327.24 1365.5 1332.5C1365.5 1350.84 1351.3 1364.1 1326.48 1372.81C1313.37 1377.41 1297.41 1380.69 1279.25 1382.77C1281.14 1378.68 1283.07 1374.3 1285.01 1369.68ZM1315.83 1268.71C1313.95 1276.43 1311.88 1284.24 1309.68 1292.03C1304.22 1290.43 1297.57 1289.5 1289.5 1289.5C1280.61 1289.5 1271.85 1289.86 1263.24 1290.51C1262.74 1278.39 1262.5 1264.47 1262.5 1248.5C1262.5 1243.56 1262.5 1238.82 1262.49 1234.29C1270.82 1238.76 1278.91 1243.47 1286.65 1248.35C1297.1 1254.92 1306.91 1261.78 1315.83 1268.71ZM1316.34 1266.58C1321.79 1243.9 1325.63 1222.1 1326.7 1204.12C1318.49 1203.09 1308.55 1202.5 1296.5 1202.5C1284.37 1202.5 1273.01 1202.93 1262.36 1203.73C1262.43 1212.13 1262.47 1221.52 1262.49 1232.02C1271.2 1236.66 1279.65 1241.57 1287.72 1246.65C1297.94 1253.08 1307.56 1259.79 1316.34 1266.58ZM1262.34 1201.73C1273.01 1200.93 1284.38 1200.5 1296.5 1200.5C1308.52 1200.5 1318.51 1201.09 1326.81 1202.12C1326.93 1199.49 1327 1196.95 1327 1194.5C1327 1178.92 1322.92 1166.66 1316.22 1158.31C1309.53 1149.99 1300.2 1145.5 1289.5 1145.5C1285.37 1145.5 1280.92 1147.83 1276.08 1152.2C1271.54 1156.3 1266.79 1162.07 1261.78 1169.04C1262.05 1177.71 1262.23 1188.45 1262.34 1201.73ZM1275.92 1385.14C1265.74 1386.2 1254.92 1386.89 1243.59 1387.24C1244.31 1391.65 1245.13 1395.68 1246.06 1399.21C1247.32 1403.96 1248.76 1407.72 1250.4 1410.28C1252.05 1412.85 1253.75 1414 1255.5 1414C1256.29 1414 1257.34 1413.58 1258.65 1412.52C1259.95 1411.47 1261.41 1409.9 1262.99 1407.81C1266.15 1403.64 1269.72 1397.57 1273.53 1390.01C1274.32 1388.45 1275.11 1386.82 1275.92 1385.14ZM1211.18 1211.38C1183.04 1218.05 1162.43 1227.78 1147.57 1238.07C1134.05 1247.44 1125.27 1257.28 1119.87 1265.74C1114.46 1274.23 1112.5 1281.26 1112.5 1285C1112.5 1289.7 1113.13 1294.84 1115.6 1298.78C1118.01 1302.64 1122.29 1305.5 1130 1305.5C1148.5 1305.5 1165.42 1295.58 1181.02 1280.47C1196.61 1265.37 1210.76 1245.2 1223.72 1224.96C1225.22 1222.62 1226.7 1220.28 1228.17 1217.95C1222.54 1215.6 1216.87 1213.4 1211.18 1211.38ZM1229.24 1216.23C1231.23 1213.06 1233.19 1209.9 1235.13 1206.77C1227.95 1207.86 1221.18 1209.13 1214.78 1210.55C1219.62 1212.33 1224.45 1214.23 1229.24 1216.23ZM1259.76 1168.43C1259.57 1168.7 1259.38 1168.96 1259.19 1169.24C1254.36 1176.06 1249.33 1183.92 1244.07 1192.34C1245.66 1176.46 1247.45 1161.82 1249.24 1151.15C1250.14 1145.79 1251.04 1141.47 1251.91 1138.5C1252.34 1137 1252.75 1135.9 1253.13 1135.19C1253.32 1134.84 1253.48 1134.63 1253.58 1134.52C1253.59 1134.51 1253.6 1134.51 1253.61 1134.5C1254.23 1134.51 1254.71 1134.64 1255.12 1134.95C1255.58 1135.28 1256.08 1135.89 1256.57 1137.08C1257.55 1139.5 1258.35 1143.88 1258.94 1151.7C1259.28 1156.13 1259.55 1161.63 1259.76 1168.43ZM1253.65 1134.47C1253.65 1134.47 1253.65 1134.47 1253.65 1134.47C1253.65 1134.47 1253.65 1134.47 1253.65 1134.47ZM1362.52 1219.08C1356.17 1227.45 1350.34 1235.83 1345.95 1242.74C1343.47 1246.64 1341.46 1250.06 1340.08 1252.75C1339.38 1254.09 1338.85 1255.23 1338.5 1256.15C1338.13 1257.1 1338 1257.7 1338 1258C1338 1260.21 1339.28 1261.5 1340.5 1261.5C1341.23 1261.5 1342.19 1261.25 1343.35 1260.71C1344.5 1260.18 1345.78 1259.4 1347.14 1258.4C1349.85 1256.42 1352.82 1253.64 1355.56 1250.53C1358.31 1247.41 1360.81 1243.99 1362.62 1240.71C1364.44 1237.41 1365.5 1234.37 1365.5 1232C1365.5 1229.37 1365.49 1226.3 1364.46 1223.11C1364.02 1221.79 1363.41 1220.43 1362.52 1219.08ZM1419.59 1267.73C1418.2 1267.58 1416.99 1267.5 1416 1267.5C1411.26 1267.5 1406.37 1267.75 1402.69 1268.72C1400.85 1269.2 1399.4 1269.84 1398.43 1270.65C1397.49 1271.42 1397 1272.34 1397 1273.5C1397 1275.49 1398.1 1279.04 1400.35 1282.09C1402.59 1285.12 1405.82 1287.5 1410 1287.5C1410.8 1287.5 1411.64 1287.12 1412.54 1286.23C1413.44 1285.34 1414.32 1283.99 1415.17 1282.24C1416.86 1278.73 1418.3 1273.83 1419.47 1268.29C1419.51 1268.11 1419.55 1267.92 1419.59 1267.73Z" fill="black"/>
</g>
<g id="n074_label">
<text id="huh?" fill="black" xml:space="preserve" style="white-space: pre" font-family="Liberation Sans" font-size="18" letter-spacing="0em"><tspan x="1087.29" y="1348.44">huh?</tspan></text>
</g>
<g id="e_073_074">
<path id="Vector 2 (Stroke)" fill-rule="evenodd" clip-rule="evenodd" d="M1176.17 1038.41C1192.89 1025.86 1211.99 1011.52 1229.78 993.301L1231.22 994.699C1213.3 1013.03 1194.06 1027.48 1177.34 1040.03C1174.17 1042.41 1171.09 1044.72 1168.12 1046.98C1158.82 1054.08 1150.68 1060.61 1144.47 1067.05C1138.26 1073.48 1134.05 1079.73 1132.47 1086.24C1129.68 1097.76 1131.23 1106.2 1135.03 1113.69C1138.19 1119.92 1142.9 1125.48 1148.12 1131.65C1149.25 1132.98 1150.4 1134.34 1151.56 1135.74C1158.07 1143.58 1164.89 1152.58 1169.85 1164.8C1174.81 1177.02 1177.88 1192.42 1177 1213.04C1175.8 1241.03 1157 1257.41 1138.88 1273.2L1138.78 1273.29C1120.51 1289.21 1103 1304.52 1103 1330.5H1101C1101 1303.55 1119.22 1287.68 1137.32 1271.91L1137.46 1271.78C1155.72 1255.88 1173.85 1240.02 1175 1212.96C1175.87 1192.58 1172.83 1177.48 1167.99 1165.55C1163.15 1153.61 1156.49 1144.8 1150.02 1137.01C1148.89 1135.65 1147.76 1134.32 1146.65 1133.01C1141.42 1126.84 1136.53 1121.05 1133.25 1114.59C1129.23 1106.68 1127.62 1097.74 1130.53 1085.76C1132.23 1078.77 1136.71 1072.21 1143.03 1065.66C1149.36 1059.11 1157.6 1052.49 1166.91 1045.39C1169.89 1043.12 1172.99 1040.8 1176.17 1038.41Z" fill="black"/>
</g>
<g id="n073_label">
<text id="a &#226;&#128;&#156;wicked problem&#226;&#128;&#157;" fill="black" xml:space="preserve" style="white-space: pre" font-family="Liberation Sans" font-size="18" letter-spacing="0em"><tspan x="1162.25" y="986.443">a &#x201c;wicked problem&#x201d;</tspan></text>
</g>
<g id="e_067_073">
<path id="Union_7" fill-rule="evenodd" clip-rule="evenodd" d="M1241 879.44L1240 880.26L1238.96 879.41L1239 881.36L1239.05 881.359L1239.21 889.01L1239.76 897.81L1240.76 907.21L1242.66 919.89L1246.3 941.86L1246.8 946.36L1247 949.78L1247.07 952.65L1247.01 955.19L1246.87 957.49L1246.63 959.66L1246.33 961.73L1245.95 963.73L1245.48 965.7L1244.92 967.67L1244.28 969.65L1243.53 971.67L1243.39 971.99H1245.54L1246.17 970.31L1246.84 968.25L1247.41 966.2L1247.89 964.15L1248.29 962.07L1248.61 959.92L1248.84 957.68L1248.99 955.28L1249.05 952.68L1248.97 949.73L1248.77 946.23L1248.27 941.63L1244.61 919.61L1242.71 906.99L1241.73 897.67L1241.18 888.97L1241.05 881.24L1241.05 881.24L1241 879.44Z" fill="#282C33"/>
</g>
<g id="e_072_065">
<path id="Union_8" fill-rule="evenodd" clip-rule="evenodd" d="M1917.6 703.03V826.67V827.67H1916.6H1837.5H1836.5V831.3L1822.24 826.67L1836.5 822.03V825.67H1837.5H1915.6V703.03V703V702H1917.6V703V703.03Z" fill="black"/>
</g>
<g id="n072_statement">
<path id="Vector_8" d="M1836.6 580H1996.6V700H1836.6V580Z" fill="white" stroke="black" stroke-width="4"/>
<text id="Business as usual." fill="black" xml:space="preserve" style="white-space: pre" font-family="Liberation Sans" font-size="18" font-weight="bold" letter-spacing="0em"><tspan x="1876.45" y="636.24">Business&#10;</tspan><tspan x="1877.94" y="654.24">as usual.</tspan></text>
</g>
<g id="e_071_072">
<path id="Union_9" fill-rule="evenodd" clip-rule="evenodd" d="M1946.62 427.63L1940.22 442.43L1934.94 456.19L1930.57 469.19L1926.95 481.64L1923.98 493.78L1921.58 505.73L1919.68 517.67L1918.3 529.73L1917.4 542.1L1917 554.94L1917.05 559.47L1915.05 559.49L1915 554.92L1915.4 541.99L1916.3 529.55L1917.7 517.39L1919.6 505.37L1922.03 493.32L1925.03 481.12L1928.66 468.56L1933.06 455.46L1938.36 441.64L1944.8 426.76L1951.6 412.72H1953.8L1946.62 427.63ZM1910.05 559.68L1916.6 578L1922.05 559.33L1910.05 559.68Z" fill="black"/>
</g>
<g id="n071_label">
<text id="bad-ish" fill="black" xml:space="preserve" style="white-space: pre" font-family="Liberation Sans" font-size="18" letter-spacing="0em"><tspan x="1929.29" y="405.443">bad-ish</tspan></text>
</g>
<g id="e_069_071">
<path id="Union_10" fill-rule="evenodd" clip-rule="evenodd" d="M2017.4 312.63L2018 311.77L2016.36 310.53L2015.72 311.43L2015.74 311.444L1992.18 344.56L1975.24 370.61L1963.09 391.16H1965.42L1976.94 371.66L1993.84 345.68L2017.38 312.613L2017.4 312.63ZM2016.59 310.758L2016.37 310.59L2016.37 310.593L2016.59 310.758Z" fill="black"/>
</g>
<g id="e_070_069">
<path id="Union_11" fill-rule="evenodd" clip-rule="evenodd" d="M2135.17 222.78L2131.62 228.88L2126.32 236.18L2120.05 243.18L2119.39 242.594L2123.43 246.9L2105.83 255.18L2115.2 238.13L2118.62 241.773L2124.77 234.91L2129.95 227.81L2133.39 221.87L2134.67 219.02H2136.87L2135.17 222.78Z" fill="black"/>
</g>
<g id="n070_label">
<text id="I try not to think about it" fill="black" xml:space="preserve" style="white-space: pre" font-family="Liberation Sans" font-size="18" letter-spacing="0em"><tspan x="2099.27" y="194.444">I try not to&#10;</tspan><tspan x="2088.24" y="212.444">think about it</tspan></text>
</g>
<g id="e_069_070">
<path id="Union_12" fill-rule="evenodd" clip-rule="evenodd" d="M2102.93 167.35L2108.33 168.25L2113.51 169.67L2118.28 171.51L2122.52 173.67L2126.22 176.05L2129.39 178.57L2130.99 180.14H2128.13L2128.07 180.07L2125.07 177.67L2121.54 175.41L2117.49 173.35L2112.93 171.59L2107.93 170.22L2102.73 169.36L2097.48 169.02L2092.38 169.22L2087.6 169.88L2083.2 170.95L2079.23 172.35L2075.67 174.05L2072.5 175.97L2069.68 178.1L2067.16 180.43L2064.93 182.98L2062.95 185.76L2061.21 188.8L2059.71 192.18L2058.49 195.96L2057.56 200.26L2057.01 205.24L2056.96 211.1L2057.52 217.2L2057.52 217.2L2057.7 219.1L2056.6 218.28L2055.63 219L2055.47 217.3L2055.51 217.296L2054.95 211.18L2055 205.13L2055.57 199.93L2056.55 195.43L2057.85 191.46L2059.41 187.9L2061.24 184.68L2063.34 181.74L2065.71 179.04L2068.37 176.58L2071.37 174.33L2074.7 172.29L2078.44 170.52L2082.6 169.02L2087.2 167.92L2092.18 167.22L2097.48 167.02L2102.93 167.35Z" fill="black"/>
</g>
<g id="n069_question">
<path id="Vector_9" d="M2056.6 219.5L2136.6 279.5L2056.6 339.5L1976.6 279.5L2056.6 219.5Z" fill="#CCCCCC" stroke="black" stroke-width="2"/>
<text id="How bad is it?" fill="black" xml:space="preserve" style="white-space: pre" font-family="Liberation Sans" font-size="18" letter-spacing="0em"><tspan x="2000.24" y="283.444">How bad is it?</tspan></text>
</g>
<g id="e_044_069">
<path id="Union_13" fill-rule="evenodd" clip-rule="evenodd" d="M1958.09 284.63L1972.35 280L1958.09 275.37V279H1957.09H1852.68H1852.64H1851.98L1851.31 281H1852.64H1852.66H1957.09H1958.09V284.63Z" fill="black"/>
</g>
<g id="e_068_065">
<path id="Union_14" fill-rule="evenodd" clip-rule="evenodd" d="M1520.67 831.3L1520.47 833.3L1454.87 827.27V825.27L1520.67 831.3ZM1520.03 838.3L1539 834L1521.13 826.32L1520.03 838.3Z" fill="black"/>
</g>
<g id="n068_label">
<text id="usual kind" fill="black" xml:space="preserve" style="white-space: pre" font-family="Liberation Sans" font-size="18" letter-spacing="0em"><tspan x="1374.27" y="826.443">usual kind</tspan></text>
</g>
<g id="e_067_068">
<path id="Union_15" fill-rule="evenodd" clip-rule="evenodd" d="M1322.73 813.096L1322.73 813.08L1320.12 812.84L1321.56 814L1320.41 814.92L1322.53 815.12L1322.53 815.094L1373.97 819.82V817.8L1322.73 813.096Z" fill="black"/>
</g>
<g id="n067_question">
<path id="Vector_10" d="M1240 749L1320 814L1240 879L1160 814L1240 749Z" fill="#CCCCCC" stroke="black" stroke-width="2"/>
<text id="What kind of problem is it?" fill="black" xml:space="preserve" style="white-space: pre" font-family="Liberation Sans" font-size="18" letter-spacing="0em"><tspan x="1189.76" y="809.444">What kind of&#10;</tspan><tspan x="1186.26" y="827.444">problem is it?</tspan></text>
</g>
<g id="e_066_067">
<path id="Union_16" fill-rule="evenodd" clip-rule="evenodd" d="M1166.3 522L1166.8 531.28L1167.6 539.62L1168.67 547.24L1169.95 554.34L1171.45 561L1173.19 567.4L1175.16 573.64L1177.42 579.87L1180.05 586.27L1183.2 593.11L1187.27 601.01L1193.71 612.31L1215.01 648.13L1219.63 657.11L1223.33 665.14L1226.51 672.86L1229.31 680.56L1231.81 688.48L1234.05 696.78L1236.05 705.62L1237.8 715.22L1239.26 725.82L1239.58 729.184L1244.58 728.8L1240 747.7L1232.6 729.72L1237.58 729.338L1237.28 726.04L1235.81 715.54L1234.09 706.04L1232.11 697.26L1229.89 689.06L1227.41 681.22L1224.64 673.59L1221.5 665.95L1217.83 658L1213.26 649.1L1191.98 613.34L1185.51 601.98L1181.41 594L1178.23 587.08L1175.57 580.61L1173.27 574.31L1171.27 567.97L1169.53 561.49L1168 554.74L1166.7 547.57L1165.62 539.87L1164.8 531.44L1164.3 522.09L1164.17 511.85H1166.17L1166.3 522Z" fill="black"/>
</g>
<g id="n066_label">
<text id="that depends&#226;&#128;&#166;" fill="black" xml:space="preserve" style="white-space: pre" font-family="Liberation Sans" font-size="18" letter-spacing="0em"><tspan x="1104.23" y="505.443">that depends&#x2026;</tspan></text>
</g>
<g id="e_021_066">
<path id="Union_17" fill-rule="evenodd" clip-rule="evenodd" d="M1177.77 422.493L1177.8 422.5L1178.24 420.29L1177 421.22L1176.1 420.54L1175.8 422.08L1175.82 422.084L1170.73 447.5L1167.46 468.34L1165.53 485.3L1165.18 490.25H1167.18L1167.52 485.48L1169.44 468.61L1172.7 447.85L1177.77 422.493Z" fill="black"/>
</g>
<g id="n065_quote">
<path id="Vector_11" d="M1540 805C1540 802.24 1542.24 800 1545 800H1691.47L1719.3 778.35L1722.13 800H1813C1815.76 800 1818 802.24 1818 805V860.1C1818 862.85 1815.76 865.1 1813 865.1H1545C1542.24 865.1 1540 862.85 1540 860.1V805Z" fill="white" stroke="black" stroke-width="2"/>
<text id="It&#226;&#128;&#153;s an engineering problem, and it has engineering solutions. &#226;&#128;&#148; Rex Tillerson" fill="black" xml:space="preserve" style="white-space: pre" font-family="Liberation Sans" font-size="18" letter-spacing="0em"><tspan x="1568.49" y="820.24">It&#x2019;s an engineering problem,&#10;</tspan><tspan x="1550.28" y="838.24">and it has engineering solutions.&#10;</tspan><tspan x="1615.94" y="856.24">&#x2014; Rex Tillerson</tspan></text>
</g>
<g id="e_064_065">
<path id="Union_18" fill-rule="evenodd" clip-rule="evenodd" d="M1635.9 783.05L1634.24 784.15L1625.01 770.31H1627.41L1635.9 783.05ZM1630.07 786.94L1645.33 799L1640.07 780.27L1630.07 786.94Z" fill="black"/>
</g>
<g id="n064_label">
<text id="so&#226;&#128;&#166;" fill="black" xml:space="preserve" style="white-space: pre" font-family="Liberation Sans" font-size="18" letter-spacing="0em"><tspan x="1601.32" y="764.443">so&#x2026;</tspan></text>
</g>
<g id="e_055_064">
<path id="Vector_12" d="M1598.95 721.18L1606.09 735.13L1613.77 748.71H1611.47L1604.32 736.09L1597.14 722.07L1592.14 711.19H1594.34L1598.95 721.18Z" fill="black"/>
</g>
<g id="e_063_055">
<path id="Vector_13" d="M1556.45 565.3L1560.25 592.65L1564.62 616.8L1569.47 638.35L1574.7 657.75L1579.28 672.3H1577.18L1572.78 658.32L1567.53 638.82L1562.66 617.2L1558.26 592.96L1554.48 565.54L1554.12 561.79H1556.12L1556.45 565.3Z" fill="black"/>
</g>
<g id="n063_label">
<text id="the lifeblood of" fill="black" xml:space="preserve" style="white-space: pre" font-family="Liberation Sans" font-size="18" letter-spacing="0em"><tspan x="1495.21" y="555.443">the lifeblood of</tspan></text>
</g>
<g id="e_062_063">
<path id="Vector_14" d="M1553.47 534.05L1554.07 540.18H1552.05L1551.48 534.2L1550.41 514.35H1552.41L1553.47 534.05Z" fill="black"/>
</g>
<g id="n062_label">
<text id="carbon" fill="black" xml:space="preserve" style="white-space: pre" font-family="Liberation Sans" font-size="18" letter-spacing="0em"><tspan x="1523.29" y="507.443">carbon</tspan></text>
</g>
<g id="e_061_062">
<path id="Vector_15" d="M1551.47 492.75H1549.47L1549.22 470.45H1551.22L1551.47 492.75Z" fill="black"/>
</g>
<g id="n061_label">
<text id="just one thing" fill="black" xml:space="preserve" style="white-space: pre" font-family="Liberation Sans" font-size="18" letter-spacing="0em"><tspan x="1536.81" y="428.443">just&#10;</tspan><tspan x="1535.8" y="446.443">one&#10;</tspan><tspan x="1531.29" y="464.443">thing</tspan></text>
</g>
<g id="e_042_061">
<path id="Union_19" fill-rule="evenodd" clip-rule="evenodd" d="M1556.83 346.768L1556.86 346.77L1557.02 344.72L1555.92 345.62L1554.95 344.82L1554.81 346.62L1554.84 346.622L1550.56 405.62L1550.3 414.28H1552.3L1552.56 405.72L1556.83 346.768Z" fill="black"/>
</g>
<g id="e_060_044">
<path id="Union_20" fill-rule="evenodd" clip-rule="evenodd" d="M1793.39 359.133L1798.4 359.05L1792.08 340.65L1786.38 359.25L1791.39 359.167L1792.09 402.17H1794.09L1793.39 359.133Z" fill="black"/>
</g>
<g id="n060_label">
<text id="Being, itself" fill="black" xml:space="preserve" style="white-space: pre" font-family="Liberation Sans" font-size="18" letter-spacing="0em"><tspan x="1746.25" y="416.443">Being, itself</tspan></text>
</g>
<g id="e_059_060">
<path id="Vector_16" d="M1794.76 442.88L1794.26 471.4H1792.26L1792.76 442.87L1792.44 423.77H1794.44L1794.76 442.88Z" fill="black"/>
</g>
<g id="n059_label">
<text id="&#226;&#128;&#156;reality&#226;&#128;&#157;" fill="black" xml:space="preserve" style="white-space: pre" font-family="Liberation Sans" font-size="18" letter-spacing="0em"><tspan x="1762.3" y="486.443">&#x201c;reality&#x201d;</tspan></text>
</g>
<g id="e_058_059">
<path id="Vector_17" d="M1791.41 507.85L1789.43 521.55L1787.18 533.52L1785.78 539.59H1783.71L1785.21 533.11L1787.45 521.21L1789.42 507.61L1790.92 493.01H1792.92L1791.41 507.85Z" fill="black"/>
</g>
<g id="n058_label">
<text id="imagination" fill="black" xml:space="preserve" style="white-space: pre" font-family="Liberation Sans" font-size="18" letter-spacing="0em"><tspan x="1736.25" y="554.443">imagination</tspan></text>
</g>
<g id="e_057_058">
<path id="Vector_18" d="M1779.19 562.72L1776.17 570.9L1772.99 578.52L1769.64 585.67L1766.14 592.41L1762.47 598.81L1758.62 604.91L1756.79 607.56H1754.36L1756.96 603.81L1760.76 597.78L1764.39 591.46L1767.85 584.79L1771.15 577.72L1774.3 570.19L1777.3 562.09L1777.6 561.22H1779.7L1779.19 562.72Z" fill="black"/>
</g>
<g id="n057_label">
<text id="character" fill="black" xml:space="preserve" style="white-space: pre" font-family="Liberation Sans" font-size="18" letter-spacing="0em"><tspan x="1709.29" y="622.443">character</tspan></text>
</g>
<g id="e_056_057">
<path id="Vector_19" d="M1736.26 632.07L1731.02 637.01L1725.46 641.85L1719.53 646.55L1713.2 651.18L1711.6 652.24H1708L1712.06 649.54L1718.32 644.97L1724.18 640.31L1729.68 635.54L1734.86 630.64L1736.31 629.16H1739.11L1736.26 632.07Z" fill="black"/>
</g>
<g id="n056_label">
<text id="stories" fill="black" xml:space="preserve" style="white-space: pre" font-family="Liberation Sans" font-size="18" letter-spacing="0em"><tspan x="1665.3" y="667.443">stories</tspan></text>
</g>
<g id="e_055_056">
<path id="Vector_20" d="M1662.92 677.12L1651.52 681.12L1645.4 682.97V680.87L1650.9 679.21L1662.22 675.25L1665.75 673.85H1671.15L1662.92 677.12Z" fill="black"/>
</g>
<g id="n055_label">
<text id="industrial civilization" fill="black" xml:space="preserve" style="white-space: pre" font-family="Liberation Sans" font-size="18" letter-spacing="0em"><tspan x="1569.27" y="689.443">industrial&#10;</tspan><tspan x="1564.27" y="707.443">civilization</tspan></text>
</g>
<g id="e_054_055">
<path id="Vector_21" d="M1546 694.82L1555.8 695.07L1563.65 694.95V696.95L1555.8 697.07L1545.9 696.82L1537.38 696.22V694.22L1546 694.82Z" fill="black"/>
</g>
<g id="n054_label">
<text id="masculinity" fill="black" xml:space="preserve" style="white-space: pre" font-family="Liberation Sans" font-size="18" letter-spacing="0em"><tspan x="1448.28" y="690.443">masculinity</tspan></text>
</g>
<g id="e_053_054">
<path id="Vector_22" d="M1454.54 666.57L1459.8 669.95L1465.3 673.15L1469.7 675.5H1465.44L1464.34 674.9L1458.76 671.66L1453.42 668.23L1450.89 666.45H1454.36L1454.54 666.57Z" fill="black"/>
</g>
<g id="n053_label">
<text id="democracy" fill="black" xml:space="preserve" style="white-space: pre" font-family="Liberation Sans" font-size="18" letter-spacing="0em"><tspan x="1394.29" y="659.443">democracy</tspan></text>
</g>
<g id="e_052_053">
<path id="Vector_23" d="M1412.76 623.47L1416.12 628.59L1419.66 633.51L1423.36 638.25L1427.26 642.8L1429.16 644.85H1426.43L1425.77 644.15L1421.83 639.52L1418.06 634.72L1414.46 629.72L1411.06 624.54L1409.36 621.77H1411.71L1412.76 623.47Z" fill="black"/>
</g>
<g id="n052_label">
<text id="capitalism" fill="black" xml:space="preserve" style="white-space: pre" font-family="Liberation Sans" font-size="18" letter-spacing="0em"><tspan x="1364.28" y="615.443">capitalism</tspan></text>
</g>
<g id="e_051_052">
<path id="Vector_24" d="M1391.13 585.49L1397.11 597.04L1398.91 600.16H1396.61L1395.36 598L1389.33 586.38L1387.61 582.68H1389.81L1391.13 585.49Z" fill="black"/>
</g>
<g id="n051_label">
<text id="race" fill="black" xml:space="preserve" style="white-space: pre" font-family="Liberation Sans" font-size="18" letter-spacing="0em"><tspan x="1366.31" y="575.443">race</tspan></text>
</g>
<g id="e_050_051">
<path id="Vector_25" d="M1374.71 541.75L1376.83 549.45L1379.43 557.52L1380.73 561.07H1378.59L1377.52 558.17L1374.92 550.01L1372.78 542.24L1371.13 535.14H1373.18L1374.71 541.75Z" fill="black"/>
</g>
<g id="n050_label">
<text id="forced migration" fill="black" xml:space="preserve" style="white-space: pre" font-family="Liberation Sans" font-size="18" letter-spacing="0em"><tspan x="1305.25" y="528.443">forced migration</tspan></text>
</g>
<g id="e_049_050">
<path id="Vector_26" d="M1369.71 494.43L1369.55 500.76L1369.65 507.19L1370.03 513.54H1368.03L1367.66 507.27L1367.56 500.77L1367.72 494.34L1367.86 492.2H1369.86L1369.71 494.43Z" fill="black"/>
</g>
<g id="n049_label">
<text id="biodiversity" fill="black" xml:space="preserve" style="white-space: pre" font-family="Liberation Sans" font-size="18" letter-spacing="0em"><tspan x="1325.27" y="485.443">biodiversity</tspan></text>
</g>
<g id="e_048_049">
<path id="Vector_27" d="M1380.82 444.06L1378.37 450.54L1376.27 456.92L1374.47 463.22L1372.97 469.47L1372.77 470.57H1370.73L1371.03 469.04L1372.53 462.7L1374.36 456.32L1376.49 449.86L1378.96 443.3L1379.36 442.36H1381.53L1380.82 444.06Z" fill="black"/>
</g>
<g id="n048_label">
<text id="health" fill="black" xml:space="preserve" style="white-space: pre" font-family="Liberation Sans" font-size="18" letter-spacing="0em"><tspan x="1361.28" y="435.443">health</tspan></text>
</g>
<g id="e_047_048">
<path id="Vector_28" d="M1404.82 401.54L1399.42 409.22L1394.68 416.62L1392.25 420.78H1389.93L1392.97 415.58L1397.75 408.11L1403.19 400.35L1403.99 399.29H1406.52L1404.82 401.54Z" fill="black"/>
</g>
<g id="n047_label">
<text id="water" fill="black" xml:space="preserve" style="white-space: pre" font-family="Liberation Sans" font-size="18" letter-spacing="0em"><tspan x="1391.3" y="392.443">water</tspan></text>
</g>
<g id="e_046_047">
<path id="Vector_29" d="M1435.29 366.89L1426.04 376.25L1424.74 377.68H1422.04L1424.59 374.88L1433.89 365.48L1436.15 363.38H1439.08L1435.29 366.89Z" fill="black"/>
</g>
<g id="n046_label">
<text id="food" fill="black" xml:space="preserve" style="white-space: pre" font-family="Liberation Sans" font-size="18" letter-spacing="0em"><tspan x="1432.29" y="356.443">food</tspan></text>
</g>
<g id="e_042_046">
<path id="Union_21" fill-rule="evenodd" clip-rule="evenodd" d="M1509.69 309.78L1510.86 309L1509.18 307.65L1508.62 308.031L1508.62 308.03L1489 320.91L1471.78 333.31L1461 341.77H1464.22L1472.97 334.9L1490.12 322.57L1509.65 309.717L1509.69 309.78Z" fill="black"/>
</g>
<g id="e_045_052">
<path id="Union_22" fill-rule="evenodd" clip-rule="evenodd" d="M1220.9 549.451L1220.9 549.45L1219.95 549.08L1219.21 550.94L1220.16 551.31L1220.16 551.308L1342.32 599.18L1343.05 597.32L1220.9 549.451ZM1340.5 603.85L1359.9 605L1344.88 592.65L1340.5 603.85Z" fill="black"/>
</g>
<g id="e_045_051">
<path id="Union_23" fill-rule="evenodd" clip-rule="evenodd" d="M1222.34 548.604L1222.34 548.6L1221.32 548.44L1221.02 550.42L1222.04 550.58L1222.04 550.577L1341.47 569.149L1340.7 574.1L1359.9 571L1342.55 562.22L1341.78 567.17L1222.34 548.604Z" fill="black"/>
</g>
<g id="e_045_050">
<path id="Union_24" fill-rule="evenodd" clip-rule="evenodd" d="M1281.08 538.6L1298 529L1278.68 526.82L1279.9 532.824L1279.66 531.74L1267.5 534.41L1248.64 539.39L1231.62 544.66L1216.1 550.19L1201.82 555.97L1188.58 561.97L1176.2 568.21L1164.55 574.74L1153.5 581.54L1142.95 588.64L1132.82 596.12L1123 604L1113.43 612.42L1104.06 621.36L1094.78 630.98L1085.53 641.41L1076.2 652.84L1066.7 665.56L1056.88 679.93L1046.51 696.55L1037.54 712.37H1039.84L1048.24 697.57L1058.54 681.02L1068.34 666.72L1077.79 654.07L1087.07 642.7L1096.27 632.33L1105.47 622.77L1114.79 613.89L1124.29 605.57L1134.03 597.73L1144.09 590.3L1154.59 583.22L1165.55 576.46L1177.15 569.99L1189.45 563.77L1202.6 557.81L1216.8 552.07L1232.24 546.57L1249.19 541.32L1267.97 536.37L1280.08 533.704L1281.08 538.6Z" fill="black"/>
</g>
<g id="n045_label">
<text id="it&#226;&#128;&#153;s complicated&#226;&#128;&#166;" fill="black" xml:space="preserve" style="white-space: pre" font-family="Liberation Sans" font-size="18" letter-spacing="0em"><tspan x="1023.48" y="727.443">it&#x2019;s&#10;</tspan><tspan x="977.269" y="745.443">complicated&#x2026;</tspan></text>
</g>
<g id="e_034_045">
<path id="Vector_30" d="M1008.17 777.2L978.39 850.45L976.52 849.7L1006.32 776.42L1017.92 751.22H1020.12L1008.17 777.2Z" fill="black"/>
</g>
<g id="n044_thought">
<path id="Vector_31" d="M1719.9 304C1706.65 304 1695.9 293.25 1695.9 280C1695.9 269.4 1702.4 260.45 1712.5 257.18C1711.9 226 1751.9 220 1767.9 232C1775.9 214 1815.9 220 1815.9 238C1839.9 232 1863.9 256 1847.9 286C1863.9 310 1847.9 340 1815.9 328C1807.9 343.6 1775.9 343.6 1767.9 328C1751.9 340 1719.9 334 1719.9 304Z" fill="white" stroke="black" stroke-width="2"/>
<text id="Our ecological crisis is a crisis of everything else." fill="black" xml:space="preserve" style="white-space: pre" font-family="Liberation Sans" font-size="18" letter-spacing="0em"><tspan x="1718.75" y="264.444">Our ecological&#10;</tspan><tspan x="1706.27" y="282.444">crisis is a crisis of&#10;</tspan><tspan x="1713.24" y="300.444">everything else.</tspan></text>
</g>
<g id="e_042_044">
<path id="Union_25" fill-rule="evenodd" clip-rule="evenodd" d="M1677.47 283.98L1691.74 279.35L1677.47 274.71V283.98ZM1638.5 280.35H1636.27L1637.49 279.35L1636.26 278.35H1638.5H1638.51H1676.47V280.35H1638.52H1638.5Z" fill="black"/>
</g>
<g id="e_043_042">
<path id="Union_26" fill-rule="evenodd" clip-rule="evenodd" d="M1639.2 220.53L1636.7 225.7L1633.1 231.6L1627.94 238.5L1622.96 244L1622.33 243.423L1626.36 247.68L1608.79 256.03L1618.09 238.95L1621.54 242.588L1626.38 237.25L1631.44 230.49L1634.94 224.73L1637.37 219.73L1637.89 218.36H1640.02L1639.2 220.53Z" fill="black"/>
</g>
<g id="n043_label">
<text id="I try not to think about it_2" fill="black" xml:space="preserve" style="white-space: pre" font-family="Liberation Sans" font-size="18" letter-spacing="0em"><tspan x="1601.27" y="194.444">I try not to&#10;</tspan><tspan x="1590.24" y="212.444">think about it</tspan></text>
</g>
<g id="e_042_043">
<path id="Union_27" fill-rule="evenodd" clip-rule="evenodd" d="M1599.38 164L1604.76 164.72L1610.11 165.95L1615.21 167.65L1619.95 169.73L1624.21 172.1L1627.95 174.68L1631.17 177.38L1633.25 179.48H1630.45L1629.81 178.85L1626.73 176.27L1623.15 173.8L1619.05 171.52L1614.5 169.52L1609.55 167.88L1604.39 166.68L1599.19 166.01L1594.14 165.83L1589.39 166.1L1585.02 166.76L1581.06 167.76L1577.49 169.03L1574.31 170.51L1571.46 172.19L1568.92 174.02L1566.64 176.02L1564.59 178.2L1562.76 180.54L1561.13 183.1L1559.7 185.9L1558.47 189.03L1557.47 192.53L1556.7 196.51L1556.27 201.11V206.49L1556.8 211.913L1556.83 211.91L1557.03 214L1555.91 213.1L1554.97 213.87L1554.8 212.11L1554.82 212.108L1554.29 206.59V200.99L1554.73 196.23L1555.53 192.07L1556.59 188.39L1557.89 185.09L1559.42 182.12L1561.16 179.39L1563.1 176.89L1565.28 174.59L1567.7 172.47L1570.4 170.52L1573.4 168.76L1576.76 167.19L1580.5 165.86L1584.65 164.82L1589.21 164.12L1594.14 163.84L1599.38 164Z" fill="black"/>
</g>
<g id="n042_question">
<path id="Vector_32" d="M1555.9 214.35L1635.9 279.35L1555.9 344.35L1475.9 279.35L1555.9 214.35Z" fill="#CCCCCC" stroke="black" stroke-width="2"/>
<text id="What are we in a crisis of?" fill="black" xml:space="preserve" style="white-space: pre" font-family="Liberation Sans" font-size="18" letter-spacing="0em"><tspan x="1505.26" y="275.444">What are we&#10;</tspan><tspan x="1503.26" y="293.444">in a crisis of?</tspan></text>
</g>
<g id="e_041_042">
<path id="Union_28" fill-rule="evenodd" clip-rule="evenodd" d="M1458.12 287.354L1459.85 292.05L1475.11 280L1455.69 280.77L1457.42 285.472L1399.83 306.75V308.89L1458.12 287.354Z" fill="black"/>
</g>
<g id="n041_label">
<text id="that depends&#226;&#128;&#166;_2" fill="black" xml:space="preserve" style="white-space: pre" font-family="Liberation Sans" font-size="18" letter-spacing="0em"><tspan x="1347.8" y="319.444">that&#10;</tspan><tspan x="1319.27" y="337.444">depends&#x2026;</tspan></text>
</g>
<g id="e_021_041">
<path id="Union_29" fill-rule="evenodd" clip-rule="evenodd" d="M1259.99 360.584L1310.83 341.8V339.65L1259.3 358.681L1259.3 358.68L1257.66 359.28L1258.63 360L1256.06 362.05L1260 360.6L1259.99 360.584Z" fill="black"/>
</g>
<g id="e_040_021">
<path id="Union_30" fill-rule="evenodd" clip-rule="evenodd" d="M1258.6 302.4L1255.84 307.8L1251.8 314.1L1245.88 321.6L1242.41 325.18L1241.87 324.655L1245.84 328.85L1228.27 337.2L1237.57 320.12L1241.02 323.76L1244.38 320.27L1250.18 312.93L1254.12 306.8L1256.8 301.57L1257.27 300.39H1259.42L1258.6 302.4Z" fill="black"/>
</g>
<g id="n040_label">
<text id="I try not to think about it_3" fill="black" xml:space="preserve" style="white-space: pre" font-family="Liberation Sans" font-size="18" letter-spacing="0em"><tspan x="1221.27" y="276.444">I try not to&#10;</tspan><tspan x="1210.24" y="294.444">think about it</tspan></text>
</g>
<g id="e_021_040">
<path id="Union_31" fill-rule="evenodd" clip-rule="evenodd" d="M1224.97 248.56L1230.33 249.59L1235.43 251.09L1240.13 252.99L1244.33 255.19L1248.03 257.57L1251.17 260.11L1252.59 261.51H1249.69L1246.83 259.21L1243.33 256.91L1239.29 254.81L1234.77 252.97L1229.85 251.52L1224.68 250.52L1219.44 250.05L1214.36 250.08L1209.56 250.58L1205.13 251.48L1201.13 252.7L1197.53 254.2L1194.3 255.93L1191.43 257.86L1188.87 259.96L1186.57 262.26L1184.53 264.74L1182.73 267.44L1181.13 270.4L1179.78 273.67L1178.68 277.32L1177.83 281.47L1177.35 286.27L1177.33 291.87L1177.88 297.604L1177.92 297.6L1178.1 299.6L1177 298.78L1176.04 299.5L1175.88 297.83L1175.88 297.83L1175.33 291.96L1175.35 286.14L1175.85 281.17L1176.73 276.83L1177.9 272.98L1179.34 269.54L1181.02 266.41L1182.92 263.54L1185.09 260.91L1187.53 258.48L1190.23 256.25L1193.28 254.22L1196.66 252.39L1200.44 250.83L1204.64 249.53L1209.24 248.6L1214.24 248.1L1219.54 248.06L1224.97 248.56Z" fill="black"/>
</g>
<g id="e_039_021">
<path id="Union_32" fill-rule="evenodd" clip-rule="evenodd" d="M1126.46 406.314L1129.85 410L1139.4 393.05L1121.7 401.15L1125.63 405.421L1125.07 404.87L1118.33 411.61L1108.08 422.76L1103.38 428.36H1105.98L1109.6 424.08L1119.77 413L1126.46 406.314Z" fill="black"/>
</g>
<g id="n039_label">
<text id="so&#226;&#128;&#166;_2" fill="black" xml:space="preserve" style="white-space: pre" font-family="Liberation Sans" font-size="18" letter-spacing="0em"><tspan x="1077.32" y="442.443">so&#x2026;</tspan></text>
</g>
<g id="e_038_039">
<path id="Vector_33" d="M1085 454.6L1070.4 475.17L1054.4 499.87L1037.34 528.75L1034.26 534.51H1032L1035.6 527.78L1052.7 498.83L1068.76 474.06L1083.4 453.43L1086.07 449.97H1088.6L1085 454.6Z" fill="black"/>
</g>
<g id="n038_label">
<text id="same storm; different boats" fill="black" xml:space="preserve" style="white-space: pre" font-family="Liberation Sans" font-size="18" letter-spacing="0em"><tspan x="973.292" y="549.443">same storm;&#10;</tspan><tspan x="965.9" y="567.443">different boats</tspan></text>
</g>
<g id="e_037_038">
<path id="Vector_34" d="M1003.2 595.88L988.03 630.94L975.13 664.56L964.73 695.38L956.78 722.74L950.93 746.52L947.53 763.38H945.49L948.97 746.08L954.84 722.22L962.82 694.78L973.22 663.88L986.17 630.18L1001.37 595.04L1011.84 573.39H1014.06L1003.2 595.88Z" fill="black"/>
</g>
<g id="n037_label">
<text id="sorta&#226;&#128;&#166;" fill="black" xml:space="preserve" style="white-space: pre" font-family="Liberation Sans" font-size="18" letter-spacing="0em"><tspan x="916.306" y="778.443">sorta&#x2026;</tspan></text>
</g>
<g id="e_034_037">
<path id="Union_33" fill-rule="evenodd" clip-rule="evenodd" d="M942.3 799.35L941.35 812.15L941.032 822.169L941.06 822.17L941 823.97L940 823.23L938.95 824.01L939.01 822.11L939.032 822.11L939.35 812.06L940.3 799.16L941.95 784.98H943.97L942.3 799.35Z" fill="black"/>
</g>
<g id="e_036_034">
<path id="Union_34" fill-rule="evenodd" clip-rule="evenodd" d="M840.79 892.85L858.33 884.45L839.19 880.93L839.939 886.513L839.76 885.92L837.9 886.48L835.7 887.25L833.6 888.1L831.54 889L829.54 890L827.61 891.06L825.71 892.2L823.85 893.44L822.02 894.77L820.22 896.19L818.44 897.72L816.68 899.38L814.92 901.16L813.18 903.08L811.45 905.18L809.71 907.48L807.97 909.98L806.24 912.71L804.5 915.73L802.75 919.09L801 922.83L799.23 927.03L797.46 931.8L795.71 937.23L795.66 937.43H797.76L799.36 932.45L801.1 927.77L802.84 923.64L804.57 919.98L806.27 916.7L807.97 913.75L809.65 911.09L811.35 908.67L813.02 906.45L814.68 904.42L816.38 902.55L818.08 900.83L819.78 899.23L821.48 897.75L823.21 896.37L824.96 895.1L826.76 893.9L828.6 892.8L830.47 891.77L832.39 890.82L834.37 889.92L836.41 889.12L838.54 888.38L840.126 887.904L840.79 892.85Z" fill="black"/>
</g>
<g id="n036_label">
<text id="nothin&#226;&#128;&#153; about us, without us!" fill="black" xml:space="preserve" style="white-space: pre" font-family="Liberation Sans" font-size="18" letter-spacing="0em"><tspan x="763.775" y="952.443">nothin&#x2019;&#10;</tspan><tspan x="753.264" y="970.443">about us,&#10;</tspan><tspan x="747.261" y="988.443">without us!</tspan></text>
</g>
<g id="e_026_036">
<path id="Union_35" fill-rule="evenodd" clip-rule="evenodd" d="M785.801 1035.37L785.77 1035.37L785.75 1036.47H787.8L787.82 1035.4L787.801 1035.4L788.37 1002.9L788.94 993.59H786.94L786.37 1002.83L785.801 1035.37Z" fill="black"/>
</g>
<g id="e_035_026">
<path id="Union_36" fill-rule="evenodd" clip-rule="evenodd" d="M941 1070.33H905.84V1075.35L887.34 1069.33L905.84 1063.33V1068.33H939V1016.13H941V1070.33Z" fill="black"/>
</g>
<g id="n035_label">
<text id="NOT!" fill="black" xml:space="preserve" style="white-space: pre" font-family="Liberation Sans" font-size="18" letter-spacing="0em"><tspan x="919.312" y="1009.44">NOT!</tspan></text>
</g>
<g id="e_034_035">
<path id="Union_37" fill-rule="evenodd" clip-rule="evenodd" d="M941 946.75H941.02L941.04 944.89L940.02 945.65L939 944.89V944.95V946.7V946.72V946.75V994.53H941V946.75Z" fill="black"/>
</g>
<g id="n034_question">
<path id="Vector_35" d="M940 824.45L1020 884.45L940 944.45L860 884.45L940 824.45Z" fill="#CCCCCC" stroke="black" stroke-width="2"/>
<text id="So&#226;&#128;&#166; we&#226;&#128;&#153;re all in this together?" fill="black" xml:space="preserve" style="white-space: pre" font-family="Liberation Sans" font-size="18" letter-spacing="0em"><tspan x="919.814" y="861.443">So&#x2026;&#10;</tspan><tspan x="897.262" y="879.443">we&#x2019;re all in&#10;</tspan><tspan x="885.238" y="897.443">this together?</tspan></text>
</g>
<g id="e_032_034">
<path id="Union_38" fill-rule="evenodd" clip-rule="evenodd" d="M991.865 929.768L997.08 926.7L982.51 913.8L986.71 932.8L991.037 930.254L992.49 933.13L995.22 939.17L997.87 945.74L1000.41 952.92L1002.85 960.8L1005.15 969.5L1007.25 979.15L1009.15 989.91L1010.75 1001.97L1011.98 1015.57L1012.73 1030.99L1012.83 1048.59L1012.1 1068.76L1010.3 1091.98L1007.1 1118.72L1002.1 1149.36L994.97 1183.99L985.52 1221.81L974.16 1260.37L962.33 1295.17L952.525 1320.51L952.52 1320.51L952.2 1321.31L953.97 1322.44L954.43 1321.24L954.399 1321.23L964.22 1295.85L976.06 1260.99L987.46 1222.34L996.93 1184.42L1004.08 1149.72L1009.08 1118.99L1012.3 1092.19L1014.12 1068.89L1014.82 1048.64L1014.72 1030.94L1013.97 1015.44L1012.74 1001.76L1011.12 989.6L1009.22 978.76L1007.1 969.03L1004.78 960.25L1002.31 952.29L999.73 945.03L997.05 938.38L994.27 932.26L992.79 929.3L991.865 929.768Z" fill="black"/>
</g>
<g id="e_033_032">
<path id="Union_39" fill-rule="evenodd" clip-rule="evenodd" d="M802.26 1299.5L801.46 1300.9L800.72 1302.3L800.1 1303.72L799.55 1305.12L799.09 1306.52L798.69 1307.96L798.37 1309.41L798.12 1310.89L797.95 1312.41L797.85 1313.97V1315.57L797.9 1317.27L798.08 1319.02L798.34 1320.88L798.74 1322.83L799.26 1324.93L799.94 1327.15L800.82 1329.55L801.92 1332.17L803.32 1335.02L805.06 1338.17L807.24 1341.67L809.98 1345.63L813.45 1350.13L817.88 1355.28L823.61 1361.28L825.855 1363.4L829.2 1359.65L839 1376.44L821.2 1368.61L824.552 1364.86L824.52 1364.89L822.22 1362.69L816.42 1356.62L811.92 1351.38L808.39 1346.81L805.59 1342.77L803.35 1339.17L801.55 1335.92L800.13 1332.98L798.99 1330.28L798.09 1327.78L797.36 1325.45L796.81 1323.27L796.41 1321.21L796.11 1319.25L795.95 1317.39L795.88 1315.61V1313.91L796 1312.23L796.18 1310.63L796.44 1309.03L796.79 1307.49L797.21 1305.96L797.71 1304.46L798.29 1302.96L798.96 1301.46L799.73 1299.96L800.4 1298.78H802.76L802.26 1299.5Z" fill="black"/>
</g>
<g id="n033_label">
<text id="while trying not to virtue signal too hard about it" fill="black" xml:space="preserve" style="white-space: pre" font-family="Liberation Sans" font-size="18" letter-spacing="0em"><tspan x="799.236" y="1256.44">while trying not&#10;</tspan><tspan x="801.24" y="1274.44">to virtue signal&#10;</tspan><tspan x="794.209" y="1292.44">too hard about it</tspan></text>
</g>
<g id="e_032_033">
<path id="Union_40" fill-rule="evenodd" clip-rule="evenodd" d="M924.64 1274.78L927.69 1276.04L930.26 1277.27L932.46 1278.47L934.36 1279.61L935.96 1280.73L937.36 1281.79L938.59 1282.82L939.66 1283.82L940.59 1284.8L941.41 1285.74L942.13 1286.66L942.76 1287.56L943.32 1288.46L943.82 1289.32L944.22 1290.19L944.62 1291.06L944.92 1291.92L945.2 1292.79L945.43 1293.66L945.61 1294.54L945.76 1295.44L945.86 1296.34L945.89 1297.29V1298.25L945.83 1299.25L945.73 1300.27L945.53 1301.35L945.3 1302.48L944.97 1303.68L944.57 1304.93L944.05 1306.29L943.41 1307.74L942.61 1309.32L941.64 1311.04L940.42 1312.94L938.92 1315.04L937.68 1316.59L937.664 1316.58L937.5 1316.79L934.97 1316.67L936.11 1315.24L936.164 1315.28L937.32 1313.82L938.78 1311.82L939.94 1310L940.87 1308.38L941.62 1306.9L942.22 1305.54L942.7 1304.28L943.08 1303.12L943.38 1302.02L943.58 1301L943.75 1300.03L943.85 1299.09L943.9 1298.19V1297.34L943.86 1296.52L943.78 1295.72L943.66 1294.92L943.5 1294.12L943.3 1293.36L943.06 1292.59L942.78 1291.82L942.45 1291.05L942.07 1290.28L941.63 1289.5L941.13 1288.7L940.56 1287.88L939.9 1287.04L939.15 1286.16L938.29 1285.26L937.29 1284.36L936.16 1283.38L934.84 1282.38L933.31 1281.33L931.51 1280.23L929.41 1279.09L926.91 1277.89L924.01 1276.69V1274.57L924.64 1274.78Z" fill="black"/>
</g>
<g id="n032_thought">
<path id="Vector_36" d="M864 1400.44C850.75 1400.44 840 1389.7 840 1376.44C840 1365.84 846.5 1356.9 856.58 1353.62C856 1322.45 896 1316.45 912 1328.45C920 1310.45 960 1316.45 960 1334.45C984 1328.45 1008 1352.45 992 1382.45C1008 1406.45 992 1436.45 960 1424.45C952 1440.05 920 1440.05 912 1424.45C896 1436.45 864 1430.45 864 1400.45V1400.44Z" fill="white" stroke="black" stroke-width="2"/>
<text id="Leverage your privilege." fill="black" xml:space="preserve" style="white-space: pre" font-family="Liberation Sans" font-size="18" letter-spacing="0em"><tspan x="882.771" y="1370.44">Leverage&#10;</tspan><tspan x="864.253" y="1388.44">your privilege.</tspan></text>
</g>
<g id="e_031_032">
<path id="Union_41" fill-rule="evenodd" clip-rule="evenodd" d="M907.088 1445.68L912.65 1447.72L913.39 1428.28L901.37 1443.58L906.058 1445.3L905.33 1447.07L902.23 1453.89L899.03 1460.19L895.73 1466.04L892.36 1471.48L888.9 1476.56L885.4 1481.31L881.8 1485.75L878.12 1489.95L874.38 1493.85L870.54 1497.55L869.26 1498.67H872.26L875.79 1495.27L879.61 1491.29L883.34 1487.04L886.99 1482.54L890.56 1477.71L894.06 1472.56L897.46 1467.04L900.79 1461.12L904.03 1454.74L907.19 1447.86L907.94 1446.02L907.088 1445.68Z" fill="black"/>
</g>
<g id="n031_label">
<text id="what can I do?" fill="black" xml:space="preserve" style="white-space: pre" font-family="Liberation Sans" font-size="18" letter-spacing="0em"><tspan x="798.23" y="1513.44">what can I do?</tspan></text>
</g>
<g id="e_030_031">
<path id="Vector_37" d="M836.7 1521.9L831.65 1523.96L826.42 1525.86L821 1527.56L815.36 1529.06L809.49 1530.39L803.36 1531.49L796.98 1532.36L790.31 1532.99L783.36 1533.36L776.09 1533.44L768.51 1533.21L760.58 1532.63L752.31 1531.68L743.71 1530.31L736.01 1528.77V1526.72L744.06 1528.32L752.58 1529.68L760.76 1530.63L768.6 1531.2L776.1 1531.43L783.3 1531.35L790.17 1530.99L796.73 1530.37L803.03 1529.5L809.06 1528.42L814.84 1527.12L820.39 1525.62L825.74 1523.96L830.89 1522.1L835.39 1520.26H840.24L836.7 1521.9Z" fill="black"/>
</g>
<g id="n030_label">
<text id="shit!" fill="black" xml:space="preserve" style="white-space: pre" font-family="Liberation Sans" font-size="18" letter-spacing="0em"><tspan x="703.304" y="1527.44">shit!</tspan></text>
</g>
<g id="e_028_030">
<path id="Vector_38" d="M648.57 1488.54L657.91 1494.6L667.55 1500.3L677.38 1505.54L687.28 1510.34L697.2 1514.61L703.1 1516.88V1519.02L696.43 1516.48L686.45 1512.18L676.45 1507.35L666.55 1502.05L656.85 1496.32L647.45 1490.22L639.75 1484.76H643.21L648.57 1488.54Z" fill="black"/>
</g>
<g id="e_029_028">
<path id="Union_42" fill-rule="evenodd" clip-rule="evenodd" d="M671.2 1367.63L675.93 1368.05L680.58 1368.69L685.01 1369.53L689.14 1370.53L692.84 1371.61L696.1 1372.75L697.1 1373.15H690.98L688.61 1372.45L684.61 1371.48L680.26 1370.65L675.72 1370.02L671.1 1369.62L666.5 1369.42L662.05 1369.47L657.79 1369.71L653.77 1370.15L650.02 1370.75L646.52 1371.49L643.29 1372.34L640.29 1373.29L637.54 1374.32L634.98 1375.42L632.61 1376.58L630.41 1377.81L628.36 1379.07L626.46 1380.37L624.69 1381.73L623.03 1383.13L621.48 1384.59L620.02 1386.09L618.67 1387.66L617.39 1389.26L616.19 1390.96L615.06 1392.7L614.01 1394.54L613.01 1396.47L612.11 1398.51L611.26 1400.66L610.5 1402.93L609.8 1405.37L609.22 1407.99L608.72 1410.79L608.34 1413.84L608.09 1417.14L607.99 1420.79L608.09 1424.79L608.334 1428.17L613.27 1427.32L610.54 1446.34H610.39L601.42 1429.37L607.493 1428.32L606.34 1428.4L606.09 1424.88L605.99 1420.78L606.09 1417.04L606.34 1413.64L606.74 1410.49L607.24 1407.59L607.86 1404.87L608.56 1402.35L609.36 1399.98L610.24 1397.75L611.19 1395.62L612.22 1393.62L613.32 1391.68L614.5 1389.84L615.77 1388.08L617.11 1386.38L618.55 1384.75L620.08 1383.18L621.7 1381.66L623.42 1380.19L625.27 1378.79L627.27 1377.41L629.37 1376.09L631.67 1374.83L634.12 1373.63L636.77 1372.49L639.63 1371.42L642.71 1370.44L646.05 1369.57L649.65 1368.81L653.49 1368.19L657.61 1367.74L661.97 1367.48L666.53 1367.42L671.2 1367.63Z" fill="black"/>
</g>
<g id="n029_label">
<text id="it&#226;&#128;&#153;s complicated&#226;&#128;&#166;_2" fill="black" xml:space="preserve" style="white-space: pre" font-family="Liberation Sans" font-size="18" letter-spacing="0em"><tspan x="704.481" y="1387.44">it&#x2019;s&#10;</tspan><tspan x="658.269" y="1405.44">complicated&#x2026;</tspan></text>
</g>
<g id="e_028_029">
<path id="Vector_39" d="M719.1 1414.4L718.84 1418.33L718.36 1422.13L717.68 1425.78L716.81 1429.25L715.77 1432.55L714.57 1435.65L713.23 1438.58L711.75 1441.36L710.15 1443.96L708.4 1446.46L706.52 1448.79L704.52 1450.99L702.37 1453.09L700.07 1455.09L697.61 1456.99L694.97 1458.77L692.1 1460.45L689 1462.02L685.6 1463.49L681.9 1464.83L677.84 1466.03L673.32 1467.07L671.67 1467.37L671.32 1465.4L672.92 1465.12L677.32 1464.12L681.29 1462.94L684.86 1461.64L688.13 1460.22L691.13 1458.7L693.88 1457.08L696.42 1455.38L698.79 1453.55L700.99 1451.65L703.06 1449.62L704.98 1447.5L706.78 1445.25L708.44 1442.87L709.98 1440.37L711.4 1437.7L712.7 1434.87L713.85 1431.87L714.85 1428.7L715.7 1425.35L716.37 1421.83L716.82 1418.13L717.06 1414.33V1412.03H719.06L719.1 1414.4Z" fill="black"/>
</g>
<g id="n028_label">
<text id="&#226;&#128;&#166;or possibly a bit racist?" fill="black" xml:space="preserve" style="white-space: pre" font-family="Liberation Sans" font-size="18" letter-spacing="0em"><tspan x="565.278" y="1460.44">&#x2026;or possibly&#10;</tspan><tspan x="571.264" y="1478.44">a bit racist?</tspan></text>
</g>
<g id="e_027_028">
<path id="Union_43" fill-rule="evenodd" clip-rule="evenodd" d="M561.02 1357.38L560 1357.42L558.96 1357.37L559.06 1358.57L559.094 1358.57L559.37 1362.27L559.93 1367.13L560.71 1372.1L561.74 1377.17L563.02 1382.37L564.58 1387.7L566.43 1393.2L568.6 1398.83L571.1 1404.61L573.98 1410.57L577.28 1416.67L581 1422.97L585.2 1429.42L589.9 1436.02L595.13 1442.74L598.18 1446.34H600.8L596.7 1441.5L591.5 1434.83L586.85 1428.31L582.71 1421.91L579.01 1415.71L575.76 1409.67L572.91 1403.77L570.44 1398.07L568.29 1392.51L566.49 1387.11L564.96 1381.86L563.68 1376.74L562.68 1371.74L561.9 1366.86L561.34 1362.08L561.093 1358.42L561.1 1358.42L561.02 1357.38Z" fill="black"/>
</g>
<g id="n027_statement">
<path id="Vector_40" d="M620 1296.44C620 1329.58 593.14 1356.44 560 1356.44C526.86 1356.44 500 1329.58 500 1296.44C500 1263.31 526.86 1236.44 560 1236.44C593.14 1236.44 620 1263.31 620 1296.44Z" fill="white" stroke="black" stroke-width="2"/>
<text id="You may be in emotional denial&#226;&#128;&#166;" fill="black" xml:space="preserve" style="white-space: pre" font-family="Liberation Sans" font-size="18" letter-spacing="0em"><tspan x="512.595" y="1285.44">You may be&#10;</tspan><tspan x="511.25" y="1303.44">in emotional&#10;</tspan><tspan x="526.78" y="1321.44">denial&#x2026;</tspan></text>
</g>
<g id="e_024_027">
<path id="Union_44" fill-rule="evenodd" clip-rule="evenodd" d="M519.1 1023.74L514.48 1051.1L511.75 1072.7L510.21 1091.16L509.55 1107.59V1122.63L510.15 1136.67L511.28 1150L512.91 1162.8L515.01 1175.2L517.61 1187.35L520.71 1199.35L524.33 1211.3L528.51 1223.28L528.599 1223.47L533.22 1221.59L534.64 1241L522.09 1226.13L526.922 1224.16L526.74 1224.23L526.64 1223.98L522.42 1211.92L518.79 1199.89L515.69 1187.79L513.06 1175.57L510.94 1163.07L509.3 1150.21L508.17 1136.81L507.57 1122.67V1107.54L508.24 1091.02L509.78 1072.49L512.52 1050.79L517.17 1023.33L519.72 1012.46H521.77L519.1 1023.74Z" fill="black"/>
</g>
<g id="n026_definition">
<path id="Vector_41" d="M640 1036H936V1201H640V1036Z" fill="white"/>
<path id="Vector_42" d="M669.4 1036.44H640V1200.71H669.4" stroke="black" stroke-width="2"/>
<text id="Frontline&#194;&#160;communities experience &#226;&#128;&#156;first and worst&#226;&#128;&#157; the consequences of climate change. We&#226;&#128;&#153;re disproportionately low-income, of color, Indigenous, from the Global South, or labor in toxic conditions." fill="black" xml:space="preserve" style="white-space: pre" font-family="Liberation Sans" font-size="18" letter-spacing="0em"><tspan x="657" y="1069.24">Frontline&#xa0;communities&#10;</tspan><tspan x="657" y="1087.24">experience &#x201c;first and worst&#x201d;&#10;</tspan><tspan x="657" y="1105.24">the consequences of climate&#10;</tspan><tspan x="657" y="1123.24">change. We&#x2019;re disproportionately&#10;</tspan><tspan x="657" y="1141.24">low-income, of color, Indigenous,&#10;</tspan><tspan x="657" y="1159.24">from the Global South, or labor&#10;</tspan><tspan x="657" y="1177.24">in toxic conditions.</tspan></text>
</g>
<g id="e_017_026">
<path id="Union_45" fill-rule="evenodd" clip-rule="evenodd" d="M758.397 726.6L758.4 726.6L758.48 725.22L756.4 725.7L756.36 726.5L756.387 726.501L756.19 730.02L755.49 737.52L753.49 751.9L745.17 797L719.16 932.13L714.86 963.27L713.06 982.39L712.38 995.37L712.28 1004.73L712.5 1011.73L712.9 1017.17L713.1 1018.67L713.277 1018.65L708.22 1019.86L718.4 1036.44L719.92 1017.06L715.055 1018.22L714.91 1016.97L714.51 1011.62L714.28 1004.69L714.38 995.42L715.05 982.52L716.85 963.48L721.12 932.44L747.15 797.38L755.48 752.21L757.48 737.75L758.2 730.17L758.397 726.6Z" fill="black"/>
</g>
<g id="e_025_026">
<path id="Union_46" fill-rule="evenodd" clip-rule="evenodd" d="M601 1117.58H620.5V1112.58L639 1118.58L620.5 1124.58V1119.58H599V1069.58H601V1117.58Z" fill="black"/>
</g>
<g id="n025_label">
<text id="who?!" fill="black" xml:space="preserve" style="white-space: pre" font-family="Liberation Sans" font-size="18" letter-spacing="0em"><tspan x="575.289" y="1063.44">who?!</tspan></text>
</g>
<g id="e_024_025">
<path id="Vector_43" d="M601 1047.98H599V981H581V979H601V1047.98Z" fill="black"/>
</g>
<g id="n024_label">
<text id="the apocalypse is going to happen to someone else" fill="black" xml:space="preserve" style="white-space: pre" font-family="Liberation Sans" font-size="18" letter-spacing="0em"><tspan x="520.303" y="917.443">the&#10;</tspan><tspan x="487.265" y="935.443">apocalypse&#10;</tspan><tspan x="491.756" y="953.443">is going to&#10;</tspan><tspan x="492.749" y="971.443">happen to&#10;</tspan><tspan x="495.781" y="989.443">someone&#10;</tspan><tspan x="516.304" y="1007.44">else</tspan></text>
</g>
<g id="e_023_024">
<path id="Vector_44" d="M568.1 800.34L562.18 835.34L551.25 886.44L547.03 904.47H544.98L549.3 886L560.2 834.97L566.1 800.04L566.98 793.21H568.98L568.1 800.34Z" fill="black"/>
</g>
<g id="n023_label">
<text id="because&#226;&#128;&#166;_2" fill="black" xml:space="preserve" style="white-space: pre" font-family="Liberation Sans" font-size="18" letter-spacing="0em"><tspan x="526.278" y="786.443">because&#x2026;</tspan></text>
</g>
<g id="e_016_023">
<path id="Union_47" fill-rule="evenodd" clip-rule="evenodd" d="M574.99 720.94L575.04 719.84L572.98 719.8L572.93 720.86L572.967 720.861L572 744.39L569.8 770.73L569.7 771.6H571.7L571.8 770.93L574 744.49L574.968 720.939L574.99 720.94Z" fill="black"/>
</g>
<g id="e_022_017">
<path id="Union_48" fill-rule="evenodd" clip-rule="evenodd" d="M888.6 622.5L888.5 624.73L888.2 626.99L887.7 629.29L887 631.66L886.07 634.13L884.87 636.7L883.31 639.43L881.36 642.33L878.86 645.46L875.71 648.86L871.71 652.54L871.148 651.924L874.5 656.72L855.88 662.38L867.61 646.86L870.48 650.968L874.3 647.45L877.34 644.15L879.74 641.15L881.61 638.38L883.09 635.78L884.24 633.35L885.12 631.05L885.78 628.81L886.24 626.67L886.52 624.57L886.62 622.47V622.37H888.62L888.6 622.5Z" fill="black"/>
</g>
<g id="n022_label">
<text id="I can&#226;&#128;&#153;t help but think about it" fill="black" xml:space="preserve" style="white-space: pre" font-family="Liberation Sans" font-size="18" letter-spacing="0em"><tspan x="822.222" y="598.444">I can&#x2019;t help but&#10;</tspan><tspan x="829.736" y="616.444">think about it</tspan></text>
</g>
<g id="e_017_022">
<path id="Union_49" fill-rule="evenodd" clip-rule="evenodd" d="M834.3 579.3L839.2 579.7L844.32 580.53L849.54 581.8L854.72 583.5H848.02L843.92 582.5L838.96 581.7L834.22 581.3L829.77 581.26L825.64 581.54L821.84 582.11L818.34 582.91L815.14 583.91L812.2 585.08L809.5 586.41L806.98 587.88L804.66 589.5L802.5 591.27L800.48 593.2L798.6 595.3L796.84 597.6L795.19 600.15L793.65 602.95L792.25 606.09L790.99 609.59L789.89 613.61L789.01 618.21L788.41 623.61L788.18 629.96L788.48 637.61L789.61 646.99L791.752 657.768L791.79 657.76L792.05 659.02H789.95L789.791 658.166L789.79 658.16L787.63 647.31L786.49 637.77L786.17 629.97L786.4 623.45L787.04 617.92L787.94 613.16L789.09 609L790.39 605.34L791.86 602.07L793.46 599.12L795.19 596.46L797.05 594.03L799.05 591.81L801.15 589.78L803.45 587.91L805.89 586.21L808.53 584.64L811.38 583.24L814.46 582.02L817.81 580.99L821.45 580.16L825.41 579.56L829.69 579.28L834.3 579.3Z" fill="black"/>
</g>
<g id="n021_question">
<path id="Vector_45" d="M1177 300L1257 360L1177 420L1097 360L1177 300Z" fill="#CCCCCC" stroke="black" stroke-width="2"/>
<text id="Can we fix it?" fill="black" xml:space="preserve" style="white-space: pre" font-family="Liberation Sans" font-size="18" letter-spacing="0em"><tspan x="1123.25" y="364.444">Can we fix it?</tspan></text>
</g>
<g id="e_020_021">
<path id="Union_50" fill-rule="evenodd" clip-rule="evenodd" d="M1078.41 369.6L1095.33 360L1076.01 357.82L1078.41 369.6ZM1077.4 364.7L1021 376.24V374.2L1077 362.73L1077.4 364.7Z" fill="black"/>
</g>
<g id="n020_label">
<text id="we&#226;&#128;&#153;re in an emergency and we need to start acting like it!" fill="black" xml:space="preserve" style="white-space: pre" font-family="Liberation Sans" font-size="18" letter-spacing="0em"><tspan x="914.26" y="366.444">we&#x2019;re in an&#10;</tspan><tspan x="913.284" y="384.444">emergency&#10;</tspan><tspan x="896.216" y="402.444">and we need to&#10;</tspan><tspan x="888.227" y="420.444">start acting like it!</tspan></text>
</g>
<g id="e_018_020">
<path id="Vector_46" d="M882.25 409.95L797.25 433.97H789.9L882.25 407.87V409.95Z" fill="black"/>
</g>
<g id="e_019_017">
<path id="Union_51" fill-rule="evenodd" clip-rule="evenodd" d="M724.36 601.02L721.59 611.88L719.57 621.4L718.09 630.22L717.04 638.67L716.884 640.562L721.9 640.8L715 659L709.9 640.23L715.394 640.491L714.88 640.45L715.04 638.48L716.1 629.94L717.6 621.04L719.62 611.44L722.42 600.47L731.5 573.07H733.6L724.36 601.02Z" fill="black"/>
</g>
<g id="n019_label">
<text id="what do you mean &#226;&#128;&#156;yet&#226;&#128;&#157;?" fill="black" xml:space="preserve" style="white-space: pre" font-family="Liberation Sans" font-size="18" letter-spacing="0em"><tspan x="690.25" y="549.444">what do you&#10;</tspan><tspan x="690.777" y="567.444">mean &#x201c;yet&#x201d;?</tspan></text>
</g>
<g id="e_018_019">
<path id="Vector_47" d="M750.96 459.95L752.02 466.1L752.78 472.08L753.28 477.96L753.55 483.79V489.64L753.32 495.58L752.82 501.71L752.02 508.14L750.85 515.07L749.22 522.79L746.87 531.96L746.21 534.16H744.13L744.96 531.41L747.28 522.31L748.9 514.68L750.03 507.83L750.83 501.48L751.33 495.43L751.56 489.57V483.81L751.29 478.06L750.79 472.26L750.03 466.36L748.99 460.29L747.97 455.53H750.01L750.96 459.95Z" fill="black"/>
</g>
<g id="n018_label">
<text id="not yet, but&#226;&#128;&#166;" fill="black" xml:space="preserve" style="white-space: pre" font-family="Liberation Sans" font-size="18" letter-spacing="0em"><tspan x="702.249" y="448.444">not yet, but&#x2026;</tspan></text>
</g>
<g id="e_013_018">
<path id="Union_52" fill-rule="evenodd" clip-rule="evenodd" d="M662.95 471.936L662.96 471.97L659.32 472.99L661.62 471.25L660.62 470.49L662.4 469.99L662.408 470.016L713.5 455.57H720.85L662.95 471.936Z" fill="black"/>
</g>
<g id="n017_thought">
<path id="Vector_48" d="M660 660H854.88V730.57C822.34 718.77 802.08 718.77 789.78 718.77C770.3 718.77 744.38 730.57 724.9 730.57C712.8 730.57 692.35 730.57 660 718.77V660Z" fill="white" stroke="black" stroke-width="2"/>
<text id="The apocalypse is already happening (to me)!" fill="black" xml:space="preserve" style="white-space: pre" font-family="Liberation Sans" font-size="18" letter-spacing="0em"><tspan x="684.729" y="678.444">The apocalypse is&#10;</tspan><tspan x="683.2" y="696.444">already happening&#10;</tspan><tspan x="726.302" y="714.444">(to me)!</tspan></text>
</g>
<g id="e_015_017">
<path id="Union_53" fill-rule="evenodd" clip-rule="evenodd" d="M648.725 643.574L614.13 597.26H611.63L647.122 644.77L643.1 647.77L659 659L652.75 640.57L648.725 643.574Z" fill="black"/>
</g>
<g id="n016_thought">
<path id="Vector_49" d="M440 660H634.88V730.57C602.34 718.77 582.08 718.77 569.78 718.77C550.3 718.77 524.38 730.57 504.9 730.57C492.8 730.57 472.35 730.57 440 718.77V660Z" fill="white" stroke="black" stroke-width="2"/>
<text id="I&#226;&#128;&#153;m&#194;&#160;going to escape to a nice farm in Vermont with my friends&#226;&#128;&#166;" fill="black" xml:space="preserve" style="white-space: pre" font-family="Liberation Sans" font-size="18" letter-spacing="0em"><tspan x="450.19" y="678.444">I&#x2019;m&#xa0;going to escape to&#10;</tspan><tspan x="448.222" y="696.444">a nice farm in Vermont&#10;</tspan><tspan x="469.263" y="714.444">with my friends&#x2026;</tspan></text>
</g>
<g id="e_015_016">
<path id="Union_54" fill-rule="evenodd" clip-rule="evenodd" d="M566.681 640.791L572.44 597.26H570.42L564.7 640.529L559.73 639.87L563.25 659L571.65 641.45L566.681 640.791Z" fill="black"/>
</g>
<g id="n015_label">
<text id="what do you mean &#226;&#128;&#156;we&#226;&#128;&#157;?" fill="black" xml:space="preserve" style="white-space: pre" font-family="Liberation Sans" font-size="18" letter-spacing="0em"><tspan x="525.25" y="573.444">what do you&#10;</tspan><tspan x="526.278" y="591.444">mean &#x201c;we&#x201d;?</tspan></text>
</g>
<g id="e_013_015">
<path id="Union_55" fill-rule="evenodd" clip-rule="evenodd" d="M580.853 533.696L580.88 533.7L581.15 531.62L580 532.48L579.05 531.78L578.85 533.42L578.855 533.421L575.56 558.38H577.59L580.853 533.696Z" fill="black"/>
</g>
<g id="e_014_013">
<path id="Union_56" fill-rule="evenodd" clip-rule="evenodd" d="M661.02 411.8L658.35 417.2L654.41 423.52L648.59 431.07L644.29 435.6L643.72 435.054L647.7 439.27L630.14 447.62L639.44 430.52L642.892 434.176L647.07 429.77L652.77 422.37L656.61 416.24L659.11 411.16H661.26L661.02 411.8Z" fill="black"/>
</g>
<g id="n014_label">
<text id="I try not to think about it_4" fill="black" xml:space="preserve" style="white-space: pre" font-family="Liberation Sans" font-size="18" letter-spacing="0em"><tspan x="623.267" y="387.444">I try not to&#10;</tspan><tspan x="612.236" y="405.444">think about it</tspan></text>
</g>
<g id="e_013_014">
<path id="Union_57" fill-rule="evenodd" clip-rule="evenodd" d="M624.65 359.18L630.09 359.9L635.35 361.15L640.28 362.85L644.73 364.89L648.65 367.19L652.05 369.65L654.92 372.23L654.96 372.27H651.96L650.78 371.21L647.55 368.85L643.8 366.65L639.53 364.69L634.79 363.06L629.72 361.86L624.48 361.16L619.28 360.99L614.3 361.32L609.67 362.1L605.44 363.26L601.64 364.72L598.24 366.42L595.19 368.35L592.49 370.48L590.09 372.78L587.94 375.3L586.04 378.05L584.37 381.05L582.94 384.38L581.76 388.11L580.86 392.36L580.34 397.24L580.3 402.99L580.855 408.876L580.92 408.87L581.1 410.88L580 410.05L579.04 410.77L578.885 409.127L578.86 409.13L578.3 403.07L578.34 397.13L578.88 392.05L579.81 387.61L581.05 383.69L582.55 380.19L584.31 376.99L586.33 374.09L588.6 371.43L591.16 368.97L594.03 366.73L597.23 364.7L600.81 362.9L604.81 361.36L609.21 360.16L614.05 359.34L619.21 359L624.65 359.18Z" fill="black"/>
</g>
<g id="n013_question">
<path id="Vector_50" d="M580 411.26L660 471.26L580 531.26L500 471.26L580 411.26Z" fill="#CCCCCC" stroke="black" stroke-width="2"/>
<text id="Are we fucked?" fill="black" xml:space="preserve" style="white-space: pre" font-family="Liberation Sans" font-size="18" letter-spacing="0em"><tspan x="518.25" y="475.444">Are we fucked?</tspan></text>
</g>
<g id="e_012_013">
<path id="Union_58" fill-rule="evenodd" clip-rule="evenodd" d="M480.8 478L499.3 472L480.8 466V478ZM480.8 473H453.1V471H480.8V473Z" fill="black"/>
</g>
<g id="n012_label">
<text id="yes" fill="black" xml:space="preserve" style="white-space: pre" font-family="Liberation Sans" font-size="18" letter-spacing="0em"><tspan x="425.317" y="475.444">yes</tspan></text>
</g>
<g id="e_001_012">
<path id="Union_59" fill-rule="evenodd" clip-rule="evenodd" d="M392.26 473.02H394.72V473H425.1L425.11 471H394.72V470.98H392.26L393.62 472L392.26 473.02Z" fill="black"/>
</g>
<g id="e_011_005">
<path id="Union_60" fill-rule="evenodd" clip-rule="evenodd" d="M375.754 757.537L380.7 753.7L364.63 742.77L371.2 761.07L375.157 758L378.67 762.71L386.89 774.76L394.59 787.11L401.77 799.79L408.44 812.81L414.61 826.23L415.01 827.18H417.17L416.45 825.43L410.23 811.93L403.53 798.83L396.31 786.08L388.57 773.66L380.29 761.53L376.75 756.79L375.754 757.537Z" fill="black"/>
</g>
<g id="n011_label">
<text id="if it gets too bad, God will intervene" fill="black" xml:space="preserve" style="white-space: pre" font-family="Liberation Sans" font-size="18" letter-spacing="0em"><tspan x="357.707" y="841.444">if it gets too bad,&#10;</tspan><tspan x="352.223" y="859.444">God will intervene</tspan></text>
</g>
<g id="e_010_011">
<path id="Vector_51" d="M432.09 868.63L436.25 884.06L439.87 900.09L442.9 916.73L445.32 934.06L447.06 952.1L448.08 970.9L448.33 990.45L447.73 1010.79L446.23 1031.89L443.73 1053.72L440.23 1076.22L435.63 1099.26L429.93 1122.66L423.13 1146.21L419.2 1157.99H417.1L421.23 1145.61L428 1122.15L433.67 1098.82L438.25 1075.87L441.75 1053.45L444.23 1031.7L445.73 1010.7L446.33 990.44L446.09 970.96L445.06 952.26L443.32 934.31L440.92 917.07L437.92 900.5L434.32 884.54L430.16 869.19L429.18 866.05H431.26L432.09 868.63Z" fill="black"/>
</g>
<g id="n010_label">
<text id="isn&#226;&#128;&#153;t the climate always changing?" fill="black" xml:space="preserve" style="white-space: pre" font-family="Liberation Sans" font-size="18" letter-spacing="0em"><tspan x="348.741" y="1172.44">isn&#x2019;t the climate&#10;</tspan><tspan x="339.223" y="1190.44">always changing?</tspan></text>
</g>
<g id="e_009_010">
<path id="Vector_52" d="M397.13 1214.5L387.13 1235.3L376.87 1254.55L366.57 1272.05L356.47 1287.68L346.77 1301.42L345.21 1303.45H342.69L345.17 1300.23L354.83 1286.57L364.88 1271.01L375.14 1253.58L385.37 1234.38L395.33 1213.68L402.53 1196.88H404.73L397.13 1214.5Z" fill="black"/>
</g>
<g id="n009_label">
<text id="I don&#226;&#128;&#153;t like your solutions, so it can&#226;&#128;&#153;t be true" fill="black" xml:space="preserve" style="white-space: pre" font-family="Liberation Sans" font-size="18" letter-spacing="0em"><tspan x="227.174" y="1318.44">I don&#x2019;t like your solutions,&#10;</tspan><tspan x="259.72" y="1336.44">so it can&#x2019;t be true</tspan></text>
</g>
<g id="e_008_009">
<path id="Vector_53" d="M187.23 1163.6L184.6 1200L183.75 1228.26L184.02 1250.59L184.98 1268.51L186.38 1283.09L188.05 1295.11L189.87 1305.13L191.77 1313.56L193.7 1320.73L195.64 1326.88L197.56 1332.18L199.46 1336.81L201.31 1340.85L203.15 1344.41L204.93 1347.57L206.68 1350.37L208.38 1352.87L210.08 1355.14L211.72 1357.16L213.35 1359L214.95 1360.65L216.53 1362.15L218.1 1363.53L219.65 1364.78L221.19 1365.91L222.72 1366.96L224.25 1367.91L225.79 1368.77L227.33 1369.57L228.9 1370.27L230.47 1370.9L232.07 1371.46L233.67 1371.96L235.32 1372.4L236.99 1372.77L238.71 1373.07L240.47 1373.32L242.3 1373.48L244.17 1373.58H246.13L248.17 1373.53L250.3 1373.36L252.52 1373.1L254.87 1372.72L257.34 1372.22L259.94 1371.57L262.74 1370.77L265.69 1369.75L268.85 1368.53L272.25 1367.03L275.93 1365.26L279.89 1363.12L284.19 1360.56L288.87 1357.51L293.97 1353.87L299.55 1349.52L305.65 1344.36L307.81 1342.36H310.76L306.96 1345.86L300.81 1351.09L295.17 1355.49L290 1359.19L285.26 1362.29L280.89 1364.89L276.84 1367.06L273.09 1368.88L269.61 1370.4L266.37 1371.65L263.32 1372.68L260.47 1373.52L257.77 1374.19L255.22 1374.71L252.79 1375.09L250.49 1375.37L248.27 1375.53L246.15 1375.6L244.11 1375.58L242.13 1375.48L240.23 1375.3L238.37 1375.05L236.57 1374.73L234.8 1374.33L233.1 1373.88L231.4 1373.36L229.72 1372.76L228.07 1372.09L226.44 1371.34L224.82 1370.52L223.22 1369.62L221.62 1368.62L220 1367.54L218.4 1366.34L216.78 1365.04L215.16 1363.62L213.52 1362.05L211.86 1360.33L210.18 1358.43L208.48 1356.33L206.75 1354.03L204.99 1351.45L203.19 1348.57L201.37 1345.34L199.5 1341.7L197.62 1337.6L195.69 1332.9L193.73 1327.5L191.77 1321.28L189.81 1314.03L187.91 1305.53L186.06 1295.41L184.39 1283.31L182.99 1268.65L182.01 1250.65L181.74 1228.23L182.6 1199.89L185.24 1163.44L189.8 1123.67H191.8L187.23 1163.6Z" fill="black"/>
</g>
<g id="n008_label">
<text id="it&#226;&#128;&#153;s a Chinese hoax" fill="black" xml:space="preserve" style="white-space: pre" font-family="Liberation Sans" font-size="18" letter-spacing="0em"><tspan x="175.967" y="1082.44">it&#x2019;s a&#10;</tspan><tspan x="161.28" y="1100.44">Chinese&#10;</tspan><tspan x="174.798" y="1118.44">hoax</tspan></text>
</g>
<g id="e_007_008">
<path id="Union_61" fill-rule="evenodd" clip-rule="evenodd" d="M220.23 964.98L220.4 964.15L218.49 963.23L218.23 964.58L218.24 964.582L200.8 1051.53L198.3 1067.5H200.3L202.76 1051.88L220.182 964.97L220.23 964.98Z" fill="black"/>
</g>
<g id="n007_thought">
<path id="Vector_54" d="M204 936C190.75 936 180 925.25 180 912C180 901.4 186.5 892.45 196.58 889.17C196 858 236 852 252 864C260 846 300 852 300 870C324 864 348 888 332 918C348 942 332 972 300 960C292 975.6 260 975.6 252 960C236 972 204 966 204 936Z" fill="white" stroke="black" stroke-width="2"/>
<text id="I&#226;&#128;&#153;m not in denial!" fill="black" xml:space="preserve" style="white-space: pre" font-family="Liberation Sans" font-size="18" letter-spacing="0em"><tspan x="194.217" y="916.444">I&#x2019;m not in denial!</tspan></text>
</g>
<g id="e_005_007">
<path id="Union_62" fill-rule="evenodd" clip-rule="evenodd" d="M296.86 771.1L297.6 771.26L297.286 772.291L297.287 772.291L277.978 835.722L281.52 836.8L272.94 849.1L272.64 834.1L276.064 835.141L295.373 771.709L295.388 771.713L295.66 770.76L296.86 771.1Z" fill="black"/>
</g>
<g id="e_006_001">
<path id="Union_63" fill-rule="evenodd" clip-rule="evenodd" d="M364.621 515.843L368.13 510.94L349.59 505.06L361.13 520.72L364.033 516.664L365.82 518.08L370.15 521.82L373.97 525.42L377.37 528.89L380.37 532.23L383.05 535.47L385.42 538.61L385.75 539.09H388.19L387.05 537.43L384.63 534.23L381.9 530.93L378.84 527.51L375.4 523.98L371.5 520.32L367.12 516.52L365.24 515.07L364.621 515.843Z" fill="black"/>
</g>
<g id="n006_label">
<text id="hmmm&#226;&#128;&#166;" fill="black" xml:space="preserve" style="white-space: pre" font-family="Liberation Sans" font-size="18" letter-spacing="0em"><tspan x="357.326" y="553.444">hmmm&#x2026;</tspan></text>
</g>
<g id="e_005_006">
<path id="Union_64" fill-rule="evenodd" clip-rule="evenodd" d="M399.52 563.3L400.15 566L400.65 568.7L401.05 571.4L401.33 574.1L401.5 576.83L401.55 579.58L401.49 582.36L401.29 585.16L400.99 588.04L400.55 590.97L399.98 593.97L399.24 597.04L398.34 600.22L397.28 603.5L396.01 606.9L394.51 610.44L392.76 614.14L390.72 618.04L388.35 622.12L385.59 626.45L382.39 631.05L378.65 635.95L374.28 641.21L369.15 646.89L363.11 653.04L355.95 659.74L351.035 664.022L351.05 664.04L350.35 664.64L349.67 664.04L348.71 663.36L349.71 662.5L349.723 662.515L354.61 658.25L361.71 651.61L367.69 645.51L372.77 639.91L377.09 634.71L380.79 629.88L383.94 625.35L386.64 621.09L388.98 617.07L390.98 613.27L392.68 609.63L394.15 606.17L395.39 602.85L396.45 599.65L397.31 596.55L398.01 593.55L398.58 590.65L399 587.8L399.3 585L399.47 582.27L399.52 579.57L399.47 576.91L399.31 574.29L399.04 571.66L398.66 569.06L398.16 566.44L397.54 563.81L396.81 561.18L396.65 560.68H398.75L399.52 563.3Z" fill="black"/>
</g>
<g id="n005_statement">
<path id="Vector_55" d="M372 712C372 745.14 345.14 772 312 772C278.86 772 252 745.14 252 712C252 678.86 278.86 652 312 652C345.14 652 372 678.86 372 712Z" fill="white" stroke="black" stroke-width="2"/>
<text id="You may be in denial." fill="black" xml:space="preserve" style="white-space: pre" font-family="Liberation Sans" font-size="18" letter-spacing="0em"><tspan x="265.095" y="707.444">You may be&#10;</tspan><tspan x="276.257" y="725.444">in denial.</tspan></text>
</g>
<g id="e_004_005">
<path id="Union_65" fill-rule="evenodd" clip-rule="evenodd" d="M313 632.5V595.6H311V632.5H306L312 651L318 632.5H313Z" fill="black"/>
</g>
<g id="n004_label">
<text id="nope!" fill="black" xml:space="preserve" style="white-space: pre" font-family="Liberation Sans" font-size="18" letter-spacing="0em"><tspan x="289.283" y="588.444">nope!</tspan></text>
</g>
<g id="e_001_004">
<path id="Union_66" fill-rule="evenodd" clip-rule="evenodd" d="M313 534.3H313.02V532.45L312 533.22L310.97 532.45V534.3H311V574H313V534.3Z" fill="black"/>
</g>
<g id="e_003_001">
<path id="Union_67" fill-rule="evenodd" clip-rule="evenodd" d="M277.271 524.1L282.25 523.83L275.25 505.68L270.25 524.48L275.271 524.208L275.37 526.22L273.49 536.55L270.79 542.82L267.69 547L264.25 549.94L261.01 551.61V553.88L265.37 551.62L269.17 548.39L272.53 543.85L275.41 537.15L277.37 526.37L277.271 524.1Z" fill="black"/>
</g>
<g id="n003_label">
<text id="climate wha?" fill="black" xml:space="preserve" style="white-space: pre" font-family="Liberation Sans" font-size="18" letter-spacing="0em"><tspan x="204.298" y="543.444">climate&#10;</tspan><tspan x="211.294" y="561.444">wha?</tspan></text>
</g>
<g id="e_001_003">
<path id="Union_68" fill-rule="evenodd" clip-rule="evenodd" d="M252.59 490.45L254.05 489.75L252.19 488.37L251.69 488.6L251.709 488.64L233.79 497.21L224.79 504.44L220.01 510.52L217.45 515.99L216.33 521.23L216.43 526.53L216.95 528.61H219.01L218.44 526.27L218.34 521.43L219.36 516.63L221.71 511.58L226.21 505.85L234.86 498.91L252.58 490.43L252.59 490.45Z" fill="black"/>
</g>
<g id="e_002_001">
<path id="Union_69" fill-rule="evenodd" clip-rule="evenodd" d="M393.27 417.22L390.11 422.86L385.51 429.46L378.81 437.36L378.27 437.86L377.465 437.044L381.67 441.54L364.05 449.79L373.45 432.75L376.886 436.424L377.34 435.99L383.94 428.23L388.42 421.79L391.5 416.32L393.1 412.72H395.28L393.27 417.22Z" fill="black"/>
</g>
<g id="n002_label">
<text id="I try not to think about it_5" fill="black" xml:space="preserve" style="white-space: pre" font-family="Liberation Sans" font-size="18" letter-spacing="0em"><tspan x="357.267" y="388.444">I try not to&#10;</tspan><tspan x="346.236" y="406.444">think about it</tspan></text>
</g>
<g id="e_001_002">
<path id="Union_70" fill-rule="evenodd" clip-rule="evenodd" d="M358.47 360.57L363.87 361.44L369.07 362.8L373.93 364.6L378.33 366.7L382.19 369.04L385.53 371.54L388.09 373.84H385.11L384.26 373.08L381.06 370.7L377.36 368.46L373.14 366.43L368.47 364.71L363.44 363.41L358.24 362.57L353.06 362.23L348.06 362.39L343.4 362.99L339.13 363.96L335.27 365.24L331.8 366.77L328.7 368.51L325.94 370.43L323.47 372.53L321.27 374.8L319.3 377.24L317.55 379.92L316.02 382.85L314.7 386.08L313.63 389.7L312.83 393.8L312.36 398.5V404.02L312.894 409.603L312.92 409.6L313.1 411.62L312 410.78L311.04 411.5L310.88 409.8L310.894 409.799L310.36 404.11V398.41L310.84 393.51L311.68 389.23L312.81 385.43L314.21 382.01L315.83 378.91L317.68 376.08L319.78 373.48L322.11 371.06L324.71 368.84L327.65 366.81L330.91 364.97L334.56 363.37L338.61 362.03L343.07 361.03L347.93 360.39L353.11 360.23L358.47 360.57Z" fill="black"/>
</g>
<g id="n001_question">
<path id="Vector_56" d="M312 412L392 472L312 532L232 472L312 412Z" fill="#CCCCCC" stroke="black" stroke-width="2"/>
<text id="Is climate change for real?" fill="black" xml:space="preserve" style="white-space: pre" font-family="Liberation Sans" font-size="18" letter-spacing="0em"><tspan x="304.822" y="457.444">Is&#10;</tspan><tspan x="251.244" y="475.444">climate change&#10;</tspan><tspan x="278.78" y="493.444">for real?</tspan></text>
</g>
</g>
</svg>
