<svg width="290" height="120" viewBox="0 0 290 120" fill="none" xmlns="http://www.w3.org/2000/svg">
<circle cx="38" cy="40" r="32" fill="#FF3F55"/>
<path d="M52 40.0006C52.0008 40.3402 51.9138 40.6741 51.7473 40.9701C51.5808 41.266 51.3406 41.5138 51.05 41.6894L33.04 52.7069C32.7364 52.8928 32.3886 52.9943 32.0326 53.0009C31.6766 53.0075 31.3253 52.9189 31.015 52.7444C30.7076 52.5725 30.4516 52.3219 30.2732 52.0183C30.0948 51.7147 30.0005 51.369 30 51.0169V28.9844C30.0005 28.6322 30.0948 28.2866 30.2732 27.983C30.4516 27.6793 30.7076 27.4287 31.015 27.2569C31.3253 27.0823 31.6766 26.9938 32.0326 27.0003C32.3886 27.0069 32.7364 27.1084 33.04 27.2944L51.05 38.3119C51.3406 38.4875 51.5808 38.7353 51.7473 39.0312C51.9138 39.3271 52.0008 39.6611 52 40.0006Z" fill="white"/>
<path d="M164.5 52.4986C165.118 57.4148 164 64.5 155.205 65.788" stroke="#282828" stroke-width="2"/>
<path d="M203 19C202.5 27.5 198 32 192 34.4993" stroke="#282828" stroke-width="1.75"/>
<path d="M175 19L203 40L175 61L147 40L175 19Z" fill="#FF3F55" stroke="#FF3F55" stroke-width="0.7"/>
<path d="M175.493 20.5508C171.993 10.0506 191 -5 202 10.9988" stroke="#FF3F55" stroke-opacity="0.5" stroke-width="2"/>
<path d="M144.439 60.6274C142.689 58 141.814 43.9998 156.689 44" stroke="#FF3F55" stroke-opacity="0.5" stroke-width="2"/>
<path d="M201 40H211.5" stroke="#FF3F55" stroke-opacity="0.5" stroke-width="2"/>
<path d="M221 40L231.5 40" stroke="#FF3F55" stroke-opacity="0.5" stroke-width="2"/>
<path d="M257 19L285 40L257 61L229 40L257 19Z" fill="#282828" stroke="#282828" stroke-width="0.7"/>
<rect x="186" y="10" width="35" height="10.5" fill="#9C4F54"/>
<rect x="135" y="58" width="21" height="10.5" fill="#9C4F54"/>
<rect x="211" y="36" width="10" height="8" fill="#FF3F55"/>
<path d="M213.15 56.5998C212.7 55.8498 211.35 54.3498 210.9 53.7498C210.6 53.1498 210.6 52.8498 210.75 52.2498C210.9 51.3498 211.8 50.5998 212.85 50.5998C213.377 50.5998 213.903 50.8958 214.378 51.2279C214.766 51.4991 215.116 51.8198 215.419 52.1831C215.625 52.4296 215.835 52.685 216 52.8498C216.3 53.1498 216.3 53.2998 216.6 53.5998C216.9 54.0498 217.05 54.3498 216.9 53.7498C216.75 52.9998 216.6 51.7998 216.3 50.5998C216.15 49.6998 216 49.5498 215.85 48.9498C215.7 48.1998 215.55 47.7498 215.4 46.9998C215.25 46.5498 215.1 45.3498 214.95 44.7498C214.8 43.9998 214.8 42.6498 215.4 42.0498C215.85 41.5998 216.75 41.4498 217.35 41.7498C218.1 42.1998 218.55 43.2498 218.7 43.6998C219 44.4498 219.3 45.4998 219.45 46.6998C219.75 48.1998 220.174 50.3038 220.2 50.8998C220.2 50.2998 220.05 49.2498 220.2 48.6498C220.35 48.1998 220.65 47.5998 221.25 47.4498C221.538 47.3539 221.825 47.3193 222.113 47.3069C222.435 47.2929 222.761 47.3418 223.045 47.4948C223.334 47.6503 223.6 47.8501 223.8 48.0498C224.291 48.7869 224.38 50.2283 224.396 50.6435C224.4 50.7252 224.411 50.7099 224.427 50.6297C224.551 50.0011 224.569 48.9121 224.85 48.3498C225 48.0498 225.6 47.7498 225.9 47.5998C226.35 47.4498 226.95 47.4498 227.4 47.5998C227.7 47.5998 228.3 48.0498 228.45 48.3498C228.75 48.7998 228.9 50.2998 229.05 50.8998C229.05 51.0498 229.2 50.2998 229.5 49.8498C230.1 48.9498 232.2 48.6498 232.35 50.7498C232.35 51.7998 232.35 51.6498 232.35 52.3998C232.35 53.1498 232.35 53.5998 232.35 54.1998C232.35 54.7998 232.2 56.1498 232.05 56.7498C231.9 57.1998 231.45 58.2498 231 58.8498C231 58.8498 229.35 60.6498 229.2 61.5498C229.05 62.4498 229.05 62.4498 229.05 63.0498C229.05 63.1421 229.053 63.2378 229.059 63.3339C229.096 63.9138 228.708 64.4671 228.127 64.4665C227.862 64.4662 227.598 64.4494 227.4 64.3998C226.5 64 226.5 63.0498 225.5 63.0498C224.5 63.0498 224.111 64.2697 223.2 64.3998C222.414 64.5121 221.04 64.4563 219.769 64.4211C219.139 64.4037 218.676 63.8122 218.604 63.1853C218.565 62.8481 218.466 62.5157 218.25 62.2998C217.8 61.8498 217.05 61.0998 216.6 60.6498C214.835 59.5267 214.314 58.3462 213.15 56.5998Z" fill="white" stroke="#FF3F55"/>
<path fill-rule="evenodd" clip-rule="evenodd" d="M221 54.5C221.276 54.5 221.5 54.7239 221.5 55V60C221.5 60.2761 221.276 60.5 221 60.5C220.724 60.5 220.5 60.2761 220.5 60V55C220.5 54.7239 220.724 54.5 221 54.5ZM224 54.5C224.276 54.5 224.5 54.7239 224.5 55V60C224.5 60.2761 224.276 60.5 224 60.5C223.724 60.5 223.5 60.2761 223.5 60V55C223.5 54.7239 223.724 54.5 224 54.5ZM227.5 55C227.5 54.7239 227.276 54.5 227 54.5C226.724 54.5 226.5 54.7239 226.5 55V60C226.5 60.2761 226.724 60.5 227 60.5C227.276 60.5 227.5 60.2761 227.5 60V55Z" fill="#FF3F55"/>
<path d="M16.0254 96H9.92043V85.53H11.9004V94.245H16.0254V96ZM18.5827 87.03C17.7877 87.03 17.4577 86.625 17.4577 86.07V85.77C17.4577 85.215 17.7877 84.81 18.5827 84.81C19.3627 84.81 19.7077 85.215 19.7077 85.77V86.07C19.7077 86.625 19.3627 87.03 18.5827 87.03ZM17.6227 96V88.17H19.5427V96H17.6227ZM24.3332 96.18C22.8482 96.18 21.8732 95.64 21.0932 94.74L22.2632 93.6C22.8332 94.26 23.5232 94.665 24.4082 94.665C25.3232 94.665 25.7132 94.32 25.7132 93.765C25.7132 93.315 25.4432 93.03 24.7532 92.94L23.9732 92.835C22.2932 92.625 21.3632 91.89 21.3632 90.465C21.3632 88.95 22.5482 87.99 24.3332 87.99C25.8632 87.99 26.6432 88.44 27.3932 89.22L26.2682 90.345C25.8182 89.865 25.1582 89.505 24.3932 89.505C23.5682 89.505 23.2082 89.835 23.2082 90.315C23.2082 90.84 23.4932 91.08 24.2282 91.2L25.0232 91.305C26.7332 91.545 27.5582 92.31 27.5582 93.615C27.5582 95.13 26.2832 96.18 24.3332 96.18ZM31.5814 96C30.2614 96 29.5564 95.28 29.5564 94.005V89.7H28.4014V88.17H29.0014C29.5714 88.17 29.7514 87.9 29.7514 87.36V86.025H31.4764V88.17H33.0814V89.7H31.4764V94.47H32.9614V96H31.5814ZM37.8531 96.18C35.5431 96.18 34.1631 94.575 34.1631 92.07C34.1631 89.595 35.4981 87.99 37.7931 87.99C40.2381 87.99 41.3631 89.79 41.3631 91.935V92.565H36.1581V92.76C36.1581 93.885 36.8031 94.65 38.0631 94.65C39.0081 94.65 39.5781 94.2 40.0581 93.585L41.0931 94.74C40.4481 95.625 39.3081 96.18 37.8531 96.18ZM37.8231 89.43C36.8181 89.43 36.1581 90.18 36.1581 91.26V91.38H39.3681V91.245C39.3681 90.165 38.8131 89.43 37.8231 89.43ZM44.9724 96H43.0524V88.17H44.9724V89.475H45.0474C45.3624 88.635 46.0224 87.99 47.2374 87.99C48.8424 87.99 49.7424 89.1 49.7424 91.05V96H47.8224V91.245C47.8224 90.135 47.4474 89.565 46.5324 89.565C45.7374 89.565 44.9724 89.985 44.9724 90.825V96ZM57.8607 96C56.5407 96 55.8357 95.28 55.8357 94.005V89.7H54.6807V88.17H55.2807C55.8507 88.17 56.0307 87.9 56.0307 87.36V86.025H57.7557V88.17H59.3607V89.7H57.7557V94.47H59.2407V96H57.8607ZM64.0724 96.18C61.8374 96.18 60.4424 94.59 60.4424 92.07C60.4424 89.565 61.8374 87.99 64.0724 87.99C66.3224 87.99 67.7174 89.565 67.7174 92.07C67.7174 94.59 66.3224 96.18 64.0724 96.18ZM64.0724 94.635C65.0774 94.635 65.7074 93.99 65.7074 92.805V91.35C65.7074 90.18 65.0774 89.535 64.0724 89.535C63.0824 89.535 62.4524 90.18 62.4524 91.35V92.805C62.4524 93.99 63.0824 94.635 64.0724 94.635ZM9.44992 112H7.52992V104.17H9.44992V105.475H9.52492C9.83992 104.635 10.4999 103.99 11.7149 103.99C13.3199 103.99 14.2199 105.1 14.2199 107.05V112H12.2999V107.245C12.2999 106.135 11.9249 105.565 11.0099 105.565C10.2149 105.565 9.44992 105.985 9.44992 106.825V112ZM18.2833 112.18C16.6933 112.18 15.7933 111.265 15.7933 109.87C15.7933 108.265 17.0083 107.47 19.1383 107.47H20.4733V106.9C20.4733 106.03 20.0383 105.52 19.0183 105.52C18.1183 105.52 17.6083 105.97 17.2333 106.51L16.0933 105.49C16.6633 104.59 17.5783 103.99 19.1533 103.99C21.2683 103.99 22.3933 104.995 22.3933 106.78V110.47H23.1733V112H22.1083C21.2833 112 20.7733 111.46 20.6533 110.65H20.5633C20.3083 111.655 19.4533 112.18 18.2833 112.18ZM18.9283 110.785C19.7833 110.785 20.4733 110.395 20.4733 109.66V108.625H19.2433C18.2383 108.625 17.7433 108.97 17.7433 109.585V109.84C17.7433 110.47 18.1783 110.785 18.9283 110.785ZM26.6472 112H24.7272V104.17H26.6472V105.79H26.7222C26.9172 104.965 27.5472 104.17 28.7922 104.17H29.2122V105.985H28.6122C27.3222 105.985 26.6472 106.345 26.6472 107.2V112ZM32.5359 112H30.6159V104.17H32.5359V105.79H32.6109C32.8059 104.965 33.4359 104.17 34.6809 104.17H35.1009V105.985H34.5009C33.2109 105.985 32.5359 106.345 32.5359 107.2V112ZM38.2784 112.18C36.6884 112.18 35.7884 111.265 35.7884 109.87C35.7884 108.265 37.0034 107.47 39.1334 107.47H40.4684V106.9C40.4684 106.03 40.0334 105.52 39.0134 105.52C38.1134 105.52 37.6034 105.97 37.2284 106.51L36.0884 105.49C36.6584 104.59 37.5734 103.99 39.1484 103.99C41.2634 103.99 42.3884 104.995 42.3884 106.78V110.47H43.1684V112H42.1034C41.2784 112 40.7684 111.46 40.6484 110.65H40.5584C40.3034 111.655 39.4484 112.18 38.2784 112.18ZM38.9234 110.785C39.7784 110.785 40.4684 110.395 40.4684 109.66V108.625H39.2384C38.2334 108.625 37.7384 108.97 37.7384 109.585V109.84C37.7384 110.47 38.1734 110.785 38.9234 110.785ZM47.1087 112C45.7887 112 45.0837 111.28 45.0837 110.005V105.7H43.9287V104.17H44.5287C45.0987 104.17 45.2787 103.9 45.2787 103.36V102.025H47.0037V104.17H48.6087V105.7H47.0037V110.47H48.4887V112H47.1087ZM51.2341 103.03C50.4391 103.03 50.1091 102.625 50.1091 102.07V101.77C50.1091 101.215 50.4391 100.81 51.2341 100.81C52.0141 100.81 52.3591 101.215 52.3591 101.77V102.07C52.3591 102.625 52.0141 103.03 51.2341 103.03ZM50.2741 112V104.17H52.1941V112H50.2741ZM57.5246 112.18C55.2896 112.18 53.8946 110.59 53.8946 108.07C53.8946 105.565 55.2896 103.99 57.5246 103.99C59.7746 103.99 61.1696 105.565 61.1696 108.07C61.1696 110.59 59.7746 112.18 57.5246 112.18ZM57.5246 110.635C58.5296 110.635 59.1596 109.99 59.1596 108.805V107.35C59.1596 106.18 58.5296 105.535 57.5246 105.535C56.5346 105.535 55.9046 106.18 55.9046 107.35V108.805C55.9046 109.99 56.5346 110.635 57.5246 110.635ZM64.7917 112H62.8717V104.17H64.7917V105.475H64.8667C65.1817 104.635 65.8417 103.99 67.0567 103.99C68.6617 103.99 69.5617 105.1 69.5617 107.05V112H67.6417V107.245C67.6417 106.135 67.2667 105.565 66.3517 105.565C65.5567 105.565 64.7917 105.985 64.7917 106.825V112Z" fill="white"/>
<path d="M187.628 96H180.728V85.53H187.628V87.285H182.708V89.82H187.058V91.575H182.708V94.245H187.628V96ZM188.777 96L191.447 92.025L188.837 88.17H191.027L192.647 90.765H192.707L194.312 88.17H196.352L193.697 92.055L196.367 96H194.177L192.527 93.3H192.467L190.817 96H188.777ZM197.761 99V88.17H199.681V89.46H199.741C200.026 88.56 200.866 87.99 201.901 87.99C203.881 87.99 204.976 89.46 204.976 92.07C204.976 94.695 203.881 96.18 201.901 96.18C200.866 96.18 200.041 95.58 199.741 94.695H199.681V99H197.761ZM201.286 94.59C202.276 94.59 202.966 93.87 202.966 92.76V91.41C202.966 90.3 202.276 89.565 201.286 89.565C200.371 89.565 199.681 90.06 199.681 90.825V93.315C199.681 94.125 200.371 94.59 201.286 94.59ZM209.711 96H208.676C207.371 96 206.756 95.31 206.756 94.11V84.9H208.676V94.47H209.711V96ZM214.27 96.18C212.035 96.18 210.64 94.59 210.64 92.07C210.64 89.565 212.035 87.99 214.27 87.99C216.52 87.99 217.915 89.565 217.915 92.07C217.915 94.59 216.52 96.18 214.27 96.18ZM214.27 94.635C215.275 94.635 215.905 93.99 215.905 92.805V91.35C215.905 90.18 215.275 89.535 214.27 89.535C213.28 89.535 212.65 90.18 212.65 91.35V92.805C212.65 93.99 213.28 94.635 214.27 94.635ZM221.537 96H219.617V88.17H221.537V89.79H221.612C221.807 88.965 222.437 88.17 223.682 88.17H224.102V89.985H223.502C222.212 89.985 221.537 90.345 221.537 91.2V96ZM228.597 96.18C226.287 96.18 224.907 94.575 224.907 92.07C224.907 89.595 226.242 87.99 228.537 87.99C230.982 87.99 232.107 89.79 232.107 91.935V92.565H226.902V92.76C226.902 93.885 227.547 94.65 228.807 94.65C229.752 94.65 230.322 94.2 230.802 93.585L231.837 94.74C231.192 95.625 230.052 96.18 228.597 96.18ZM228.567 89.43C227.562 89.43 226.902 90.18 226.902 91.26V91.38H230.112V91.245C230.112 90.165 229.557 89.43 228.567 89.43ZM240.446 96.18C238.211 96.18 236.816 94.59 236.816 92.07C236.816 89.565 238.211 87.99 240.446 87.99C242.696 87.99 244.091 89.565 244.091 92.07C244.091 94.59 242.696 96.18 240.446 96.18ZM240.446 94.635C241.451 94.635 242.081 93.99 242.081 92.805V91.35C242.081 90.18 241.451 89.535 240.446 89.535C239.456 89.535 238.826 90.18 238.826 91.35V92.805C238.826 93.99 239.456 94.635 240.446 94.635ZM247.714 96H245.794V88.17H247.714V89.475H247.789C248.104 88.635 248.764 87.99 249.979 87.99C251.584 87.99 252.484 89.1 252.484 91.05V96H250.564V91.245C250.564 90.135 250.189 89.565 249.274 89.565C248.479 89.565 247.714 89.985 247.714 90.825V96ZM189.097 108.31L190.462 104.17H192.262L189.112 113.395C188.722 114.52 188.167 115 186.877 115H185.722V113.47H187.132L187.492 112.375L184.687 104.17H186.592L187.957 108.31L188.467 110.29H188.557L189.097 108.31ZM196.53 112.18C194.295 112.18 192.9 110.59 192.9 108.07C192.9 105.565 194.295 103.99 196.53 103.99C198.78 103.99 200.175 105.565 200.175 108.07C200.175 110.59 198.78 112.18 196.53 112.18ZM196.53 110.635C197.535 110.635 198.165 109.99 198.165 108.805V107.35C198.165 106.18 197.535 105.535 196.53 105.535C195.54 105.535 194.91 106.18 194.91 107.35V108.805C194.91 109.99 195.54 110.635 196.53 110.635ZM206.558 112V110.695H206.483C206.213 111.475 205.583 112.18 204.293 112.18C202.688 112.18 201.788 111.07 201.788 109.12V104.17H203.708V108.925C203.708 110.005 204.113 110.59 205.028 110.59C205.793 110.59 206.558 110.185 206.558 109.345V104.17H208.478V112H206.558ZM212.616 112H210.696V104.17H212.616V105.79H212.691C212.886 104.965 213.516 104.17 214.761 104.17H215.181V105.985H214.581C213.291 105.985 212.616 106.345 212.616 107.2V112ZM223.235 112.18C221 112.18 219.605 110.59 219.605 108.07C219.605 105.565 221 103.99 223.235 103.99C225.485 103.99 226.88 105.565 226.88 108.07C226.88 110.59 225.485 112.18 223.235 112.18ZM223.235 110.635C224.24 110.635 224.87 109.99 224.87 108.805V107.35C224.87 106.18 224.24 105.535 223.235 105.535C222.245 105.535 221.615 106.18 221.615 107.35V108.805C221.615 109.99 222.245 110.635 223.235 110.635ZM229.845 112L227.685 104.17H229.53L230.325 107.395L230.94 110.08H231L231.72 107.395L232.635 104.17H234.375L235.32 107.395L236.055 110.08H236.115L236.73 107.395L237.51 104.17H239.295L237.15 112H235.08L234.075 108.55L233.49 106.42H233.445L232.875 108.55L231.885 112H229.845ZM242.66 112H240.74V104.17H242.66V105.475H242.735C243.05 104.635 243.71 103.99 244.925 103.99C246.53 103.99 247.43 105.1 247.43 107.05V112H245.51V107.245C245.51 106.135 245.135 105.565 244.22 105.565C243.425 105.565 242.66 105.985 242.66 106.825V112Z" fill="white"/>
</svg>
