<svg width="290" height="120" viewBox="0 0 290 120" fill="none" xmlns="http://www.w3.org/2000/svg">
<circle cx="38" cy="40" r="32" fill="#FF3F55"/>
<path d="M52 40.0006C52.0008 40.3402 51.9138 40.6741 51.7473 40.9701C51.5808 41.266 51.3406 41.5138 51.05 41.6894L33.04 52.7069C32.7364 52.8928 32.3886 52.9943 32.0326 53.0009C31.6766 53.0075 31.3253 52.9189 31.015 52.7444C30.7076 52.5725 30.4516 52.3219 30.2732 52.0183C30.0948 51.7147 30.0005 51.369 30 51.0169V28.9844C30.0005 28.6322 30.0948 28.2866 30.2732 27.983C30.4516 27.6793 30.7076 27.4287 31.015 27.2569C31.3253 27.0823 31.6766 26.9938 32.0326 27.0003C32.3886 27.0069 32.7364 27.1084 33.04 27.2944L51.05 38.3119C51.3406 38.4875 51.5808 38.7353 51.7473 39.0312C51.9138 39.3271 52.0008 39.6611 52 40.0006Z" fill="white"/>
<path d="M164.5 52.4986C165.118 57.4148 164 64.5 155.205 65.788" stroke="#282828" stroke-width="2"/>
<path d="M203 19C202.5 27.5 198 32 192 34.4993" stroke="#282828" stroke-width="1.75"/>
<path d="M175 19L203 40L175 61L147 40L175 19Z" fill="#FF3F55" stroke="#FF3F55" stroke-width="0.7"/>
<path d="M175.493 20.5508C171.993 10.0506 191 -5 202 10.9988" stroke="#FF3F55" stroke-opacity="0.5" stroke-width="2"/>
<path d="M144.439 60.6274C142.689 58 141.814 43.9998 156.689 44" stroke="#FF3F55" stroke-opacity="0.5" stroke-width="2"/>
<path d="M201 40H211.5" stroke="#FF3F55" stroke-opacity="0.5" stroke-width="2"/>
<path d="M221 40L231.5 40" stroke="#FF3F55" stroke-opacity="0.5" stroke-width="2"/>
<path d="M257 19L285 40L257 61L229 40L257 19Z" fill="#282828" stroke="#282828" stroke-width="0.7"/>
<rect x="186" y="10" width="35" height="10.5" fill="#9C4F54"/>
<rect x="135" y="58" width="21" height="10.5" fill="#9C4F54"/>
<rect x="211" y="36" width="10" height="8" fill="#FF3F55"/>
<path d="M213.15 56.5998C212.7 55.8498 211.35 54.3498 210.9 53.7498C210.6 53.1498 210.6 52.8498 210.75 52.2498C210.9 51.3498 211.8 50.5998 212.85 50.5998C213.377 50.5998 213.903 50.8958 214.378 51.2279C214.766 51.4991 215.116 51.8198 215.419 52.1831C215.625 52.4296 215.835 52.685 216 52.8498C216.3 53.1498 216.3 53.2998 216.6 53.5998C216.9 54.0498 217.05 54.3498 216.9 53.7498C216.75 52.9998 216.6 51.7998 216.3 50.5998C216.15 49.6998 216 49.5498 215.85 48.9498C215.7 48.1998 215.55 47.7498 215.4 46.9998C215.25 46.5498 215.1 45.3498 214.95 44.7498C214.8 43.9998 214.8 42.6498 215.4 42.0498C215.85 41.5998 216.75 41.4498 217.35 41.7498C218.1 42.1998 218.55 43.2498 218.7 43.6998C219 44.4498 219.3 45.4998 219.45 46.6998C219.75 48.1998 220.174 50.3038 220.2 50.8998C220.2 50.2998 220.05 49.2498 220.2 48.6498C220.35 48.1998 220.65 47.5998 221.25 47.4498C221.538 47.3539 221.825 47.3193 222.113 47.3069C222.435 47.2929 222.761 47.3418 223.045 47.4948C223.334 47.6503 223.6 47.8501 223.8 48.0498C224.291 48.7869 224.38 50.2283 224.396 50.6435C224.4 50.7252 224.411 50.7099 224.427 50.6297C224.551 50.0011 224.569 48.9121 224.85 48.3498C225 48.0498 225.6 47.7498 225.9 47.5998C226.35 47.4498 226.95 47.4498 227.4 47.5998C227.7 47.5998 228.3 48.0498 228.45 48.3498C228.75 48.7998 228.9 50.2998 229.05 50.8998C229.05 51.0498 229.2 50.2998 229.5 49.8498C230.1 48.9498 232.2 48.6498 232.35 50.7498C232.35 51.7998 232.35 51.6498 232.35 52.3998C232.35 53.1498 232.35 53.5998 232.35 54.1998C232.35 54.7998 232.2 56.1498 232.05 56.7498C231.9 57.1998 231.45 58.2498 231 58.8498C231 58.8498 229.35 60.6498 229.2 61.5498C229.05 62.4498 229.05 62.4498 229.05 63.0498C229.05 63.1421 229.053 63.2378 229.059 63.3339C229.096 63.9138 228.708 64.4671 228.127 64.4665C227.862 64.4662 227.598 64.4494 227.4 64.3998C226.5 64 226.5 63.0498 225.5 63.0498C224.5 63.0498 224.111 64.2697 223.2 64.3998C222.414 64.5121 221.04 64.4563 219.769 64.4211C219.139 64.4037 218.676 63.8122 218.604 63.1853C218.565 62.8481 218.466 62.5157 218.25 62.2998C217.8 61.8498 217.05 61.0998 216.6 60.6498C214.835 59.5267 214.314 58.3462 213.15 56.5998Z" fill="white" stroke="#FF3F55"/>
<path fill-rule="evenodd" clip-rule="evenodd" d="M221 54.5C221.276 54.5 221.5 54.7239 221.5 55V60C221.5 60.2761 221.276 60.5 221 60.5C220.724 60.5 220.5 60.2761 220.5 60V55C220.5 54.7239 220.724 54.5 221 54.5ZM224 54.5C224.276 54.5 224.5 54.7239 224.5 55V60C224.5 60.2761 224.276 60.5 224 60.5C223.724 60.5 223.5 60.2761 223.5 60V55C223.5 54.7239 223.724 54.5 224 54.5ZM227.5 55C227.5 54.7239 227.276 54.5 227 54.5C226.724 54.5 226.5 54.7239 226.5 55V60C226.5 60.2761 226.724 60.5 227 60.5C227.276 60.5 227.5 60.2761 227.5 60V55Z" fill="#FF3F55"/>
<path d="M12.8185 96L9.66848 90.63L8.58848 88.455H8.54348V96H6.66848V85.53H8.84348L11.9935 90.9L13.0735 93.075H13.1185V85.53H14.9935V96H12.8185ZM19.2647 96.18C17.6747 96.18 16.7747 95.265 16.7747 93.87C16.7747 92.265 17.9897 91.47 20.1197 91.47H21.4547V90.9C21.4547 90.03 21.0197 89.52 19.9997 89.52C19.0997 89.52 18.5897 89.97 18.2147 90.51L17.0747 89.49C17.6447 88.59 18.5597 87.99 20.1347 87.99C22.2497 87.99 23.3747 88.995 23.3747 90.78V94.47H24.1547V96H23.0897C22.2647 96 21.7547 95.46 21.6347 94.65H21.5447C21.2897 95.655 20.4347 96.18 19.2647 96.18ZM19.9097 94.785C20.7647 94.785 21.4547 94.395 21.4547 93.66V92.625H20.2247C19.2197 92.625 18.7247 92.97 18.7247 93.585V93.84C18.7247 94.47 19.1597 94.785 19.9097 94.785ZM27.6286 96H25.7086V88.17H27.6286V89.79H27.7036C27.8986 88.965 28.5286 88.17 29.7736 88.17H30.1936V89.985H29.5936C28.3036 89.985 27.6286 90.345 27.6286 91.2V96ZM33.5173 96H31.5973V88.17H33.5173V89.79H33.5923C33.7873 88.965 34.4173 88.17 35.6623 88.17H36.0823V89.985H35.4823C34.1923 89.985 33.5173 90.345 33.5173 91.2V96ZM39.2598 96.18C37.6698 96.18 36.7698 95.265 36.7698 93.87C36.7698 92.265 37.9848 91.47 40.1148 91.47H41.4498V90.9C41.4498 90.03 41.0148 89.52 39.9948 89.52C39.0948 89.52 38.5848 89.97 38.2098 90.51L37.0698 89.49C37.6398 88.59 38.5548 87.99 40.1298 87.99C42.2448 87.99 43.3698 88.995 43.3698 90.78V94.47H44.1498V96H43.0848C42.2598 96 41.7498 95.46 41.6298 94.65H41.5398C41.2848 95.655 40.4298 96.18 39.2598 96.18ZM39.9048 94.785C40.7598 94.785 41.4498 94.395 41.4498 93.66V92.625H40.2198C39.2148 92.625 38.7198 92.97 38.7198 93.585V93.84C38.7198 94.47 39.1548 94.785 39.9048 94.785ZM48.0902 96C46.7702 96 46.0652 95.28 46.0652 94.005V89.7H44.9102V88.17H45.5102C46.0802 88.17 46.2602 87.9 46.2602 87.36V86.025H47.9852V88.17H49.5902V89.7H47.9852V94.47H49.4702V96H48.0902ZM52.2155 87.03C51.4205 87.03 51.0905 86.625 51.0905 86.07V85.77C51.0905 85.215 51.4205 84.81 52.2155 84.81C52.9955 84.81 53.3405 85.215 53.3405 85.77V86.07C53.3405 86.625 52.9955 87.03 52.2155 87.03ZM51.2555 96V88.17H53.1755V96H51.2555ZM58.506 96.18C56.271 96.18 54.876 94.59 54.876 92.07C54.876 89.565 56.271 87.99 58.506 87.99C60.756 87.99 62.151 89.565 62.151 92.07C62.151 94.59 60.756 96.18 58.506 96.18ZM58.506 94.635C59.511 94.635 60.141 93.99 60.141 92.805V91.35C60.141 90.18 59.511 89.535 58.506 89.535C57.516 89.535 56.886 90.18 56.886 91.35V92.805C56.886 93.99 57.516 94.635 58.506 94.635ZM65.7732 96H63.8532V88.17H65.7732V89.475H65.8482C66.1632 88.635 66.8232 87.99 68.0382 87.99C69.6432 87.99 70.5432 89.1 70.5432 91.05V96H68.6232V91.245C68.6232 90.135 68.2482 89.565 67.3332 89.565C66.5382 89.565 65.7732 89.985 65.7732 90.825V96ZM12.8121 112.18C11.2221 112.18 10.3221 111.265 10.3221 109.87C10.3221 108.265 11.5371 107.47 13.6671 107.47H15.0021V106.9C15.0021 106.03 14.5671 105.52 13.5471 105.52C12.6471 105.52 12.1371 105.97 11.7621 106.51L10.6221 105.49C11.1921 104.59 12.1071 103.99 13.6821 103.99C15.7971 103.99 16.9221 104.995 16.9221 106.78V110.47H17.7021V112H16.6371C15.8121 112 15.3021 111.46 15.1821 110.65H15.0921C14.8371 111.655 13.9821 112.18 12.8121 112.18ZM13.4571 110.785C14.3121 110.785 15.0021 110.395 15.0021 109.66V108.625H13.7721C12.7671 108.625 12.2721 108.97 12.2721 109.585V109.84C12.2721 110.47 12.7071 110.785 13.4571 110.785ZM21.176 112H19.256V104.17H21.176V105.475H21.251C21.566 104.635 22.226 103.99 23.441 103.99C25.046 103.99 25.946 105.1 25.946 107.05V112H24.026V107.245C24.026 106.135 23.651 105.565 22.736 105.565C21.941 105.565 21.176 105.985 21.176 106.825V112ZM28.0744 112V100.9H29.9944V105.475H30.0694C30.3844 104.635 31.0444 103.99 32.2594 103.99C33.8644 103.99 34.7644 105.1 34.7644 107.05V112H32.8444V107.245C32.8444 106.135 32.4694 105.565 31.5544 105.565C30.7594 105.565 29.9944 105.985 29.9944 106.825V112H28.0744ZM38.4227 102.925C37.6427 102.925 37.3577 102.55 37.3577 102.055V101.74C37.3577 101.245 37.6427 100.87 38.4227 100.87C39.2027 100.87 39.4877 101.245 39.4877 101.74V102.055C39.4877 102.55 39.2027 102.925 38.4227 102.925ZM41.5727 102.925C40.7927 102.925 40.5077 102.55 40.5077 102.055V101.74C40.5077 101.245 40.7927 100.87 41.5727 100.87C42.3527 100.87 42.6377 101.245 42.6377 101.74V102.055C42.6377 102.55 42.3527 102.925 41.5727 102.925ZM39.9977 112.18C37.7627 112.18 36.3677 110.59 36.3677 108.07C36.3677 105.565 37.7627 103.99 39.9977 103.99C42.2477 103.99 43.6427 105.565 43.6427 108.07C43.6427 110.59 42.2477 112.18 39.9977 112.18ZM39.9977 110.635C41.0027 110.635 41.6327 109.99 41.6327 108.805V107.35C41.6327 106.18 41.0027 105.535 39.9977 105.535C39.0077 105.535 38.3777 106.18 38.3777 107.35V108.805C38.3777 109.99 39.0077 110.635 39.9977 110.635ZM47.2649 112H45.3449V104.17H47.2649V105.79H47.3399C47.5349 104.965 48.1649 104.17 49.4099 104.17H49.8299V105.985H49.2299C47.9399 105.985 47.2649 106.345 47.2649 107.2V112ZM54.3253 112.18C52.0153 112.18 50.6353 110.575 50.6353 108.07C50.6353 105.595 51.9703 103.99 54.2653 103.99C56.7103 103.99 57.8353 105.79 57.8353 107.935V108.565H52.6303V108.76C52.6303 109.885 53.2753 110.65 54.5353 110.65C55.4803 110.65 56.0503 110.2 56.5303 109.585L57.5653 110.74C56.9203 111.625 55.7803 112.18 54.3253 112.18ZM54.2953 105.43C53.2903 105.43 52.6303 106.18 52.6303 107.26V107.38H55.8403V107.245C55.8403 106.165 55.2853 105.43 54.2953 105.43ZM61.4446 112H59.5246V104.17H61.4446V105.475H61.5196C61.8346 104.635 62.4946 103.99 63.7096 103.99C65.3146 103.99 66.2146 105.1 66.2146 107.05V112H64.2946V107.245C64.2946 106.135 63.9196 105.565 63.0046 105.565C62.2096 105.565 61.4446 105.985 61.4446 106.825V112Z" fill="white"/>
<path d="M172.782 96.18C170.997 96.18 169.767 95.475 168.882 94.44L170.217 93.15C170.937 93.99 171.822 94.44 172.902 94.44C174.117 94.44 174.747 93.855 174.747 92.97C174.747 92.265 174.417 91.83 173.322 91.635L172.332 91.485C170.217 91.155 169.197 90.15 169.197 88.44C169.197 86.565 170.652 85.35 172.992 85.35C174.567 85.35 175.737 85.89 176.577 86.895L175.227 88.17C174.717 87.525 173.997 87.09 172.887 87.09C171.762 87.09 171.177 87.54 171.177 88.32C171.177 89.115 171.627 89.445 172.632 89.625L173.607 89.805C175.722 90.18 176.712 91.125 176.712 92.85C176.712 94.83 175.287 96.18 172.782 96.18ZM181.742 96.18C179.432 96.18 178.052 94.575 178.052 92.07C178.052 89.595 179.387 87.99 181.682 87.99C184.127 87.99 185.252 89.79 185.252 91.935V92.565H180.047V92.76C180.047 93.885 180.692 94.65 181.952 94.65C182.897 94.65 183.467 94.2 183.947 93.585L184.982 94.74C184.337 95.625 183.197 96.18 181.742 96.18ZM181.712 89.43C180.707 89.43 180.047 90.18 180.047 91.26V91.38H183.257V91.245C183.257 90.165 182.702 89.43 181.712 89.43ZM189.897 96H188.862C187.557 96 186.942 95.31 186.942 94.11V84.9H188.862V94.47H189.897V96ZM191.351 96V84.9H193.271V89.46H193.331C193.616 88.56 194.456 87.99 195.491 87.99C197.471 87.99 198.566 89.46 198.566 92.07C198.566 94.695 197.471 96.18 195.491 96.18C194.456 96.18 193.631 95.58 193.331 94.695H193.271V96H191.351ZM194.876 94.59C195.866 94.59 196.556 93.87 196.556 92.76V91.41C196.556 90.3 195.866 89.565 194.876 89.565C193.961 89.565 193.271 90.06 193.271 90.825V93.315C193.271 94.125 193.961 94.59 194.876 94.59ZM202.91 96.18C201.425 96.18 200.45 95.64 199.67 94.74L200.84 93.6C201.41 94.26 202.1 94.665 202.985 94.665C203.9 94.665 204.29 94.32 204.29 93.765C204.29 93.315 204.02 93.03 203.33 92.94L202.55 92.835C200.87 92.625 199.94 91.89 199.94 90.465C199.94 88.95 201.125 87.99 202.91 87.99C204.44 87.99 205.22 88.44 205.97 89.22L204.845 90.345C204.395 89.865 203.735 89.505 202.97 89.505C202.145 89.505 201.785 89.835 201.785 90.315C201.785 90.84 202.07 91.08 202.805 91.2L203.6 91.305C205.31 91.545 206.135 92.31 206.135 93.615C206.135 95.13 204.86 96.18 202.91 96.18ZM210.158 96C208.838 96 208.133 95.28 208.133 94.005V89.7H206.978V88.17H207.578C208.148 88.17 208.328 87.9 208.328 87.36V86.025H210.053V88.17H211.658V89.7H210.053V94.47H211.538V96H210.158ZM215.888 96.18C214.403 96.18 213.428 95.64 212.648 94.74L213.818 93.6C214.388 94.26 215.078 94.665 215.963 94.665C216.878 94.665 217.268 94.32 217.268 93.765C217.268 93.315 216.998 93.03 216.308 92.94L215.528 92.835C213.848 92.625 212.918 91.89 212.918 90.465C212.918 88.95 214.103 87.99 215.888 87.99C217.418 87.99 218.198 88.44 218.948 89.22L217.823 90.345C217.373 89.865 216.713 89.505 215.948 89.505C215.123 89.505 214.763 89.835 214.763 90.315C214.763 90.84 215.048 91.08 215.783 91.2L216.578 91.305C218.288 91.545 219.113 92.31 219.113 93.615C219.113 95.13 217.838 96.18 215.888 96.18ZM223.137 96C221.817 96 221.112 95.28 221.112 94.005V89.7H219.957V88.17H220.557C221.127 88.17 221.307 87.9 221.307 87.36V86.025H223.032V88.17H224.637V89.7H223.032V94.47H224.517V96H223.137ZM227.562 86.925C226.782 86.925 226.497 86.55 226.497 86.055V85.74C226.497 85.245 226.782 84.87 227.562 84.87C228.342 84.87 228.627 85.245 228.627 85.74V86.055C228.627 86.55 228.342 86.925 227.562 86.925ZM230.712 86.925C229.932 86.925 229.647 86.55 229.647 86.055V85.74C229.647 85.245 229.932 84.87 230.712 84.87C231.492 84.87 231.777 85.245 231.777 85.74V86.055C231.777 86.55 231.492 86.925 230.712 86.925ZM228.237 96.18C226.647 96.18 225.747 95.265 225.747 93.87C225.747 92.265 226.962 91.47 229.092 91.47H230.427V90.9C230.427 90.03 229.992 89.52 228.972 89.52C228.072 89.52 227.562 89.97 227.187 90.51L226.047 89.49C226.617 88.59 227.532 87.99 229.107 87.99C231.222 87.99 232.347 88.995 232.347 90.78V94.47H233.127V96H232.062C231.237 96 230.727 95.46 230.607 94.65H230.517C230.262 95.655 229.407 96.18 228.237 96.18ZM228.882 94.785C229.737 94.785 230.427 94.395 230.427 93.66V92.625H229.197C228.192 92.625 227.697 92.97 227.697 93.585V93.84C227.697 94.47 228.132 94.785 228.882 94.785ZM236.601 96H234.681V88.17H236.601V89.475H236.676C236.991 88.635 237.651 87.99 238.866 87.99C240.471 87.99 241.371 89.1 241.371 91.05V96H239.451V91.245C239.451 90.135 239.076 89.565 238.161 89.565C237.366 89.565 236.601 89.985 236.601 90.825V96ZM248.359 96V94.695H248.284C247.999 95.58 247.159 96.18 246.124 96.18C244.159 96.18 243.064 94.695 243.064 92.07C243.064 89.46 244.159 87.99 246.124 87.99C247.159 87.99 248.014 88.56 248.284 89.46H248.359V84.9H250.279V96H248.359ZM246.739 94.59C247.654 94.59 248.359 94.125 248.359 93.315V90.825C248.359 90.06 247.654 89.565 246.739 89.565C245.749 89.565 245.074 90.3 245.074 91.41V92.76C245.074 93.87 245.749 94.59 246.739 94.59ZM253.453 87.03C252.658 87.03 252.328 86.625 252.328 86.07V85.77C252.328 85.215 252.658 84.81 253.453 84.81C254.233 84.81 254.578 85.215 254.578 85.77V86.07C254.578 86.625 254.233 87.03 253.453 87.03ZM252.493 96V88.17H254.413V96H252.493ZM263.704 96.66C263.704 98.295 262.594 99.18 259.594 99.18C256.954 99.18 255.949 98.49 255.949 97.335C255.949 96.465 256.474 95.97 257.344 95.835V95.67C256.699 95.505 256.339 94.995 256.339 94.365C256.339 93.555 257.029 93.15 257.779 92.985V92.925C256.834 92.49 256.354 91.68 256.354 90.645C256.354 89.055 257.479 87.99 259.594 87.99C260.074 87.99 260.569 88.05 260.959 88.185V87.93C260.959 87.165 261.349 86.79 262.069 86.79H263.284V88.26H261.619V88.47C262.429 88.92 262.834 89.685 262.834 90.645C262.834 92.22 261.724 93.27 259.594 93.27C259.144 93.27 258.739 93.225 258.394 93.135C258.094 93.27 257.839 93.495 257.839 93.84C257.839 94.23 258.169 94.425 258.859 94.425H260.959C262.879 94.425 263.704 95.25 263.704 96.66ZM261.904 96.885C261.904 96.39 261.544 96.09 260.569 96.09H257.899C257.614 96.3 257.494 96.585 257.494 96.9C257.494 97.5 257.944 97.86 259.144 97.86H260.104C261.349 97.86 261.904 97.545 261.904 96.885ZM259.594 91.965C260.509 91.965 261.004 91.545 261.004 90.765V90.51C261.004 89.715 260.509 89.31 259.594 89.31C258.679 89.31 258.184 89.715 258.184 90.51V90.765C258.184 91.545 258.679 91.965 259.594 91.965ZM187.104 112.18C184.794 112.18 183.414 110.575 183.414 108.07C183.414 105.595 184.749 103.99 187.044 103.99C189.489 103.99 190.614 105.79 190.614 107.935V108.565H185.409V108.76C185.409 109.885 186.054 110.65 187.314 110.65C188.259 110.65 188.829 110.2 189.309 109.585L190.344 110.74C189.699 111.625 188.559 112.18 187.104 112.18ZM187.074 105.43C186.069 105.43 185.409 106.18 185.409 107.26V107.38H188.619V107.245C188.619 106.165 188.064 105.43 187.074 105.43ZM194.223 112H192.303V104.17H194.223V105.79H194.298C194.493 104.965 195.123 104.17 196.368 104.17H196.788V105.985H196.188C194.898 105.985 194.223 106.345 194.223 107.2V112ZM198.192 112V100.9H200.112V107.59H200.187L201.222 106.18L202.977 104.17H205.152L202.452 107.2L205.437 112H203.157L201.147 108.49L200.112 109.615V112H198.192ZM211.148 112V110.695H211.073C210.803 111.475 210.173 112.18 208.883 112.18C207.278 112.18 206.378 111.07 206.378 109.12V104.17H208.298V108.925C208.298 110.005 208.703 110.59 209.618 110.59C210.383 110.59 211.148 110.185 211.148 109.345V104.17H213.068V112H211.148ZM217.206 112H215.286V104.17H217.206V105.475H217.281C217.596 104.635 218.256 103.99 219.471 103.99C221.076 103.99 221.976 105.1 221.976 107.05V112H220.056V107.245C220.056 106.135 219.681 105.565 218.766 105.565C217.971 105.565 217.206 105.985 217.206 106.825V112ZM228.965 112V110.695H228.89C228.605 111.58 227.765 112.18 226.73 112.18C224.765 112.18 223.67 110.695 223.67 108.07C223.67 105.46 224.765 103.99 226.73 103.99C227.765 103.99 228.62 104.56 228.89 105.46H228.965V100.9H230.885V112H228.965ZM227.345 110.59C228.26 110.59 228.965 110.125 228.965 109.315V106.825C228.965 106.06 228.26 105.565 227.345 105.565C226.355 105.565 225.68 106.3 225.68 107.41V108.76C225.68 109.87 226.355 110.59 227.345 110.59ZM236.264 112.18C233.954 112.18 232.574 110.575 232.574 108.07C232.574 105.595 233.909 103.99 236.204 103.99C238.649 103.99 239.774 105.79 239.774 107.935V108.565H234.569V108.76C234.569 109.885 235.214 110.65 236.474 110.65C237.419 110.65 237.989 110.2 238.469 109.585L239.504 110.74C238.859 111.625 237.719 112.18 236.264 112.18ZM236.234 105.43C235.229 105.43 234.569 106.18 234.569 107.26V107.38H237.779V107.245C237.779 106.165 237.224 105.43 236.234 105.43ZM243.383 112H241.463V104.17H243.383V105.475H243.458C243.773 104.635 244.433 103.99 245.648 103.99C247.253 103.99 248.153 105.1 248.153 107.05V112H246.233V107.245C246.233 106.135 245.858 105.565 244.943 105.565C244.148 105.565 243.383 105.985 243.383 106.825V112Z" fill="white"/>
</svg>
