<svg width="728px" height="289px" viewBox="0 0 728 289" version="1.1" xmlns="http://www.w3.org/2000/svg" xmlns:xlink="http://www.w3.org/1999/xlink">
    <g id="Page-1" stroke="none" stroke-width="1" fill="none" fill-rule="evenodd">
	    <g id="uclab" transform="translate(363.500000, 144.000000) rotate(-90.000000) translate(-363.500000, -144.000000) translate(219.000000, -220.000000)" fill="#eee">
	        <polyline id="Fill-1" points="136.868 515.654 0 405.958 136.868 728 136.868 515.654"></polyline>
	        <polyline id="Fill-2" points="136.868 315.383 10.064 398.913 136.868 500.558 136.868 315.383"></polyline>
	        <polyline id="Fill-3" points="147.938 524.711 147.938 714.917 246.564 604.215 147.938 524.711"></polyline>
	        <path d="M260.824,4.436 L288.019,4.436 L288.019,10.021 L260.582,10.021 C253.054,10.021 248.926,14.877 248.926,21.919 C248.926,28.96 252.811,33.817 260.582,33.817 L288.019,33.817 L288.019,39.401 L260.824,39.401 C250.141,39.401 243.585,32.117 243.585,21.919 C243.585,11.721 249.898,4.436 260.824,4.436" id="Fill-4"></path>
	        <path d="M263.252,73.152 L263.252,68.296 L244.07,68.296 L244.07,62.711 L288.019,62.711 L288.019,75.823 C288.019,84.322 283.163,89.907 275.636,89.907 C269.323,89.907 264.952,86.021 263.738,79.466 L244.07,94.763 L244.07,87.964 L263.252,73.152 Z M268.352,75.338 C268.352,81.165 271.022,84.079 275.636,84.079 C280.249,84.079 282.92,81.165 282.92,75.338 L282.92,68.296 L268.352,68.296 L268.352,75.338 Z" id="Fill-5"></path>
	        <path d="M288.019,113.945 L288.019,128.514 C288.019,137.012 282.678,141.383 276.607,141.383 C272.237,141.383 269.323,139.683 267.38,136.77 C265.681,141.14 262.281,144.297 256.454,144.297 C248.441,144.297 244.07,138.226 244.07,129 L244.07,113.702 L288.019,113.702 L288.019,113.945 Z M269.08,128.514 C269.08,133.127 271.994,136.041 275.879,136.041 C279.521,136.041 282.678,133.37 282.678,128.514 L282.678,119.53 L268.837,119.53 L268.837,128.514 L269.08,128.514 Z M249.169,129.971 C249.169,135.798 252.326,138.712 256.697,138.712 C261.067,138.712 264.224,135.798 264.224,129.971 L264.224,119.53 L249.169,119.53 L249.169,129.971 Z" id="Fill-6"></path>
	        <path d="M288.019,179.262 L288.019,196.259 L244.07,196.259 L244.07,190.674 L255.482,190.674 L255.482,169.549 L244.07,163.965 L244.07,157.894 L288.019,179.262 Z M260.824,171.978 L260.824,190.674 L282.678,190.674 L282.678,182.419 L260.824,171.978 Z" id="Fill-7"></path>
	        <polyline id="Fill-8" points="288.505 220.055 244.07 220.055 244.07 225.639 276.122 225.639 252.811 251.378 244.07 251.378 244.07 256.962 288.019 256.962 288.019 251.378 260.096 251.378 288.505 220.055"></polyline>
	        <path d="M204.006,0.794 C216.875,0.794 226.588,10.749 226.588,23.376 C226.588,28.96 224.888,33.817 221.489,37.702 L217.118,34.302 C219.546,31.388 221.246,27.746 221.246,23.376 C221.246,13.663 213.719,6.622 204.249,6.622 C194.779,6.622 187.252,13.663 187.252,23.376 C187.252,27.746 188.952,31.388 191.38,34.302 L187.009,37.702 C183.61,33.817 181.91,28.96 181.91,23.376 C181.667,10.507 191.38,0.794 204.006,0.794" id="Fill-9"></path>
	        <path d="M204.006,54.456 C216.875,54.456 226.588,64.411 226.588,77.037 C226.588,89.664 216.875,99.619 204.006,99.619 C191.137,99.619 181.424,89.664 181.424,77.037 C181.424,64.411 191.38,54.456 204.006,54.456 M204.006,93.549 C213.719,93.549 221.003,86.507 221.003,76.795 C221.003,67.082 213.476,60.04 204.006,60.04 C194.536,60.04 187.009,67.082 187.009,76.795 C187.009,86.507 194.536,93.549 204.006,93.549" id="Fill-10"></path>
	        <polyline id="Fill-11" points="226.588 120.015 203.035 141.383 226.588 162.993 182.153 162.993 182.153 157.166 212.747 157.166 195.022 141.383 212.747 125.6 182.153 125.6 182.153 120.015 226.588 120.015"></polyline>
	        <path d="M226.102,186.546 L226.102,198.93 C226.102,208.157 221.003,214.227 212.747,214.227 C204.492,214.227 199.393,208.157 199.393,198.93 L199.393,192.131 L182.396,192.131 L182.396,186.546 L226.102,186.546 Z M204.492,198.93 C204.492,205.243 207.405,208.642 212.747,208.642 C217.846,208.642 221.003,205.243 221.003,198.93 L221.003,192.374 L204.492,192.374 L204.492,198.93 Z" id="Fill-12"></path>
	        <polyline id="Fill-13" points="226.102 233.652 226.102 239.48 187.495 239.48 187.495 257.933 182.153 257.933 182.153 233.652 226.102 233.652"></polyline>
	        <polyline id="Fill-14" points="226.102 276.873 226.102 302.368 220.517 302.368 220.517 282.7 207.405 282.7 207.405 298.726 201.821 298.726 201.821 282.7 187.495 282.7 187.495 302.368 182.153 302.368 182.153 276.873 226.102 276.873"></polyline>
	        <polyline id="Fill-15" points="202.792 336.848 182.153 325.678 182.153 319.608 207.891 333.449 226.102 320.337 226.102 326.893 206.191 341.219 226.102 351.66 226.102 357.73 201.335 344.618 182.153 358.458 182.153 351.66 202.792 336.848"></polyline>
	        <polygon id="Fill-16" points="182.153 383.711 226.102 383.711 226.102 378.126 182.153 378.126"></polygon>
	        <polyline id="Fill-17" points="220.517 415.762 220.517 403.136 226.102 403.136 226.102 433.731 220.517 433.731 220.517 421.347 182.153 421.347 182.153 415.762 220.517 415.762"></polyline>
	        <polyline id="Fill-18" points="226.102 480.108 206.191 467.724 226.102 455.341 226.102 448.785 200.849 464.811 182.153 464.811 182.153 470.395 200.849 470.395 226.102 486.664 226.102 480.108"></polyline>
	        <polyline id="Fill-19" points="164.185 4.436 120.235 4.436 120.235 28.475 125.577 28.475 125.577 10.021 164.185 10.021 164.185 4.436"></polyline>
	        <path d="M164.185,63.925 L120.235,42.801 L120.235,48.871 L131.648,54.456 L131.648,75.581 L120.235,75.581 L120.235,81.165 L164.185,81.165 L164.185,63.925 Z M158.6,67.082 L158.6,75.338 L136.747,75.338 L136.747,56.641 L158.6,67.082 Z" id="Fill-20"></path>
	        <path d="M164.185,104.718 L164.185,119.287 C164.185,127.785 158.843,132.156 152.772,132.156 C148.402,132.156 145.488,130.456 143.545,127.543 C141.846,131.913 138.446,135.07 132.619,135.07 C124.606,135.07 120.235,129 120.235,119.773 L120.235,104.475 L164.185,104.475 L164.185,104.718 Z M145.245,119.287 C145.245,123.9 148.159,126.814 152.044,126.814 C155.686,126.814 158.843,124.143 158.843,119.287 L158.843,110.303 L145.002,110.303 L145.002,119.287 L145.245,119.287 Z M125.334,120.744 C125.334,126.571 128.491,129.485 132.862,129.485 C137.232,129.485 140.389,126.571 140.389,120.744 L140.389,110.303 L125.334,110.303 L125.334,120.744 Z" id="Fill-21"></path>
	    </g>
    </g>
</svg>